<svg width="500" height="300" viewBox="0 0 500 300" fill="none" xmlns="http://www.w3.org/2000/svg">
<g clip-path="url(#clip0_111_4)">
<path d="M486.618 154.743C486.618 305.743 381.805 360.28 244.562 360.28C107.32 360.28 47.0624 287.28 42.0624 247.28C26.6822 124.238 180.618 -5.89694 353.062 15.2805C410.062 22.2805 486.618 55.7433 486.618 154.743Z" fill="#DFDEEC" fill-opacity="0.8"/>
<path d="M235.5 252H271.5L275.5 274.5L271.5 296H235.5L232 274.5L235.5 252Z" fill="#49556C"/>
<rect x="225" y="291" width="58" height="10" fill="#49556C"/>
<rect x="110" y="98" width="289" height="154" rx="11" fill="#49556C" stroke="#929292" stroke-width="6"/>
<path d="M113 107C113 103.686 115.686 101 119 101H389C392.314 101 395 103.686 395 107H113Z" fill="#3C475A"/>
<ellipse cx="163" cy="169.5" rx="26" ry="25.5" fill="#EB544B" fill-opacity="0.2"/>
<ellipse cx="167.5" cy="136" rx="21.5" ry="21" fill="#D9D9D9" fill-opacity="0.3"/>
<path d="M234 138.5C234 155.897 219.673 170 202 170C184.327 170 170 155.897 170 138.5C170 121.103 184.327 107 202 107C219.673 107 234 121.103 234 138.5Z" fill="#62B269" fill-opacity="0.3"/>
<ellipse cx="15.0565" cy="14.586" rx="15.0565" ry="14.586" transform="matrix(-0.999875 -0.0158133 0.016208 -0.999869 389.508 219.644)" fill="#EB544B" fill-opacity="0.2"/>
<ellipse cx="12.4505" cy="12.012" rx="12.4505" ry="12.012" transform="matrix(-0.999875 -0.0158133 0.016208 -0.999869 384.028 236.148)" fill="#D9D9D9" fill-opacity="0.3"/>
<path d="M333.288 221.894C333.448 211.945 341.872 204.012 352.106 204.175C362.339 204.339 370.505 212.538 370.346 222.488C370.186 232.438 361.762 240.371 351.529 240.207C341.296 240.043 333.129 231.844 333.288 221.894Z" fill="#62B269" fill-opacity="0.3"/>
<g filter="url(#filter0_d_111_4)">
<rect x="167" y="184" width="175" height="43" rx="10" fill="#FA8072"/>
<rect x="168" y="185" width="173" height="41" rx="9" stroke="#8C3B46" stroke-width="2"/>
</g>
<path d="M220.773 193.672V215H215.646V193.672H220.773ZM229.005 202.534V215H224.069V199.15H228.698L229.005 202.534ZM228.419 206.533L227.262 206.562C227.262 205.352 227.409 204.272 227.702 203.325C227.995 202.368 228.41 201.558 228.947 200.894C229.484 200.229 230.124 199.727 230.866 199.385C231.618 199.033 232.453 198.857 233.371 198.857C234.103 198.857 234.772 198.965 235.377 199.18C235.993 199.395 236.52 199.741 236.96 200.22C237.409 200.698 237.751 201.333 237.985 202.124C238.229 202.905 238.351 203.872 238.351 205.024V215H233.385V205.01C233.385 204.375 233.297 203.892 233.122 203.56C232.946 203.218 232.692 202.983 232.36 202.856C232.028 202.729 231.623 202.666 231.144 202.666C230.636 202.666 230.207 202.764 229.855 202.959C229.503 203.154 229.22 203.428 229.005 203.779C228.8 204.121 228.649 204.526 228.551 204.995C228.463 205.464 228.419 205.977 228.419 206.533ZM249.396 210.547C249.396 210.273 249.303 210.039 249.118 209.844C248.942 209.639 248.629 209.453 248.18 209.287C247.731 209.111 247.101 208.936 246.291 208.76C245.519 208.594 244.792 208.374 244.108 208.101C243.434 207.827 242.843 207.495 242.335 207.104C241.828 206.714 241.427 206.25 241.134 205.713C240.851 205.176 240.71 204.561 240.71 203.867C240.71 203.193 240.851 202.559 241.134 201.963C241.427 201.357 241.852 200.825 242.409 200.366C242.975 199.897 243.664 199.531 244.474 199.268C245.285 198.994 246.208 198.857 247.243 198.857C248.669 198.857 249.899 199.077 250.934 199.517C251.969 199.946 252.765 200.552 253.322 201.333C253.888 202.104 254.171 202.998 254.171 204.014H249.235C249.235 203.613 249.167 203.271 249.03 202.988C248.903 202.705 248.693 202.49 248.4 202.344C248.107 202.188 247.716 202.109 247.228 202.109C246.886 202.109 246.574 202.173 246.291 202.3C246.017 202.427 245.797 202.603 245.631 202.827C245.465 203.052 245.382 203.315 245.382 203.618C245.382 203.833 245.431 204.028 245.529 204.204C245.636 204.37 245.797 204.526 246.012 204.673C246.227 204.81 246.501 204.937 246.833 205.054C247.165 205.161 247.565 205.259 248.034 205.347C249.098 205.542 250.094 205.82 251.022 206.182C251.95 206.543 252.702 207.056 253.278 207.72C253.864 208.384 254.157 209.277 254.157 210.4C254.157 211.104 253.996 211.753 253.673 212.349C253.351 212.935 252.887 213.452 252.282 213.901C251.676 214.341 250.949 214.683 250.099 214.927C249.25 215.171 248.293 215.293 247.228 215.293C245.714 215.293 244.435 215.024 243.39 214.487C242.345 213.94 241.554 213.257 241.017 212.437C240.49 211.606 240.226 210.767 240.226 209.917H244.826C244.845 210.405 244.962 210.806 245.177 211.118C245.402 211.431 245.7 211.66 246.071 211.807C246.442 211.953 246.872 212.026 247.36 212.026C247.809 212.026 248.18 211.963 248.473 211.836C248.776 211.709 249.005 211.538 249.162 211.323C249.318 211.099 249.396 210.84 249.396 210.547ZM264.821 199.15V202.578H255.27V199.15H264.821ZM257.277 195.21H262.213V209.829C262.213 210.249 262.262 210.576 262.36 210.811C262.458 211.035 262.624 211.196 262.858 211.294C263.102 211.382 263.424 211.426 263.825 211.426C264.108 211.426 264.342 211.421 264.528 211.411C264.713 211.392 264.889 211.367 265.055 211.338V214.868C264.635 215.005 264.196 215.107 263.737 215.176C263.278 215.254 262.79 215.293 262.272 215.293C261.217 215.293 260.314 215.127 259.562 214.795C258.82 214.463 258.253 213.94 257.863 213.228C257.472 212.515 257.277 211.587 257.277 210.444V195.21ZM275.016 211.016V204.482C275.016 204.033 274.953 203.647 274.826 203.325C274.699 203.003 274.499 202.754 274.225 202.578C273.952 202.393 273.585 202.3 273.127 202.3C272.755 202.3 272.438 202.363 272.174 202.49C271.911 202.617 271.71 202.808 271.574 203.062C271.437 203.315 271.369 203.638 271.369 204.028H266.432C266.432 203.296 266.593 202.617 266.916 201.992C267.248 201.357 267.716 200.806 268.322 200.337C268.937 199.868 269.669 199.507 270.519 199.253C271.378 198.989 272.335 198.857 273.39 198.857C274.65 198.857 275.773 199.067 276.759 199.487C277.755 199.907 278.542 200.537 279.118 201.377C279.694 202.207 279.982 203.252 279.982 204.512V211.001C279.982 212.036 280.041 212.822 280.158 213.359C280.275 213.887 280.441 214.351 280.656 214.751V215H275.705C275.47 214.512 275.294 213.916 275.177 213.213C275.07 212.5 275.016 211.768 275.016 211.016ZM275.617 205.317L275.646 207.954H273.463C273.004 207.954 272.614 208.018 272.292 208.145C271.979 208.271 271.725 208.447 271.53 208.672C271.344 208.887 271.208 209.131 271.12 209.404C271.042 209.678 271.002 209.966 271.002 210.269C271.002 210.562 271.071 210.825 271.208 211.06C271.354 211.284 271.549 211.46 271.794 211.587C272.038 211.714 272.311 211.777 272.614 211.777C273.161 211.777 273.625 211.675 274.005 211.47C274.396 211.255 274.694 210.996 274.899 210.693C275.104 210.391 275.207 210.107 275.207 209.844L276.291 211.865C276.095 212.256 275.871 212.651 275.617 213.052C275.373 213.452 275.065 213.823 274.694 214.165C274.333 214.497 273.888 214.771 273.361 214.985C272.834 215.19 272.194 215.293 271.442 215.293C270.465 215.293 269.567 215.093 268.747 214.692C267.936 214.292 267.287 213.735 266.798 213.022C266.31 212.3 266.066 211.47 266.066 210.532C266.066 209.712 266.212 208.979 266.505 208.335C266.808 207.69 267.262 207.144 267.868 206.694C268.473 206.245 269.245 205.903 270.182 205.669C271.12 205.435 272.223 205.317 273.493 205.317H275.617ZM287.936 192.5V215H282.985V192.5H287.936ZM296.198 192.5V215H291.247V192.5H296.198Z" fill="#F3F2EF"/>
<g filter="url(#filter1_d_111_4)">
<path d="M317.833 223.452C317.594 223.148 317.647 222.707 317.951 222.468L320.154 220.737C320.458 220.498 320.898 220.551 321.137 220.855L328.28 229.945C328.519 230.249 328.467 230.689 328.162 230.928L325.96 232.659C325.656 232.898 325.215 232.845 324.976 232.541L317.833 223.452Z" fill="#D9D9D9"/>
<path d="M307.651 208.165C307.468 207.556 308.127 207.039 308.675 207.36L327.657 218.469C328.083 218.718 328.124 219.318 327.736 219.624L315.061 229.585C314.672 229.89 314.099 229.708 313.957 229.235L307.651 208.165Z" fill="#D9D9D9"/>
</g>
<rect x="202" y="166" width="105" height="3" rx="1.5" fill="#62B269" fill-opacity="0.75"/>
<path d="M230.738 140.154L225.538 157H220.016L227.853 135.672H231.354L230.738 140.154ZM235.045 157L229.83 140.154L229.156 135.672H232.701L240.582 157H235.045ZM234.84 149.046V153.016H223.897V149.046H234.84ZM247.613 135.672V157H242.486V135.672H247.613ZM262.218 151.331C262.218 150.999 262.169 150.701 262.071 150.438C261.974 150.164 261.793 149.91 261.529 149.676C261.266 149.441 260.885 149.207 260.387 148.973C259.898 148.729 259.254 148.475 258.453 148.211C257.516 147.898 256.612 147.547 255.743 147.156C254.874 146.756 254.098 146.292 253.414 145.765C252.73 145.228 252.188 144.603 251.788 143.89C251.388 143.167 251.188 142.327 251.188 141.37C251.188 140.452 251.393 139.627 251.803 138.895C252.213 138.152 252.784 137.522 253.517 137.005C254.259 136.478 255.128 136.077 256.124 135.804C257.12 135.521 258.209 135.379 259.391 135.379C260.953 135.379 262.33 135.652 263.521 136.199C264.723 136.736 265.66 137.503 266.334 138.499C267.018 139.485 267.359 140.652 267.359 142H262.247C262.247 141.463 262.135 140.989 261.91 140.579C261.695 140.169 261.368 139.847 260.929 139.612C260.489 139.378 259.938 139.261 259.273 139.261C258.629 139.261 258.087 139.358 257.647 139.554C257.208 139.749 256.876 140.013 256.651 140.345C256.427 140.667 256.314 141.023 256.314 141.414C256.314 141.736 256.402 142.029 256.578 142.293C256.764 142.547 257.022 142.786 257.354 143.011C257.696 143.235 258.106 143.45 258.585 143.655C259.073 143.86 259.62 144.061 260.226 144.256C261.358 144.617 262.364 145.022 263.243 145.472C264.132 145.911 264.879 146.414 265.484 146.98C266.1 147.537 266.563 148.172 266.876 148.885C267.198 149.598 267.359 150.403 267.359 151.302C267.359 152.259 267.174 153.108 266.803 153.851C266.432 154.593 265.899 155.223 265.206 155.74C264.513 156.248 263.683 156.634 262.716 156.897C261.749 157.161 260.67 157.293 259.479 157.293C258.385 157.293 257.306 157.156 256.241 156.883C255.187 156.6 254.229 156.17 253.37 155.594C252.511 155.008 251.822 154.261 251.305 153.353C250.797 152.435 250.543 151.346 250.543 150.086H255.699C255.699 150.711 255.782 151.238 255.948 151.668C256.114 152.098 256.358 152.444 256.681 152.708C257.003 152.962 257.398 153.147 257.867 153.265C258.336 153.372 258.873 153.426 259.479 153.426C260.133 153.426 260.66 153.333 261.061 153.147C261.461 152.952 261.754 152.698 261.939 152.386C262.125 152.063 262.218 151.712 262.218 151.331ZM278.521 149.764H273.219V145.794H278.521C279.244 145.794 279.83 145.672 280.279 145.428C280.729 145.184 281.056 144.847 281.261 144.417C281.476 143.978 281.583 143.484 281.583 142.938C281.583 142.352 281.476 141.81 281.261 141.312C281.056 140.813 280.729 140.413 280.279 140.11C279.83 139.798 279.244 139.642 278.521 139.642H275.152V157H270.011V135.672H278.521C280.23 135.672 281.7 135.984 282.931 136.609C284.171 137.234 285.123 138.094 285.787 139.188C286.451 140.271 286.783 141.512 286.783 142.908C286.783 144.285 286.451 145.486 285.787 146.512C285.123 147.537 284.171 148.338 282.931 148.914C281.7 149.48 280.23 149.764 278.521 149.764Z" fill="white"/>
<g opacity="0.95">
<path d="M322.096 192.025C325.166 195.282 325.247 200.193 322.276 202.993C319.306 205.794 316.246 204.724 312.659 200.92C309.072 197.115 308.93 193.299 311.157 191.199C314.128 188.398 319.025 188.768 322.096 192.025Z" fill="#E25F71" fill-opacity="0.7"/>
<g filter="url(#filter2_i_111_4)">
<path d="M321.786 192.477C323.811 194.625 324.764 198.852 322.783 200.719C320.273 203.086 318.757 202.369 315.778 199.209C313.753 197.061 312.192 194.265 314.882 191.729C317.571 189.194 319.761 190.329 321.786 192.477Z" fill="#D84557" fill-opacity="0.5"/>
</g>
<path d="M411.228 128.07C405.663 122.946 404.941 114.677 409.615 109.601C414.289 104.525 419.575 105.963 426.076 111.949C432.577 117.935 433.272 124.352 429.768 128.158C425.094 133.234 416.794 133.195 411.228 128.07Z" fill="#E25F71" fill-opacity="0.7"/>
<g filter="url(#filter3_i_111_4)">
<path d="M411.697 127.272C408.027 123.892 405.916 116.88 409.032 113.496C412.981 109.207 415.623 110.234 421.022 115.206C424.693 118.586 427.657 123.113 423.426 127.708C419.194 132.304 415.367 130.651 411.697 127.272Z" fill="#D84557" fill-opacity="0.5"/>
</g>
<path d="M331.246 156.325C333.892 151.351 336.871 146.283 342.968 148.384C347.692 150.012 349.296 155.619 346 162.241C342.703 168.863 335.901 169.188 333.148 167.038C328.428 163.35 328.599 161.299 331.246 156.325Z" fill="#E25F71" fill-opacity="0.7"/>
<g filter="url(#filter4_i_111_4)">
<path d="M342.457 160.096C340.696 163.392 336.137 166.31 333.257 164.771C328.041 161.986 331.211 159.846 333.802 154.997C335.562 151.7 336.529 148.095 340.44 150.184C344.352 152.273 344.218 156.799 342.457 160.096Z" fill="#D84557" fill-opacity="0.5"/>
</g>
<path d="M468.538 133.019C472.849 141.593 476.965 150.722 468.044 157.131C461.133 162.096 451.759 158.809 445.796 147.709C439.832 136.61 446.073 126.833 451.772 125.122C461.542 122.189 464.227 124.445 468.538 133.019Z" fill="#E25F71" fill-opacity="0.7"/>
<g filter="url(#filter5_i_111_4)">
<path d="M452.264 144.895C449.413 139.203 449.843 129.993 454.816 127.503C463.82 122.993 463.676 129.506 467.87 137.88C470.721 143.571 474.782 148.464 468.029 151.846C461.276 155.228 455.115 150.587 452.264 144.895Z" fill="#D84557" fill-opacity="0.5"/>
</g>
<path d="M368.041 117.721C365.148 111.051 362.415 103.98 369.144 99.7712C374.356 96.5107 381.118 99.5622 385.143 108.221C389.167 116.88 384.298 123.772 380.073 124.683C372.83 126.246 370.933 124.392 368.041 117.721Z" fill="#E25F71" fill-opacity="0.7"/>
<g filter="url(#filter6_i_111_4)">
<path d="M380.32 109.906C382.233 114.333 381.635 121.174 377.917 122.713C371.186 125.5 371.492 120.652 368.679 114.139C366.767 109.712 363.944 105.804 368.992 103.714C374.04 101.624 378.408 105.479 380.32 109.906Z" fill="#D84557" fill-opacity="0.5"/>
</g>
<path d="M402.417 196.572C401.634 197.142 400.524 196.748 400.273 195.813C400.046 194.966 399.096 194.543 398.314 194.941C397.452 195.381 396.417 194.819 396.316 193.856C396.224 192.983 395.351 192.417 394.517 192.688C393.596 192.987 392.662 192.27 392.713 191.304C392.759 190.427 391.986 189.731 391.119 189.869C390.163 190.02 389.352 189.166 389.553 188.219C389.736 187.361 389.081 186.552 388.204 186.553C387.236 186.553 386.568 185.582 386.915 184.678C387.23 183.859 386.71 182.958 385.843 182.821C384.887 182.67 384.38 181.607 384.864 180.768C385.303 180.008 384.93 179.037 384.095 178.766C383.175 178.467 382.84 177.338 383.449 176.586C384.002 175.904 383.785 174.886 383.003 174.488C382.141 174.049 381.987 172.881 382.706 172.233C383.359 171.646 383.304 170.607 382.594 170.092C381.811 169.523 381.842 168.345 382.654 167.818C383.39 167.34 383.498 166.306 382.878 165.685C382.193 165.001 382.408 163.843 383.292 163.449C384.094 163.092 384.363 162.088 383.847 161.378C383.278 160.595 383.671 159.484 384.606 159.234C385.454 159.007 385.877 158.057 385.478 157.275C385.039 156.412 385.601 155.377 386.564 155.276C387.436 155.184 388.003 154.312 387.732 153.477C387.432 152.557 388.149 151.622 389.116 151.673C389.992 151.719 390.688 150.946 390.551 150.079C390.399 149.123 391.254 148.313 392.2 148.514C393.059 148.696 393.867 148.042 393.867 147.164C393.867 146.196 394.838 145.529 395.741 145.876C396.561 146.191 397.461 145.67 397.599 144.804C397.75 143.848 398.813 143.34 399.651 143.825C400.411 144.263 401.382 143.891 401.653 143.056C401.952 142.135 403.082 141.801 403.834 142.41C404.516 142.962 405.533 142.746 405.932 141.964C406.371 141.101 407.539 140.948 408.186 141.667C408.773 142.319 409.812 142.265 410.328 141.555C410.897 140.772 412.074 140.802 412.601 141.614C413.079 142.35 414.114 142.459 414.734 141.838C415.419 141.154 416.577 141.368 416.97 142.253C417.327 143.054 418.332 143.324 419.042 142.808C419.825 142.239 420.935 142.632 421.186 143.567C421.413 144.414 422.363 144.838 423.145 144.439C424.007 143.999 425.042 144.561 425.144 145.524C425.235 146.397 426.108 146.963 426.942 146.692C427.863 146.393 428.797 147.11 428.746 148.076C428.7 148.953 429.473 149.649 430.34 149.511C431.296 149.36 432.107 150.214 431.906 151.161C431.723 152.019 432.378 152.828 433.255 152.828C434.223 152.828 434.891 153.798 434.544 154.702C434.229 155.521 434.749 156.422 435.616 156.559C436.572 156.71 437.079 157.774 436.595 158.612C436.156 159.372 436.529 160.343 437.364 160.614C438.284 160.913 438.619 162.042 438.01 162.794C437.457 163.476 437.674 164.494 438.456 164.892C439.318 165.331 439.472 166.499 438.753 167.147C438.1 167.734 438.155 168.773 438.865 169.289C439.648 169.857 439.617 171.035 438.805 171.562C438.069 172.04 437.961 173.074 438.581 173.695C439.266 174.379 439.051 175.537 438.167 175.931C437.365 176.288 437.096 177.293 437.612 178.002C438.181 178.785 437.788 179.896 436.853 180.146C436.005 180.373 435.582 181.324 435.981 182.105C436.42 182.968 435.858 184.003 434.895 184.104C434.023 184.196 433.456 185.068 433.727 185.903C434.027 186.823 433.31 187.758 432.343 187.707C431.467 187.661 430.771 188.434 430.908 189.301C431.06 190.257 430.205 191.068 429.259 190.866C428.4 190.684 427.592 191.338 427.592 192.216C427.592 193.184 426.621 193.851 425.718 193.504C424.898 193.19 423.998 193.71 423.86 194.577C423.709 195.533 422.646 196.04 421.808 195.556C421.048 195.117 420.077 195.49 419.806 196.324C419.507 197.245 418.377 197.58 417.625 196.97C416.943 196.418 415.926 196.634 415.527 197.416C415.088 198.279 413.92 198.433 413.273 197.713C412.686 197.061 411.647 197.115 411.131 197.825C410.562 198.609 409.385 198.578 408.858 197.766C408.38 197.03 407.345 196.921 406.725 197.542C406.04 198.226 404.882 198.012 404.489 197.127C404.132 196.326 403.127 196.057 402.417 196.572Z" fill="#F2F2F2"/>
<path d="M404.998 168.642C408.291 159.342 408.734 151.438 421.239 155.866C430.538 159.159 435.407 169.367 432.115 178.666C428.822 187.965 418.614 192.834 409.315 189.542C397.618 185.4 401.705 177.941 404.998 168.642Z" fill="#D9D9D9" fill-opacity="0.75"/>
<path d="M452.648 47.8733C452.89 48.8106 452.116 49.6988 451.155 49.5882C450.283 49.488 449.54 50.2164 449.624 51.09C449.716 52.0536 448.813 52.8099 447.88 52.5502C447.035 52.3148 446.187 52.9181 446.133 53.794C446.073 54.7601 445.063 55.3659 444.183 54.9635C443.385 54.5988 442.453 55.0621 442.263 55.9187C442.052 56.8635 440.96 57.3038 440.153 56.7687C439.422 56.2835 438.429 56.5954 438.107 57.4117C437.752 58.312 436.604 58.5759 435.891 57.9212C435.244 57.3277 434.216 57.4805 433.77 58.2363C433.278 59.0699 432.103 59.151 431.501 58.3928C430.955 57.7055 429.915 57.6954 429.356 58.3722C428.74 59.1186 427.567 59.0149 427.091 58.1719C426.66 57.4076 425.634 57.235 424.976 57.816C424.251 58.4568 423.108 58.1708 422.77 57.2638C422.463 56.4414 421.477 56.1105 420.737 56.5814C419.92 57.1009 418.836 56.6396 418.644 55.6909C418.47 54.8308 417.548 54.3496 416.743 54.6989C415.855 55.0842 414.856 54.4591 414.815 53.492C414.778 52.6152 413.942 51.9957 413.092 52.2147C412.155 52.4564 411.267 51.6828 411.377 50.7211C411.478 49.8493 410.749 49.1067 409.876 49.1901C408.912 49.2822 408.156 48.3791 408.415 47.4466C408.651 46.6013 408.048 45.7538 407.172 45.6996C406.206 45.6397 405.6 44.6295 406.002 43.7491C406.367 42.951 405.904 42.0196 405.047 41.829C404.102 41.6187 403.662 40.5262 404.197 39.7196C404.682 38.9883 404.37 37.9959 403.554 37.6736C402.654 37.3182 402.39 36.1702 403.044 35.4573C403.638 34.8109 403.485 33.7819 402.729 33.3359C401.896 32.844 401.815 31.6689 402.573 31.0671C403.26 30.5216 403.27 29.4814 402.594 28.9226C401.847 28.3063 401.951 27.133 402.794 26.6573C403.558 26.226 403.731 25.2001 403.15 24.5424C402.509 23.8169 402.795 22.6743 403.702 22.3363C404.524 22.0298 404.855 21.0436 404.384 20.3031C403.865 19.4863 404.326 18.4025 405.275 18.2105C406.135 18.0365 406.616 17.1142 406.267 16.3092C405.882 15.4212 406.507 14.4228 407.474 14.3816C408.351 14.3443 408.97 13.5086 408.751 12.6589C408.509 11.7215 409.283 10.8333 410.245 10.9439C411.116 11.0441 411.859 10.3157 411.776 9.4421C411.684 8.47851 412.587 7.7222 413.519 7.98187C414.364 8.21729 415.212 7.61399 415.266 6.73811C415.326 5.77198 416.336 5.16624 417.217 5.56859C418.015 5.93336 418.946 5.47005 419.137 4.61344C419.347 3.66857 420.44 3.22833 421.246 3.76345C421.977 4.24858 422.97 3.93668 423.292 3.12043C423.648 2.22008 424.795 1.95617 425.508 2.61088C426.155 3.20444 427.184 3.05162 427.63 2.29584C428.122 1.46218 429.297 1.38109 429.899 2.13928C430.444 2.82664 431.484 2.83668 432.043 2.15996C432.659 1.41352 433.833 1.51726 434.308 2.36025C434.74 3.1245 435.766 3.29713 436.423 2.71615C437.149 2.07531 438.291 2.36132 438.629 3.26835C438.936 4.09067 439.922 4.42165 440.663 3.95071C441.479 3.43125 442.563 3.89248 442.755 4.84123C442.929 5.70136 443.851 6.18255 444.657 5.83324C445.545 5.44795 446.543 6.07305 446.584 7.04015C446.621 7.91692 447.457 8.53646 448.307 8.31739C449.244 8.07575 450.132 8.84933 450.022 9.81097C449.922 10.6828 450.65 11.4254 451.524 11.342C452.487 11.25 453.243 12.153 452.984 13.0855C452.748 13.9309 453.352 14.7783 454.228 14.8326C455.194 14.8924 455.799 15.9026 455.397 16.783C455.032 17.5812 455.496 18.5125 456.352 18.7032C457.297 18.9134 457.737 20.0059 457.202 20.8125C456.717 21.5438 457.029 22.5362 457.845 22.8585C458.746 23.2139 459.01 24.3619 458.355 25.0748C457.761 25.7212 457.914 26.7502 458.67 27.1962C459.504 27.6881 459.585 28.8632 458.826 29.465C458.139 30.0105 458.129 31.0508 458.806 31.6095C459.552 32.2258 459.448 33.3991 458.605 33.8748C457.841 34.3062 457.669 35.332 458.25 35.9897C458.89 36.7152 458.604 37.8578 457.697 38.1958C456.875 38.5023 456.544 39.4885 457.015 40.229C457.534 41.0458 457.073 42.1296 456.124 42.3216C455.264 42.4956 454.783 43.4179 455.132 44.223C455.518 45.1109 454.893 46.1093 453.926 46.1505C453.049 46.1878 452.429 47.0235 452.648 47.8733Z" fill="#D9D9D9" fill-opacity="0.85"/>
<path d="M427.619 35.2114C420.18 28.7326 412.991 25.4169 421.703 15.4129C428.182 7.97368 439.465 7.19512 446.904 13.674C454.343 20.1528 455.122 31.4356 448.643 38.8749C440.494 48.2324 435.058 41.6903 427.619 35.2114Z" fill="#63A3B6" fill-opacity="0.6"/>
<path d="M334.451 105.55C334.801 104.951 335.639 104.882 336.083 105.415C336.484 105.898 337.23 105.891 337.628 105.405C338.066 104.871 338.906 104.93 339.258 105.524C339.578 106.062 340.309 106.176 340.776 105.76L340.797 105.741C341.311 105.284 342.124 105.478 342.376 106.118C342.605 106.698 343.308 106.925 343.832 106.587L343.866 106.566C344.443 106.195 345.212 106.513 345.359 107.183C345.492 107.791 346.149 108.124 346.718 107.872L346.762 107.853C347.387 107.576 348.096 108.01 348.134 108.693C348.168 109.313 348.764 109.744 349.364 109.583L349.413 109.57C350.072 109.393 350.703 109.932 350.632 110.611C350.567 111.227 351.088 111.746 351.704 111.679L351.753 111.674C352.431 111.601 352.97 112.232 352.792 112.89C352.63 113.487 353.063 114.081 353.682 114.11L353.725 114.112C354.406 114.143 354.841 114.851 354.561 115.473C354.306 116.037 354.641 116.692 355.248 116.815L355.28 116.822C355.949 116.957 356.269 117.726 355.894 118.296C355.553 118.814 355.791 119.518 356.372 119.733C357.014 119.971 357.22 120.786 356.759 121.291C356.34 121.75 356.46 122.481 357.002 122.784C357.601 123.119 357.67 123.956 357.134 124.385C356.649 124.773 356.651 125.513 357.139 125.897C357.677 126.32 357.607 127.158 357.013 127.497C356.474 127.805 356.355 128.538 356.776 128.993C357.24 129.494 357.05 130.305 356.413 130.549L356.382 130.56C355.804 130.781 355.58 131.482 355.924 131.997C356.302 132.564 355.989 133.334 355.322 133.477L355.28 133.486C354.675 133.615 354.345 134.272 354.602 134.835C354.886 135.455 354.457 136.166 353.777 136.205L353.727 136.207C353.109 136.242 352.68 136.84 352.845 137.437C353.027 138.095 352.492 138.73 351.813 138.664L351.762 138.659C351.144 138.598 350.627 139.121 350.695 139.738C350.769 140.418 350.141 140.962 349.479 140.792L349.433 140.78C348.83 140.625 348.237 141.061 348.205 141.683C348.17 142.368 347.463 142.808 346.833 142.536L346.797 142.521C346.223 142.274 345.568 142.612 345.437 143.222C345.293 143.895 344.523 144.219 343.941 143.852L343.917 143.838C343.388 143.504 342.685 143.736 342.458 144.319C342.208 144.963 341.389 145.158 340.869 144.703C340.397 144.289 339.66 144.405 339.343 144.946C338.993 145.545 338.155 145.614 337.712 145.081C337.31 144.598 336.565 144.605 336.167 145.091C335.729 145.625 334.889 145.567 334.536 144.973C334.217 144.434 333.486 144.321 333.018 144.737L332.998 144.755C332.484 145.212 331.671 145.019 331.419 144.379C331.19 143.798 330.487 143.572 329.962 143.909L329.929 143.931C329.352 144.301 328.582 143.983 328.435 143.314C328.302 142.706 327.645 142.373 327.076 142.624L327.033 142.644C326.407 142.92 325.699 142.486 325.661 141.803C325.626 141.184 325.03 140.752 324.431 140.913L324.381 140.926C323.722 141.103 323.091 140.564 323.162 139.885C323.227 139.269 322.707 138.75 322.091 138.817L322.041 138.822C321.364 138.896 320.824 138.265 321.003 137.607C321.165 137.009 320.731 136.415 320.113 136.387L320.069 136.385C319.388 136.354 318.954 135.645 319.234 135.024C319.489 134.459 319.153 133.804 318.546 133.681L318.514 133.675C317.845 133.539 317.525 132.77 317.901 132.2C318.242 131.682 318.004 130.979 317.422 130.763C316.781 130.525 316.574 129.71 317.035 129.205C317.454 128.746 317.335 128.016 316.793 127.712C316.194 127.377 316.125 126.54 316.661 126.112C317.146 125.723 317.144 124.984 316.655 124.599C316.118 124.176 316.188 123.339 316.782 122.999C317.32 122.691 317.44 121.958 317.018 121.503C316.555 121.002 316.744 120.191 317.382 119.948L317.412 119.936C317.991 119.715 318.215 119.014 317.871 118.499C317.493 117.932 317.805 117.162 318.472 117.02L318.514 117.011C319.12 116.881 319.45 116.224 319.192 115.661C318.909 115.041 319.337 114.33 320.018 114.292L320.067 114.289C320.686 114.254 321.115 113.657 320.95 113.059C320.768 112.402 321.303 111.766 321.982 111.833L322.033 111.838C322.65 111.898 323.167 111.375 323.1 110.758C323.025 110.078 323.653 109.534 324.316 109.704L324.362 109.716C324.964 109.871 325.558 109.435 325.59 108.814C325.625 108.129 326.332 107.689 326.962 107.96L326.998 107.976C327.571 108.223 328.227 107.884 328.358 107.274C328.502 106.601 329.272 106.277 329.854 106.644L329.877 106.659C330.407 106.993 331.109 106.761 331.336 106.177C331.586 105.533 332.405 105.338 332.925 105.793C333.397 106.207 334.134 106.092 334.451 105.55Z" fill="#D9D9D9" fill-opacity="0.5"/>
<path d="M343.466 123.77C344.038 130.705 341.137 136.605 334.059 137.189C326.981 137.772 320.78 132.624 320.207 125.688C319.635 118.753 324.909 112.658 331.987 112.074C339.065 111.49 342.894 116.835 343.466 123.77Z" fill="#D9D9D9" fill-opacity="0.75"/>
<path d="M369.2 200.714C368.964 201.148 368.366 201.211 368.045 200.835C367.754 200.494 367.223 200.507 366.951 200.863C366.649 201.255 366.049 201.223 365.791 200.801C365.557 200.419 365.031 200.349 364.706 200.658C364.347 200.998 363.759 200.872 363.57 200.416C363.399 200.002 362.89 199.85 362.52 200.104C362.113 200.384 361.552 200.168 361.437 199.687C361.332 199.252 360.853 199.023 360.449 199.215C360.002 199.428 359.482 199.127 359.443 198.634C359.409 198.188 358.971 197.886 358.541 198.014C358.067 198.154 357.6 197.775 357.639 197.282C357.675 196.836 357.29 196.47 356.846 196.528C356.356 196.592 355.953 196.145 356.069 195.665C356.174 195.229 355.851 194.808 355.403 194.796C354.909 194.783 354.582 194.278 354.771 193.822C354.943 193.408 354.69 192.941 354.249 192.859C353.764 192.769 353.519 192.219 353.778 191.798C354.012 191.416 353.835 190.916 353.413 190.766C352.947 190.601 352.792 190.02 353.113 189.644C353.404 189.304 353.308 188.781 352.914 188.567C352.48 188.331 352.417 187.733 352.793 187.413C353.134 187.122 353.121 186.591 352.765 186.318C352.373 186.017 352.405 185.416 352.827 185.159C353.209 184.925 353.279 184.398 352.97 184.073C352.63 183.714 352.756 183.126 353.212 182.938C353.626 182.766 353.778 182.257 353.524 181.888C353.244 181.48 353.46 180.919 353.941 180.804C354.376 180.7 354.605 180.221 354.413 179.816C354.2 179.37 354.501 178.849 354.994 178.811C355.44 178.776 355.741 178.339 355.614 177.909C355.474 177.435 355.853 176.968 356.346 177.007C356.792 177.042 357.158 176.657 357.1 176.213C357.035 175.723 357.483 175.321 357.963 175.437C358.399 175.542 358.82 175.219 358.832 174.771C358.845 174.277 359.35 173.949 359.806 174.139C360.22 174.311 360.687 174.057 360.769 173.617C360.859 173.131 361.409 172.887 361.83 173.145C362.212 173.38 362.712 173.203 362.862 172.78C363.027 172.315 363.608 172.159 363.984 172.481C364.324 172.772 364.847 172.675 365.061 172.282C365.297 171.847 365.895 171.785 366.215 172.161C366.506 172.502 367.037 172.488 367.31 172.133C367.611 171.741 368.211 171.773 368.469 172.194C368.703 172.576 369.23 172.646 369.555 172.338C369.913 171.998 370.502 172.123 370.69 172.58C370.862 172.994 371.371 173.145 371.74 172.891C372.148 172.612 372.709 172.828 372.824 173.308C372.928 173.744 373.407 173.973 373.812 173.78C374.258 173.568 374.779 173.869 374.817 174.361C374.852 174.808 375.289 175.109 375.719 174.982C376.193 174.842 376.66 175.221 376.621 175.713C376.586 176.16 376.971 176.526 377.415 176.467C377.905 176.403 378.307 176.85 378.191 177.331C378.086 177.766 378.409 178.188 378.857 178.2C379.351 178.213 379.679 178.717 379.489 179.174C379.317 179.588 379.57 180.055 380.011 180.136C380.497 180.227 380.741 180.776 380.483 181.197C380.248 181.579 380.425 182.08 380.848 182.23C381.313 182.395 381.469 182.976 381.147 183.351C380.856 183.692 380.953 184.214 381.346 184.428C381.781 184.664 381.843 185.262 381.467 185.583C381.126 185.874 381.14 186.405 381.495 186.677C381.887 186.978 381.855 187.579 381.434 187.837C381.051 188.071 380.982 188.597 381.29 188.922C381.63 189.281 381.505 189.869 381.048 190.058C380.634 190.229 380.483 190.738 380.736 191.108C381.016 191.515 380.8 192.076 380.32 192.191C379.884 192.296 379.655 192.775 379.848 193.179C380.06 193.626 379.759 194.146 379.267 194.185C378.82 194.219 378.519 194.657 378.646 195.087C378.786 195.56 378.407 196.028 377.915 195.989C377.468 195.953 377.102 196.338 377.161 196.782C377.225 197.272 376.778 197.674 376.297 197.559C375.862 197.454 375.44 197.777 375.428 198.225C375.415 198.719 374.911 199.046 374.454 198.857C374.04 198.685 373.573 198.938 373.492 199.379C373.401 199.864 372.852 200.109 372.431 199.85C372.049 199.616 371.548 199.793 371.398 200.215C371.233 200.681 370.652 200.836 370.277 200.515C369.936 200.224 369.414 200.32 369.2 200.714Z" fill="#63A3B6" fill-opacity="0.5"/>
<path d="M369.8 183.637C371.849 190.4 369.963 193.296 365.621 194.611C361.28 195.927 356.584 191.548 355.296 187.295C354.007 183.042 356.481 178.527 360.823 177.212C365.164 175.896 367.75 176.874 369.8 183.637Z" fill="#63A3B6" fill-opacity="0.75"/>
<path d="M371.988 137.903C372.585 137.802 373.099 138.331 372.98 138.925C372.872 139.463 373.287 139.964 373.837 139.958C374.442 139.951 374.867 140.553 374.656 141.122C374.465 141.637 374.797 142.197 375.341 142.276C375.94 142.364 376.265 143.026 375.968 143.554C375.699 144.033 375.94 144.638 376.464 144.801C377.042 144.982 377.26 145.686 376.884 146.161C376.543 146.592 376.686 147.227 377.178 147.471C377.721 147.74 377.826 148.469 377.38 148.88C376.976 149.252 377.018 149.902 377.466 150.219C377.96 150.57 377.95 151.307 377.445 151.643C376.988 151.947 376.928 152.595 377.32 152.979C377.754 153.403 377.628 154.129 377.077 154.382C376.578 154.611 376.417 155.242 376.745 155.682C377.107 156.168 376.869 156.866 376.285 157.029C375.756 157.178 375.498 157.775 375.754 158.262C376.035 158.798 375.691 159.45 375.089 159.52C374.543 159.584 374.195 160.134 374.371 160.655C374.565 161.229 374.123 161.819 373.517 161.794C372.969 161.771 372.539 162.26 372.631 162.802C372.733 163.399 372.204 163.913 371.61 163.793C371.071 163.685 370.57 164.101 370.576 164.65C370.584 165.256 369.981 165.68 369.413 165.47C368.898 165.279 368.338 165.611 368.258 166.154C368.17 166.754 367.509 167.079 366.981 166.782C366.502 166.513 365.897 166.753 365.733 167.277C365.553 167.856 364.848 168.073 364.373 167.698C363.942 167.357 363.307 167.499 363.063 167.992C362.795 168.535 362.065 168.639 361.654 168.194C361.282 167.79 360.632 167.832 360.315 168.28C359.965 168.774 359.227 168.763 358.892 168.259C358.587 167.802 357.939 167.741 357.555 168.134C357.132 168.567 356.405 168.441 356.153 167.891C355.924 167.392 355.293 167.23 354.852 167.558C354.366 167.92 353.668 167.682 353.505 167.099C353.357 166.57 352.759 166.312 352.273 166.567C351.736 166.848 351.084 166.504 351.014 165.902C350.95 165.357 350.4 165.009 349.88 165.184C349.306 165.378 348.716 164.936 348.74 164.331C348.763 163.782 348.274 163.352 347.733 163.444C347.135 163.546 346.622 163.017 346.741 162.423C346.849 161.885 346.433 161.384 345.884 161.39C345.278 161.397 344.854 160.794 345.064 160.226C345.255 159.711 344.923 159.151 344.38 159.072C343.78 158.984 343.455 158.322 343.752 157.794C344.022 157.315 343.781 156.71 343.257 156.547C342.678 156.366 342.461 155.662 342.837 155.187C343.178 154.756 343.035 154.121 342.543 153.877C342 153.608 341.895 152.878 342.34 152.468C342.744 152.096 342.703 151.446 342.255 151.128C341.76 150.778 341.771 150.041 342.276 149.705C342.733 149.401 342.793 148.752 342.4 148.369C341.967 147.945 342.093 147.219 342.644 146.966C343.143 146.737 343.304 146.106 342.976 145.666C342.614 145.18 342.852 144.482 343.436 144.319C343.964 144.17 344.222 143.573 343.967 143.086C343.686 142.549 344.03 141.898 344.632 141.827C345.178 141.764 345.526 141.214 345.35 140.693C345.156 140.119 345.598 139.529 346.203 139.554C346.752 139.577 347.182 139.088 347.09 138.546C346.988 137.949 347.517 137.435 348.111 137.555C348.65 137.663 349.151 137.247 349.144 136.698C349.137 136.092 349.74 135.667 350.308 135.878C350.823 136.069 351.383 135.737 351.463 135.193C351.55 134.594 352.212 134.269 352.74 134.566C353.219 134.835 353.824 134.595 353.988 134.07C354.168 133.492 354.873 133.274 355.348 133.65C355.779 133.991 356.414 133.848 356.657 133.356C356.926 132.813 357.656 132.708 358.066 133.154C358.439 133.558 359.088 133.516 359.406 133.068C359.756 132.574 360.493 132.585 360.829 133.089C361.134 133.546 361.782 133.607 362.166 133.214C362.589 132.781 363.315 132.906 363.568 133.457C363.797 133.956 364.428 134.118 364.869 133.789C365.355 133.428 366.052 133.666 366.216 134.249C366.364 134.778 366.962 135.036 367.448 134.781C367.985 134.499 368.637 134.844 368.707 135.445C368.771 135.991 369.321 136.339 369.841 136.163C370.415 135.97 371.005 136.412 370.98 137.017C370.958 137.566 371.447 137.996 371.988 137.903Z" fill="#63A3B6" fill-opacity="0.5"/>
<path d="M354.62 151.004C357.741 146.539 362.438 144.433 366.996 147.618C371.554 150.804 372.72 157.006 369.599 161.472C366.479 165.938 360.253 166.975 355.695 163.79C351.137 160.604 351.499 155.47 354.62 151.004Z" fill="#63A3B6" fill-opacity="0.75"/>
<path d="M408.819 69.2051C409.157 68.6154 409.98 68.5475 410.41 69.0739C410.799 69.551 411.529 69.5483 411.915 69.0682C412.34 68.5386 413.164 68.6004 413.506 69.1874C413.816 69.7196 414.537 69.8311 414.994 69.4173C415.497 68.9608 416.301 69.1507 416.547 69.784C416.77 70.3581 417.465 70.5811 417.98 70.2437C418.548 69.8715 419.313 70.1849 419.457 70.8489C419.587 71.4508 420.238 71.7798 420.8 71.5271C421.42 71.2484 422.126 71.6776 422.164 72.3558C422.198 72.9707 422.791 73.3976 423.385 73.2359C424.04 73.0575 424.671 73.5919 424.602 74.2678C424.54 74.8805 425.058 75.3947 425.671 75.3279C426.346 75.2543 426.885 75.8808 426.712 76.5376C426.554 77.133 426.986 77.722 427.601 77.7518C428.279 77.7847 428.714 78.4879 428.44 79.1095C428.191 79.673 428.525 80.3222 429.128 80.4478C429.793 80.5865 430.112 81.349 429.744 81.92C429.411 82.4377 429.639 83.1311 430.215 83.3496C430.85 83.5905 431.046 84.3936 430.593 84.9C430.183 85.3592 430.3 86.0797 430.834 86.3856C431.424 86.7229 431.492 87.5467 430.965 87.9761C430.488 88.3654 430.491 89.0954 430.971 89.4811C431.501 89.9065 431.439 90.7308 430.852 91.0726C430.32 91.3824 430.208 92.1039 430.622 92.5599C431.078 93.063 430.889 93.8674 430.255 94.1132C429.681 94.3359 429.458 95.0311 429.796 95.5462C430.168 96.1145 429.854 96.8794 429.19 97.023C428.588 97.1532 428.259 97.8049 428.512 98.3665C428.791 98.986 428.362 99.6924 427.683 99.7304C427.069 99.7649 426.642 100.357 426.803 100.951C426.982 101.607 426.447 102.237 425.771 102.169C425.159 102.107 424.645 102.625 424.711 103.237C424.785 103.912 424.158 104.451 423.502 104.278C422.906 104.121 422.317 104.552 422.287 105.167C422.254 105.846 421.551 106.28 420.93 106.006C420.366 105.758 419.717 106.092 419.591 106.694C419.453 107.359 418.69 107.679 418.119 107.311C417.602 106.977 416.908 107.205 416.69 107.781C416.449 108.416 415.646 108.612 415.139 108.16C414.68 107.749 413.959 107.866 413.654 108.401C413.316 108.99 412.493 109.058 412.063 108.532C411.674 108.055 410.944 108.057 410.558 108.537C410.133 109.067 409.308 109.005 408.967 108.418C408.657 107.886 407.935 107.775 407.479 108.188C406.976 108.645 406.172 108.455 405.926 107.822C405.703 107.248 405.008 107.025 404.493 107.362C403.925 107.734 403.16 107.421 403.016 106.757C402.886 106.155 402.234 105.826 401.673 106.079C401.053 106.357 400.347 105.928 400.309 105.25C400.274 104.635 399.682 104.208 399.088 104.37C398.432 104.548 397.802 104.014 397.87 103.338C397.933 102.725 397.415 102.211 396.802 102.278C396.127 102.351 395.588 101.725 395.761 101.068C395.918 100.473 395.487 99.8836 394.872 99.8538C394.194 99.8209 393.759 99.1177 394.033 98.4962C394.282 97.9327 393.948 97.2835 393.345 97.1578C392.68 97.0192 392.361 96.2567 392.729 95.6857C393.062 95.168 392.834 94.4745 392.258 94.2561C391.623 94.0151 391.427 93.2121 391.88 92.7056C392.29 92.2465 392.173 91.5259 391.639 91.2201C391.049 90.8827 390.981 90.0589 391.507 89.6295C391.985 89.2402 391.982 88.5102 391.502 88.1245C390.972 87.6991 391.034 86.8748 391.621 86.5331C392.153 86.2232 392.265 85.5018 391.851 85.0457C391.394 84.5427 391.584 83.7382 392.218 83.4925C392.792 83.2697 393.015 82.5746 392.677 82.0594C392.305 81.4912 392.619 80.7263 393.282 80.5827C393.884 80.4524 394.213 79.8007 393.961 79.2391C393.682 78.6197 394.111 77.9132 394.789 77.8752C395.404 77.8408 395.831 77.2486 395.669 76.6544C395.491 75.9989 396.026 75.3683 396.701 75.4369C397.314 75.4991 397.828 74.9809 397.762 74.3687C397.688 73.6934 398.314 73.1542 398.971 73.3277C399.567 73.4849 400.156 73.0536 400.185 72.4385C400.218 71.76 400.921 71.3254 401.543 71.5995C402.107 71.8479 402.756 71.5141 402.881 70.9112C403.02 70.2462 403.783 69.927 404.354 70.2949C404.871 70.6285 405.565 70.4003 405.783 69.8245C406.024 69.1894 406.827 68.9934 407.334 69.4461C407.793 69.8565 408.513 69.7396 408.819 69.2051Z" fill="#62B269" fill-opacity="0.5"/>
<path d="M411.632 89.6251C404.95 88.7849 399.819 85.8276 400.421 81.0392C401.023 76.2509 406.928 73.0503 413.61 73.8905C420.292 74.7307 425.221 79.2935 424.619 84.0819C424.017 88.8702 418.314 90.4653 411.632 89.6251Z" fill="#62B269" fill-opacity="0.75"/>
<path d="M306.028 163.566C305.885 163.173 306.18 162.759 306.598 162.766C306.976 162.773 307.265 162.429 307.192 162.057C307.112 161.647 307.468 161.284 307.879 161.357C308.252 161.422 308.591 161.128 308.577 160.749C308.563 160.332 308.971 160.029 309.366 160.165C309.724 160.288 310.105 160.05 310.151 159.674C310.201 159.26 310.652 159.025 311.021 159.221C311.355 159.398 311.768 159.223 311.872 158.859C311.987 158.457 312.469 158.295 312.803 158.547C313.105 158.774 313.541 158.665 313.701 158.322C313.877 157.943 314.378 157.859 314.668 158.16C314.932 158.432 315.379 158.393 315.59 158.078C315.824 157.732 316.332 157.727 316.572 158.069C316.789 158.379 317.237 158.41 317.495 158.133C317.779 157.828 318.282 157.902 318.465 158.278C318.632 158.618 319.069 158.719 319.367 158.485C319.696 158.228 320.181 158.381 320.303 158.78C320.414 159.142 320.83 159.31 321.162 159.126C321.527 158.923 321.982 159.15 322.04 159.564C322.093 159.938 322.478 160.169 322.834 160.04C323.226 159.897 323.64 160.191 323.633 160.609C323.626 160.988 323.97 161.276 324.342 161.204C324.752 161.124 325.115 161.48 325.042 161.891C324.977 162.264 325.272 162.603 325.65 162.589C326.067 162.574 326.37 162.983 326.234 163.378C326.111 163.736 326.349 164.116 326.725 164.162C327.14 164.213 327.375 164.663 327.179 165.032C327.001 165.367 327.177 165.78 327.541 165.884C327.942 165.999 328.104 166.481 327.853 166.814C327.625 167.117 327.734 167.552 328.077 167.712C328.456 167.888 328.54 168.39 328.24 168.68C327.967 168.943 328.007 169.39 328.321 169.602C328.667 169.835 328.672 170.343 328.33 170.583C328.02 170.8 327.989 171.248 328.266 171.506C328.572 171.791 328.497 172.294 328.121 172.477C327.781 172.643 327.68 173.081 327.914 173.379C328.171 173.708 328.019 174.193 327.619 174.315C327.257 174.426 327.089 174.842 327.273 175.173C327.476 175.538 327.249 175.993 326.836 176.052C326.461 176.104 326.23 176.489 326.36 176.845C326.503 177.238 326.208 177.651 325.79 177.644C325.412 177.638 325.123 177.982 325.196 178.354C325.276 178.764 324.92 179.126 324.508 179.054C324.135 178.988 323.797 179.283 323.81 179.662C323.825 180.079 323.417 180.382 323.022 180.246C322.664 180.123 322.283 180.361 322.237 180.737C322.187 181.151 321.736 181.386 321.367 181.19C321.033 181.013 320.62 181.188 320.515 181.552C320.401 181.954 319.919 182.115 319.585 181.864C319.282 181.636 318.847 181.745 318.687 182.089C318.511 182.467 318.01 182.551 317.719 182.251C317.456 181.979 317.009 182.018 316.797 182.332C316.564 182.679 316.056 182.684 315.816 182.341C315.599 182.031 315.151 182 314.893 182.277C314.608 182.583 314.106 182.508 313.922 182.133C313.756 181.793 313.319 181.692 313.021 181.925C312.692 182.183 312.207 182.03 312.084 181.631C311.974 181.269 311.557 181.101 311.226 181.285C310.861 181.487 310.406 181.261 310.348 180.847C310.295 180.472 309.91 180.241 309.554 180.371C309.162 180.514 308.748 180.219 308.755 179.802C308.761 179.423 308.417 179.135 308.046 179.207C307.636 179.287 307.273 178.931 307.345 178.52C307.411 178.147 307.116 177.808 306.738 177.822C306.32 177.837 306.018 177.428 306.154 177.033C306.277 176.675 306.039 176.295 305.663 176.249C305.248 176.198 305.013 175.747 305.209 175.379C305.387 175.044 305.211 174.631 304.847 174.527C304.445 174.412 304.284 173.93 304.535 173.596C304.763 173.294 304.654 172.858 304.311 172.699C303.932 172.522 303.848 172.021 304.148 171.731C304.42 171.468 304.381 171.021 304.067 170.809C303.72 170.576 303.716 170.067 304.058 169.828C304.368 169.61 304.399 169.163 304.122 168.905C303.816 168.62 303.891 168.117 304.266 167.934C304.607 167.768 304.707 167.33 304.474 167.032C304.217 166.703 304.369 166.218 304.768 166.096C305.131 165.985 305.298 165.569 305.115 165.238C304.912 164.873 305.138 164.418 305.552 164.359C305.927 164.306 306.158 163.921 306.028 163.566Z" fill="#62B269" fill-opacity="0.5"/>
<path d="M305.535 171.542C305.203 172.843 305.52 175.95 309.441 177.977C314.343 180.51 316.91 181.401 321.175 177.009" stroke="#62B269" stroke-opacity="0.7" stroke-width="2" stroke-linecap="round" stroke-dasharray="4 4"/>
<path d="M316.737 170.346C313.691 173.152 310.266 174.389 308.256 172.206C306.245 170.023 307.084 165.98 310.13 163.174C313.176 160.368 317.275 159.863 319.285 162.046C321.296 164.228 319.783 167.54 316.737 170.346Z" fill="#62B269" fill-opacity="0.75"/>
<ellipse cx="319.859" cy="174.129" rx="1.8447" ry="0.922348" transform="rotate(-172.353 319.859 174.129)" fill="#62B269" fill-opacity="0.24"/>
<path d="M446.992 80.061C446.728 79.3373 447.272 78.5739 448.042 78.587C448.74 78.5989 449.272 77.9644 449.138 77.279C448.991 76.5229 449.647 75.854 450.406 75.9874C451.094 76.1084 451.718 75.5649 451.693 74.867C451.666 74.0971 452.419 73.5391 453.148 73.7896C453.808 74.0167 454.51 73.5776 454.594 72.8844C454.688 72.1197 455.519 71.6864 456.199 72.0478C456.816 72.3753 457.578 72.0514 457.77 71.38C457.982 70.6394 458.87 70.3414 459.486 70.8047C460.044 71.2248 460.847 71.024 461.141 70.3909C461.467 69.6925 462.391 69.5372 462.926 70.0911C463.412 70.5933 464.236 70.5206 464.626 69.9414C465.057 69.3025 465.994 69.2937 466.436 69.9245C466.837 70.4964 467.663 70.5537 468.139 70.0426C468.664 69.4788 469.591 69.6168 469.929 70.309C470.235 70.9366 471.042 71.1223 471.592 70.692C472.199 70.2173 473.093 70.4986 473.318 71.2352C473.523 71.903 474.29 72.2126 474.901 71.8736C475.575 71.4997 476.414 71.9174 476.521 72.6802C476.619 73.3717 477.329 73.7977 477.985 73.5583C478.708 73.2943 479.472 73.8382 479.459 74.6084C479.447 75.3067 480.081 75.8384 480.767 75.7047C481.523 75.5571 482.192 76.2138 482.058 76.9724C481.937 77.6602 482.481 78.2847 483.179 78.2598C483.948 78.2324 484.506 78.9855 484.256 79.714C484.029 80.3744 484.468 81.0762 485.161 81.1608C485.926 81.2541 486.359 82.0853 485.998 82.7656C485.67 83.3824 485.994 84.1442 486.666 84.3362C487.406 84.548 487.704 85.4368 487.241 86.0522C486.821 86.6101 487.022 87.4132 487.655 87.7079C488.353 88.0329 488.508 88.9574 487.954 89.4927C487.452 89.9781 487.525 90.8027 488.104 91.1928C488.743 91.6231 488.752 92.5604 488.121 93.0025C487.549 93.4033 487.492 94.2292 488.003 94.7051C488.567 95.23 488.429 96.1572 487.737 96.4952C487.109 96.8016 486.923 97.6083 487.354 98.1583C487.828 98.765 487.547 99.6591 486.81 99.8847C486.143 100.089 485.833 100.857 486.172 101.467C486.546 102.141 486.128 102.98 485.365 103.088C484.674 103.185 484.248 103.895 484.487 104.551C484.751 105.275 484.207 106.038 483.437 106.025C482.739 106.013 482.207 106.648 482.341 107.333C482.488 108.089 481.832 108.758 481.073 108.625C480.385 108.504 479.761 109.047 479.786 109.745C479.813 110.515 479.06 111.073 478.332 110.822C477.671 110.595 476.969 111.034 476.885 111.728C476.791 112.492 475.96 112.926 475.28 112.564C474.663 112.237 473.901 112.561 473.709 113.232C473.498 113.973 472.609 114.271 471.993 113.807C471.435 113.387 470.632 113.588 470.338 114.221C470.013 114.92 469.088 115.075 468.553 114.521C468.068 114.019 467.243 114.091 466.853 114.671C466.423 115.31 465.485 115.318 465.043 114.687C464.642 114.116 463.816 114.058 463.34 114.569C462.816 115.133 461.888 114.995 461.55 114.303C461.244 113.675 460.437 113.49 459.887 113.92C459.281 114.395 458.386 114.113 458.161 113.377C457.956 112.709 457.189 112.399 456.578 112.738C455.905 113.112 455.066 112.695 454.958 111.932C454.861 111.24 454.151 110.814 453.495 111.054C452.771 111.318 452.007 110.774 452.021 110.004C452.032 109.305 451.398 108.774 450.713 108.907C449.957 109.055 449.288 108.398 449.421 107.64C449.542 106.952 448.998 106.327 448.301 106.352C447.531 106.38 446.973 105.626 447.223 104.898C447.45 104.238 447.011 103.536 446.318 103.451C445.553 103.358 445.12 102.527 445.481 101.846C445.809 101.23 445.485 100.468 444.814 100.276C444.073 100.064 443.775 99.1752 444.238 98.5598C444.658 98.0019 444.458 97.1988 443.824 96.9041C443.126 96.5791 442.971 95.6546 443.525 95.1193C444.027 94.6339 443.954 93.8093 443.375 93.4192C442.736 92.9889 442.727 92.0516 443.358 91.6095C443.93 91.2087 443.987 90.3828 443.476 89.9069C442.912 89.382 443.05 88.4548 443.743 88.1168C444.37 87.8104 444.556 87.0037 444.126 86.4537C443.651 85.847 443.932 84.9529 444.669 84.7273C445.337 84.5228 445.646 83.7551 445.307 83.1445C444.933 82.4711 445.351 81.632 446.114 81.5244C446.805 81.4269 447.231 80.7171 446.992 80.061Z" fill="#62B269" fill-opacity="0.5"/>
<path d="M446.082 94.7717C445.47 97.1695 446.054 102.899 453.287 106.638C462.327 111.31 467.061 112.954 474.926 104.853" stroke="#62B269" stroke-opacity="0.7" stroke-width="2" stroke-linecap="round" stroke-dasharray="4 4"/>
<path d="M466.741 92.5652C461.124 97.7395 454.808 100.021 451.1 95.9956C447.392 91.9704 448.94 84.5128 454.557 79.3385C460.174 74.1641 467.733 73.2326 471.441 77.2577C475.149 81.2829 472.358 87.3909 466.741 92.5652Z" fill="#62B269" fill-opacity="0.75"/>
<ellipse cx="472.499" cy="99.5421" rx="3.402" ry="1.701" transform="rotate(-172.353 472.499 99.5421)" fill="#62B269" fill-opacity="0.24"/>
<path d="M336.386 193.141C334.207 188.115 332.147 182.787 337.217 179.616C341.144 177.159 346.239 179.458 349.272 185.982C352.304 192.507 348.635 197.7 345.452 198.386C339.994 199.563 338.566 198.166 336.386 193.141Z" fill="#E25F71" fill-opacity="0.7"/>
<g filter="url(#filter7_i_111_4)">
<path d="M345.638 187.252C347.079 190.588 346.629 195.742 343.828 196.902C338.756 199.001 338.987 195.349 336.867 190.442C335.426 187.106 333.299 184.161 337.103 182.586C340.906 181.012 344.197 183.916 345.638 187.252Z" fill="#D84557" fill-opacity="0.5"/>
</g>
<path d="M452.679 245.902C451.73 246.592 450.385 246.115 450.081 244.982C449.806 243.955 448.654 243.442 447.706 243.925C446.661 244.458 445.407 243.777 445.284 242.61C445.173 241.552 444.116 240.865 443.104 241.194C441.988 241.557 440.856 240.688 440.917 239.516C440.973 238.454 440.036 237.611 438.986 237.777C437.827 237.961 436.844 236.925 437.088 235.778C437.309 234.737 436.516 233.758 435.452 233.758C434.279 233.758 433.471 232.582 433.891 231.486C434.272 230.493 433.642 229.402 432.591 229.235C431.433 229.052 430.818 227.763 431.405 226.747C431.937 225.826 431.485 224.649 430.473 224.321C429.357 223.959 428.952 222.59 429.69 221.678C430.36 220.852 430.097 219.618 429.15 219.136C428.104 218.603 427.918 217.188 428.79 216.403C429.58 215.691 429.514 214.432 428.654 213.807C427.704 213.118 427.742 211.691 428.726 211.052C429.618 210.473 429.75 209.219 428.997 208.467C428.168 207.637 428.428 206.234 429.5 205.756C430.471 205.324 430.798 204.106 430.172 203.246C429.483 202.297 429.959 200.951 431.092 200.647C432.12 200.372 432.632 199.22 432.149 198.273C431.617 197.228 432.298 195.973 433.465 195.851C434.522 195.739 435.209 194.682 434.88 193.671C434.517 192.555 435.387 191.422 436.558 191.484C437.62 191.54 438.464 190.603 438.297 189.552C438.114 188.393 439.149 187.411 440.297 187.655C441.337 187.876 442.317 187.082 442.317 186.019C442.316 184.846 443.493 184.037 444.588 184.458C445.581 184.839 446.673 184.208 446.839 183.158C447.022 181.999 448.311 181.384 449.327 181.971C450.248 182.503 451.425 182.051 451.754 181.04C452.116 179.924 453.485 179.518 454.396 180.257C455.223 180.926 456.456 180.664 456.939 179.716C457.471 178.671 458.887 178.484 459.672 179.356C460.383 180.147 461.642 180.081 462.267 179.22C462.957 178.271 464.384 178.308 465.023 179.292C465.602 180.184 466.856 180.316 467.608 179.564C468.437 178.734 469.841 178.994 470.318 180.066C470.75 181.038 471.968 181.364 472.829 180.739C473.778 180.049 475.123 180.525 475.427 181.659C475.702 182.686 476.854 183.199 477.802 182.716C478.847 182.183 480.101 182.864 480.224 184.031C480.335 185.089 481.392 185.775 482.404 185.447C483.52 185.084 484.652 185.953 484.591 187.125C484.535 188.187 485.472 189.03 486.522 188.864C487.681 188.68 488.664 189.716 488.42 190.863C488.199 191.903 488.992 192.883 490.056 192.883C491.229 192.883 492.037 194.059 491.617 195.155C491.236 196.147 491.866 197.239 492.917 197.406C494.075 197.589 494.69 198.877 494.103 199.893C493.571 200.814 494.023 201.991 495.035 202.32C496.151 202.682 496.556 204.051 495.818 204.963C495.148 205.789 495.411 207.023 496.358 207.505C497.404 208.038 497.59 209.453 496.718 210.238C495.928 210.95 495.994 212.209 496.854 212.834C497.804 213.523 497.766 214.95 496.782 215.589C495.89 216.168 495.758 217.422 496.511 218.174C497.34 219.004 497.08 220.407 496.008 220.884C495.037 221.317 494.71 222.535 495.336 223.395C496.025 224.344 495.549 225.69 494.416 225.993C493.388 226.269 492.876 227.42 493.359 228.368C493.891 229.413 493.21 230.668 492.043 230.79C490.986 230.901 490.299 231.959 490.628 232.97C490.991 234.086 490.122 235.219 488.95 235.157C487.888 235.101 487.044 236.038 487.211 237.089C487.394 238.248 486.359 239.23 485.211 238.986C484.171 238.765 483.191 239.558 483.191 240.622C483.192 241.795 482.015 242.604 480.92 242.183C479.927 241.802 478.835 242.433 478.669 243.483C478.486 244.642 477.197 245.256 476.181 244.67C475.26 244.138 474.083 244.59 473.754 245.601C473.392 246.717 472.023 247.123 471.112 246.384C470.285 245.715 469.052 245.977 468.569 246.925C468.037 247.97 466.621 248.157 465.836 247.285C465.125 246.494 463.866 246.56 463.241 247.421C462.551 248.37 461.124 248.333 460.485 247.349C459.906 246.457 458.652 246.325 457.9 247.077C457.071 247.907 455.667 247.647 455.19 246.575C454.758 245.603 453.54 245.277 452.679 245.902Z" fill="#63A3B6" fill-opacity="0.7"/>
<path d="M455.808 212.05C459.798 200.779 460.335 191.199 475.491 196.566C486.762 200.556 492.664 212.928 488.673 224.199C484.682 235.47 472.31 241.371 461.039 237.381C446.862 232.361 451.817 223.32 455.808 212.05Z" fill="white" fill-opacity="0.77"/>
</g>
<rect x="20" y="121" width="72" height="184" rx="3" fill="#49556C"/>
<rect x="26" y="133.204" width="61" height="10.3265" rx="1" fill="#49556C" stroke="black"/>
<g filter="url(#filter8_i_111_4)">
<rect x="80" y="136.02" width="4" height="3.7551" rx="1" fill="#62B269" fill-opacity="0.75"/>
</g>
<rect x="26" y="174.51" width="60" height="81.6735" rx="10" fill="black" fill-opacity="0.06"/>
<g filter="url(#filter9_i_111_4)">
<ellipse cx="56" cy="278.714" rx="10" ry="9.38776" fill="#354A71"/>
</g>
<path d="M60.5 278.714C60.5 281.001 58.5155 282.908 56 282.908C53.4845 282.908 51.5 281.001 51.5 278.714C51.5 276.427 53.4845 274.52 56 274.52C58.5155 274.52 60.5 276.427 60.5 278.714Z" stroke="#62B269" stroke-opacity="0.75"/>
<rect x="53" y="274" width="6" height="6" fill="#354A71"/>
<rect x="55" y="273" width="2" height="5" rx="1" fill="#62B269" fill-opacity="0.75"/>
<rect x="156" y="296" width="197" height="12" rx="3" fill="#929292"/>
<ellipse cx="397" cy="302.5" rx="27" ry="12.5" fill="#49556C"/>
<rect x="395" y="288" width="4" height="6" rx="2" fill="#929292"/>
<circle cx="377" cy="104" r="2" fill="#62B269"/>
<circle cx="383" cy="104" r="2" fill="#F54D64"/>
<circle cx="371" cy="104" r="2" fill="#D9D9D9" fill-opacity="0.75"/>
<rect x="26" y="153" width="61" height="2" rx="1" fill="#D9D9D9"/>
<g filter="url(#filter10_i_111_4)">
<rect x="26" y="162" width="61" height="6" rx="3" fill="#D9D9D9"/>
</g>
<path d="M158 105C158 103.343 159.343 102 161 102H196C197.657 102 199 103.343 199 105V107H158V105Z" fill="#5A6476"/>
<path d="M119 105C119 103.343 120.343 102 122 102H157C158.657 102 160 103.343 160 105V107H119V105Z" fill="#49556C"/>
<path d="M157.353 104.204C157.455 104.091 157.629 104.083 157.742 104.185C157.854 104.287 157.863 104.461 157.761 104.573L156.651 105.796C156.549 105.909 156.375 105.917 156.263 105.815C156.15 105.713 156.142 105.539 156.244 105.427L157.353 104.204Z" fill="#F2F2F2" fill-opacity="0.6"/>
<path d="M156.205 104.653C156.092 104.551 156.082 104.377 156.184 104.264C156.286 104.151 156.46 104.142 156.573 104.243L157.8 105.347C157.913 105.449 157.922 105.623 157.821 105.736C157.719 105.849 157.545 105.858 157.432 105.757L156.205 104.653Z" fill="#F2F2F2" fill-opacity="0.6"/>
<path d="M126 105H146" stroke="#F2F2F2" stroke-opacity="0.6" stroke-width="1.2" stroke-linecap="round" stroke-dasharray="2 2"/>
<path d="M163 105H178" stroke="#F2F2F2" stroke-opacity="0.25" stroke-width="1.2" stroke-linecap="round" stroke-dasharray="2 2"/>
<path d="M197.24 104.09C197.342 103.978 197.516 103.969 197.628 104.071C197.741 104.173 197.749 104.347 197.647 104.46L196.538 105.683C196.436 105.795 196.262 105.804 196.149 105.702C196.037 105.6 196.028 105.426 196.13 105.313L197.24 104.09Z" fill="#F2F2F2" fill-opacity="0.25"/>
<path d="M196.091 104.539C195.978 104.437 195.969 104.264 196.071 104.151C196.172 104.038 196.346 104.028 196.459 104.13L197.687 105.234C197.799 105.336 197.809 105.509 197.707 105.622C197.605 105.735 197.432 105.745 197.319 105.643L196.091 104.539Z" fill="#F2F2F2" fill-opacity="0.25"/>
<path d="M201.801 104.167C201.801 104.075 201.875 104 201.967 104C202.059 104 202.134 104.075 202.134 104.167V105.833C202.134 105.925 202.059 106 201.967 106C201.875 106 201.801 105.925 201.801 105.833V104.167Z" fill="#D9D9D9"/>
<path d="M202.833 104.801C202.925 104.8 203 104.875 203 104.967C203 105.059 202.926 105.134 202.834 105.134L201.167 105.142C201.075 105.142 201 105.068 201 104.976C201 104.884 201.074 104.809 201.166 104.809L202.833 104.801Z" fill="#D9D9D9"/>
</g>
<defs>
<filter id="filter0_d_111_4" x="162" y="184" width="180" height="48" filterUnits="userSpaceOnUse" color-interpolation-filters="sRGB">
<feFlood flood-opacity="0" result="BackgroundImageFix"/>
<feColorMatrix in="SourceAlpha" type="matrix" values="0 0 0 0 0 0 0 0 0 0 0 0 0 0 0 0 0 0 127 0" result="hardAlpha"/>
<feOffset dx="-5" dy="5"/>
<feComposite in2="hardAlpha" operator="out"/>
<feColorMatrix type="matrix" values="0 0 0 0 0.254167 0 0 0 0 0.166267 0 0 0 0 0.166267 0 0 0 1 0"/>
<feBlend mode="normal" in2="BackgroundImageFix" result="effect1_dropShadow_111_4"/>
<feBlend mode="normal" in="SourceGraphic" in2="effect1_dropShadow_111_4" result="shape"/>
</filter>
<filter id="filter1_d_111_4" x="304.62" y="206.262" width="24.8105" height="29.5471" filterUnits="userSpaceOnUse" color-interpolation-filters="sRGB">
<feFlood flood-opacity="0" result="BackgroundImageFix"/>
<feColorMatrix in="SourceAlpha" type="matrix" values="0 0 0 0 0 0 0 0 0 0 0 0 0 0 0 0 0 0 127 0" result="hardAlpha"/>
<feOffset dx="-1" dy="1"/>
<feGaussianBlur stdDeviation="1"/>
<feComposite in2="hardAlpha" operator="out"/>
<feColorMatrix type="matrix" values="0 0 0 0 0 0 0 0 0 0 0 0 0 0 0 0 0 0 0.3 0"/>
<feBlend mode="normal" in2="BackgroundImageFix" result="effect1_dropShadow_111_4"/>
<feBlend mode="normal" in="SourceGraphic" in2="effect1_dropShadow_111_4" result="shape"/>
</filter>
<filter id="filter2_i_111_4" x="312.449" y="189.778" width="11.4234" height="12.3413" filterUnits="userSpaceOnUse" color-interpolation-filters="sRGB">
<feFlood flood-opacity="0" result="BackgroundImageFix"/>
<feBlend mode="normal" in="SourceGraphic" in2="BackgroundImageFix" result="shape"/>
<feColorMatrix in="SourceAlpha" type="matrix" values="0 0 0 0 0 0 0 0 0 0 0 0 0 0 0 0 0 0 127 0" result="hardAlpha"/>
<feOffset dx="-1" dy="-0.5"/>
<feGaussianBlur stdDeviation="2.5"/>
<feComposite in2="hardAlpha" operator="arithmetic" k2="-1" k3="1"/>
<feColorMatrix type="matrix" values="0 0 0 0 0 0 0 0 0 0 0 0 0 0 0 0 0 0 0.15 0"/>
<feBlend mode="normal" in2="shape" result="effect1_innerShadow_111_4"/>
</filter>
<filter id="filter3_i_111_4" x="406.522" y="110.303" width="18.9805" height="20.228" filterUnits="userSpaceOnUse" color-interpolation-filters="sRGB">
<feFlood flood-opacity="0" result="BackgroundImageFix"/>
<feBlend mode="normal" in="SourceGraphic" in2="BackgroundImageFix" result="shape"/>
<feColorMatrix in="SourceAlpha" type="matrix" values="0 0 0 0 0 0 0 0 0 0 0 0 0 0 0 0 0 0 127 0" result="hardAlpha"/>
<feOffset dx="-1" dy="-0.5"/>
<feGaussianBlur stdDeviation="2.5"/>
<feComposite in2="hardAlpha" operator="arithmetic" k2="-1" k3="1"/>
<feColorMatrix type="matrix" values="0 0 0 0 0 0 0 0 0 0 0 0 0 0 0 0 0 0 0.15 0"/>
<feBlend mode="normal" in2="shape" result="effect1_innerShadow_111_4"/>
</filter>
<filter id="filter4_i_111_4" x="329.449" y="149.065" width="14.1869" height="16.1283" filterUnits="userSpaceOnUse" color-interpolation-filters="sRGB">
<feFlood flood-opacity="0" result="BackgroundImageFix"/>
<feBlend mode="normal" in="SourceGraphic" in2="BackgroundImageFix" result="shape"/>
<feColorMatrix in="SourceAlpha" type="matrix" values="0 0 0 0 0 0 0 0 0 0 0 0 0 0 0 0 0 0 127 0" result="hardAlpha"/>
<feOffset dx="-1" dy="-0.5"/>
<feGaussianBlur stdDeviation="2.5"/>
<feComposite in2="hardAlpha" operator="arithmetic" k2="-1" k3="1"/>
<feColorMatrix type="matrix" values="0 0 0 0 0 0 0 0 0 0 0 0 0 0 0 0 0 0 0.15 0"/>
<feBlend mode="normal" in2="shape" result="effect1_innerShadow_111_4"/>
</filter>
<filter id="filter5_i_111_4" x="449.499" y="125.529" width="22.2132" height="27.4629" filterUnits="userSpaceOnUse" color-interpolation-filters="sRGB">
<feFlood flood-opacity="0" result="BackgroundImageFix"/>
<feBlend mode="normal" in="SourceGraphic" in2="BackgroundImageFix" result="shape"/>
<feColorMatrix in="SourceAlpha" type="matrix" values="0 0 0 0 0 0 0 0 0 0 0 0 0 0 0 0 0 0 127 0" result="hardAlpha"/>
<feOffset dx="-1" dy="-0.5"/>
<feGaussianBlur stdDeviation="2.5"/>
<feComposite in2="hardAlpha" operator="arithmetic" k2="-1" k3="1"/>
<feColorMatrix type="matrix" values="0 0 0 0 0 0 0 0 0 0 0 0 0 0 0 0 0 0 0.15 0"/>
<feBlend mode="normal" in2="shape" result="effect1_innerShadow_111_4"/>
</filter>
<filter id="filter6_i_111_4" x="365.146" y="102.629" width="16.2354" height="20.8874" filterUnits="userSpaceOnUse" color-interpolation-filters="sRGB">
<feFlood flood-opacity="0" result="BackgroundImageFix"/>
<feBlend mode="normal" in="SourceGraphic" in2="BackgroundImageFix" result="shape"/>
<feColorMatrix in="SourceAlpha" type="matrix" values="0 0 0 0 0 0 0 0 0 0 0 0 0 0 0 0 0 0 127 0" result="hardAlpha"/>
<feOffset dx="-1" dy="-0.5"/>
<feGaussianBlur stdDeviation="2.5"/>
<feComposite in2="hardAlpha" operator="arithmetic" k2="-1" k3="1"/>
<feColorMatrix type="matrix" values="0 0 0 0 0 0 0 0 0 0 0 0 0 0 0 0 0 0 0.15 0"/>
<feBlend mode="normal" in2="shape" result="effect1_innerShadow_111_4"/>
</filter>
<filter id="filter7_i_111_4" x="333.958" y="181.646" width="12.4794" height="15.8612" filterUnits="userSpaceOnUse" color-interpolation-filters="sRGB">
<feFlood flood-opacity="0" result="BackgroundImageFix"/>
<feBlend mode="normal" in="SourceGraphic" in2="BackgroundImageFix" result="shape"/>
<feColorMatrix in="SourceAlpha" type="matrix" values="0 0 0 0 0 0 0 0 0 0 0 0 0 0 0 0 0 0 127 0" result="hardAlpha"/>
<feOffset dx="-1" dy="-0.5"/>
<feGaussianBlur stdDeviation="2.5"/>
<feComposite in2="hardAlpha" operator="arithmetic" k2="-1" k3="1"/>
<feColorMatrix type="matrix" values="0 0 0 0 0 0 0 0 0 0 0 0 0 0 0 0 0 0 0.15 0"/>
<feBlend mode="normal" in2="shape" result="effect1_innerShadow_111_4"/>
</filter>
<filter id="filter8_i_111_4" x="79" y="136.02" width="5" height="4.7551" filterUnits="userSpaceOnUse" color-interpolation-filters="sRGB">
<feFlood flood-opacity="0" result="BackgroundImageFix"/>
<feBlend mode="normal" in="SourceGraphic" in2="BackgroundImageFix" result="shape"/>
<feColorMatrix in="SourceAlpha" type="matrix" values="0 0 0 0 0 0 0 0 0 0 0 0 0 0 0 0 0 0 127 0" result="hardAlpha"/>
<feOffset dx="-1" dy="1"/>
<feGaussianBlur stdDeviation="0.5"/>
<feComposite in2="hardAlpha" operator="arithmetic" k2="-1" k3="1"/>
<feColorMatrix type="matrix" values="0 0 0 0 0 0 0 0 0 0 0 0 0 0 0 0 0 0 0.25 0"/>
<feBlend mode="normal" in2="shape" result="effect1_innerShadow_111_4"/>
</filter>
<filter id="filter9_i_111_4" x="46" y="269.327" width="20" height="19.7755" filterUnits="userSpaceOnUse" color-interpolation-filters="sRGB">
<feFlood flood-opacity="0" result="BackgroundImageFix"/>
<feBlend mode="normal" in="SourceGraphic" in2="BackgroundImageFix" result="shape"/>
<feColorMatrix in="SourceAlpha" type="matrix" values="0 0 0 0 0 0 0 0 0 0 0 0 0 0 0 0 0 0 127 0" result="hardAlpha"/>
<feOffset dy="1"/>
<feGaussianBlur stdDeviation="2.5"/>
<feComposite in2="hardAlpha" operator="arithmetic" k2="-1" k3="1"/>
<feColorMatrix type="matrix" values="0 0 0 0 0 0 0 0 0 0 0 0 0 0 0 0 0 0 0.25 0"/>
<feBlend mode="normal" in2="shape" result="effect1_innerShadow_111_4"/>
</filter>
<filter id="filter10_i_111_4" x="26" y="162" width="61" height="7" filterUnits="userSpaceOnUse" color-interpolation-filters="sRGB">
<feFlood flood-opacity="0" result="BackgroundImageFix"/>
<feBlend mode="normal" in="SourceGraphic" in2="BackgroundImageFix" result="shape"/>
<feColorMatrix in="SourceAlpha" type="matrix" values="0 0 0 0 0 0 0 0 0 0 0 0 0 0 0 0 0 0 127 0" result="hardAlpha"/>
<feOffset dy="1"/>
<feGaussianBlur stdDeviation="1"/>
<feComposite in2="hardAlpha" operator="arithmetic" k2="-1" k3="1"/>
<feColorMatrix type="matrix" values="0 0 0 0 0 0 0 0 0 0 0 0 0 0 0 0 0 0 0.35 0"/>
<feBlend mode="normal" in2="shape" result="effect1_innerShadow_111_4"/>
</filter>
<clipPath id="clip0_111_4">
<rect width="500" height="300" fill="white"/>
</clipPath>
</defs>
</svg>
