<svg width="121" height="121" viewBox="0 0 121 121" fill="none" xmlns="http://www.w3.org/2000/svg">
<g clip-path="url(#clip0_109_180)">
<g opacity="0.8" filter="url(#filter0_f_109_180)">
<path d="M65.1417 28.364C66.8148 31.4137 68.428 34.671 65.3689 37.2173C62.9992 39.1898 59.6175 38.19 57.3159 34.2506C55.0143 30.3112 57.0659 26.5888 59.0597 25.8362C62.4783 24.546 63.4687 25.3143 65.1417 28.364Z" fill="#E25F71" fill-opacity="0.7"/>
<g filter="url(#filter1_i_109_180)">
<path d="M59.5645 33.0765C58.4578 31.0517 58.4566 27.665 60.1799 26.6425C63.3002 24.791 63.3577 27.1825 64.9859 30.1612C66.0927 32.1859 67.6158 33.8907 65.2755 35.2793C62.9353 36.6679 60.6713 35.1012 59.5645 33.0765Z" fill="#D84557" fill-opacity="0.5"/>
</g>
<path d="M36.4346 65.1234C34.1915 62.4979 31.9663 59.6571 34.4674 56.5265C36.405 54.1013 39.9215 54.3652 42.9569 57.7269C45.9923 61.0887 44.7118 65.1557 42.9028 66.3105C39.8013 68.2904 38.6777 67.7488 36.4346 65.1234Z" fill="#E25F71" fill-opacity="0.7"/>
<g filter="url(#filter2_i_109_180)">
<path d="M40.9809 59.3471C42.4662 61.091 43.1345 64.3977 41.6444 65.7592C38.9461 68.2243 38.4186 65.9012 36.2335 63.3357C34.7482 61.5918 32.9172 60.2479 34.9409 58.3991C36.9645 56.5503 39.4956 57.6032 40.9809 59.3471Z" fill="#D84557" fill-opacity="0.5"/>
</g>
<path d="M89.0092 28.9945C89.3359 29.331 89.2336 29.8892 88.8088 30.0879V30.0879C88.4245 30.2677 88.2998 30.7568 88.5438 31.104V31.104C88.8117 31.4852 88.6282 32.0236 88.1801 32.1514V32.1514C87.7742 32.2671 87.5719 32.722 87.7579 33.1009L87.7723 33.1303C87.9762 33.5458 87.7079 34.0381 87.2481 34.0919V34.0919C86.8312 34.1407 86.561 34.5563 86.6857 34.9572L86.6996 35.0021C86.8362 35.4413 86.4952 35.8828 86.0357 35.8618V35.8618C85.6184 35.8427 85.2875 36.2093 85.3492 36.6225L85.3575 36.6784C85.4251 37.131 85.0203 37.512 84.5727 37.4173V37.4173C84.1657 37.3312 83.7823 37.6406 83.7806 38.0566L83.7803 38.1172C83.7784 38.5731 83.3198 38.8854 82.8949 38.72V38.72C82.5084 38.5696 82.0818 38.8149 82.0174 39.2247L82.0083 39.2827C81.9376 39.7323 81.4359 39.9691 81.0439 39.7377V39.7377C80.6871 39.5272 80.2273 39.703 80.1019 40.0978L80.0865 40.1465C79.9487 40.5804 79.4152 40.7366 79.0652 40.4454V40.4454C78.7467 40.1803 78.2641 40.2825 78.0804 40.6539L78.0633 40.6884C77.8609 41.0974 77.3077 41.1692 77.0077 40.8254V40.8254C76.7346 40.5126 76.2406 40.5386 76.0019 40.8783L75.9892 40.8965C75.7258 41.2714 75.1654 41.2567 74.922 40.8685V40.8685C74.7007 40.5155 74.2055 40.4655 73.9165 40.7656V40.7656C73.5969 41.0974 73.0402 40.9954 72.859 40.5718V40.5718C72.6952 40.1887 72.2144 40.0599 71.8823 40.3115V40.3115C71.5171 40.5882 70.9879 40.4032 70.8746 39.9593L70.8691 39.9378C70.7664 39.5355 70.3137 39.336 69.9475 39.5317V39.5317C69.545 39.7468 69.0532 39.4835 69.009 39.0293L69.0053 38.991C68.9652 38.5785 68.5502 38.3119 68.1584 38.4468V38.4468C67.7279 38.595 67.2844 38.2598 67.3095 37.8052L67.3123 37.7542C67.3351 37.3406 66.9674 37.0132 66.5592 37.0835V37.0835C66.1106 37.1608 65.7254 36.7615 65.8188 36.3161L65.8309 36.2586C65.916 35.8526 65.604 35.472 65.1893 35.4756V35.4756C64.7334 35.4796 64.4153 35.025 64.5751 34.598L64.5964 34.5412C64.7423 34.1517 64.4935 33.7264 64.0825 33.6626V33.6626C63.6303 33.5925 63.3869 33.0927 63.6106 32.6935L63.6382 32.6441C63.8424 32.2797 63.663 31.8195 63.266 31.6894V31.6894C62.8289 31.5462 62.6667 31.0124 62.9501 30.6501L62.979 30.6132C63.2378 30.2825 63.1325 29.7981 62.7599 29.6047V29.6047C62.3491 29.3913 62.2728 28.8359 62.6108 28.5197L62.6347 28.4973C62.9429 28.2089 62.9151 27.7119 62.5766 27.4597V27.4597C62.2029 27.1813 62.2222 26.6129 62.6079 26.3514V26.3514C62.9592 26.1133 63.016 25.6118 62.7204 25.3074V25.3074C62.3936 24.9709 62.4959 24.4128 62.9207 24.214V24.214C63.3051 24.0342 63.4298 23.5451 63.1858 23.1979V23.1979C62.9179 22.8167 63.1013 22.2783 63.5494 22.1506V22.1506C63.9554 22.0348 64.1577 21.5799 63.9717 21.201L63.9573 21.1716C63.7534 20.7561 64.0217 20.2638 64.4814 20.21V20.21C64.8984 20.1612 65.1686 19.7456 65.0439 19.3447L65.03 19.2999C64.8934 18.8606 65.2343 18.4191 65.6938 18.4401V18.4401C66.1111 18.4592 66.442 18.0926 66.3804 17.6794L66.372 17.6235C66.3045 17.1709 66.7092 16.7899 67.1569 16.8846V16.8846C67.5639 16.9707 67.9473 16.6613 67.949 16.2453L67.9492 16.1847C67.9511 15.7288 68.4097 15.4166 68.8346 15.5819V15.5819C69.2212 15.7324 69.6478 15.487 69.7122 15.0773L69.7213 15.0193C69.7919 14.5696 70.2937 14.3329 70.6857 14.5642V14.5642C71.0424 14.7747 71.5023 14.5989 71.6276 14.2041L71.6431 14.1554C71.7809 13.7215 72.3144 13.5654 72.6644 13.8566V13.8566C72.9829 14.1216 73.4654 14.0194 73.6492 13.648L73.6663 13.6135C73.8686 13.2045 74.4218 13.1327 74.7219 13.4765V13.4765C74.9949 13.7893 75.4889 13.7634 75.7276 13.4236L75.7404 13.4055C76.0038 13.0305 76.5641 13.0452 76.8075 13.4334V13.4334C77.0288 13.7864 77.524 13.8364 77.813 13.5363V13.5363C78.1326 13.2045 78.6894 13.3065 78.8706 13.7301V13.7301C79.0344 14.1132 79.5151 14.242 79.8472 13.9904V13.9904C80.2125 13.7137 80.7416 13.8987 80.855 14.3427L80.8605 14.3641C80.9631 14.7665 81.4159 14.9659 81.7821 14.7702V14.7702C82.1845 14.5552 82.6763 14.8184 82.7205 15.2726L82.7243 15.3109C82.7644 15.7234 83.1793 15.99 83.5712 15.8551V15.8551C84.0017 15.707 84.4451 16.0421 84.4201 16.4967L84.4173 16.5477C84.3945 16.9613 84.7622 17.2888 85.1704 17.2184V17.2184C85.6189 17.1411 86.0041 17.5404 85.9108 17.9859L85.8987 18.0433C85.8136 18.4493 86.1255 18.8299 86.5403 18.8263V18.8263C86.9962 18.8224 87.3143 19.277 87.1544 19.7039L87.1332 19.7607C86.9873 20.1502 87.236 20.5755 87.6471 20.6393V20.6393C88.0993 20.7095 88.3426 21.2092 88.119 21.6085L88.0913 21.6578C87.8872 22.0223 88.0666 22.4824 88.4636 22.6125V22.6125C88.9007 22.7557 89.0629 23.2895 88.7795 23.6518L88.7505 23.6888C88.4918 24.0194 88.597 24.5038 88.9696 24.6973V24.6973C89.3804 24.9106 89.4568 25.466 89.1188 25.7822L89.0949 25.8046C88.7866 26.093 88.8145 26.5901 89.153 26.8422V26.8422C89.5267 27.1206 89.5073 27.689 89.1216 27.9505V27.9505C88.7704 28.1886 88.7135 28.6901 89.0092 28.9945V28.9945Z" fill="#62B269" fill-opacity="0.5"/>
<path d="M75.2606 27.2713C77.0048 22.9235 79.8437 19.9946 82.8411 21.2476C85.8386 22.5006 86.8546 27.041 85.1103 31.3888C83.3661 35.7366 79.5222 38.2454 76.5247 36.9924C73.5272 35.7393 73.5163 31.6191 75.2606 27.2713Z" fill="#62B269" fill-opacity="0.75"/>
<path d="M72.2454 107.714C75.9519 105.532 79.9069 103.425 82.9035 107.336C85.2249 110.366 83.9474 114.727 79.1566 117.726C74.3657 120.725 69.9317 118.121 69.07 115.563C67.5927 111.177 68.539 109.895 72.2454 107.714Z" fill="#E25F71" fill-opacity="0.7"/>
<g filter="url(#filter3_i_109_180)">
<path d="M77.7932 114.844C75.3326 116.287 71.2573 116.321 70.0648 114.114C67.9056 110.117 70.7845 110.02 74.4045 107.897C76.8652 106.453 78.9502 104.477 80.5695 107.475C82.1889 110.473 80.2539 113.401 77.7932 114.844Z" fill="#D84557" fill-opacity="0.5"/>
</g>
<path d="M36.3938 63.7158C33.8894 61.3564 31.3807 58.7813 33.5479 55.3967C35.2267 52.7748 38.7551 52.6488 42.1243 55.6518C45.4934 58.6549 44.6382 62.8344 42.9563 64.1807C40.0726 66.4889 38.8981 66.0751 36.3938 63.7158Z" fill="#E25F71" fill-opacity="0.7"/>
<g filter="url(#filter4_i_109_180)">
<path d="M40.3241 57.4786C41.9829 59.0463 42.9896 62.2559 41.6465 63.7722C39.2144 66.5176 38.4494 64.2692 36.009 61.9629C34.3502 60.3953 32.3885 59.263 34.2125 57.2039C36.0366 55.1448 38.6652 55.9109 40.3241 57.4786Z" fill="#D84557" fill-opacity="0.5"/>
</g>
<path d="M52.9116 19.7608C55.8347 21.5371 58.8046 23.5232 57.3441 27.2845C56.2126 30.1983 52.7738 31.0646 48.875 28.842C44.9762 26.6193 44.9923 22.3581 46.3781 20.6893C48.754 17.828 49.9885 17.9846 52.9116 19.7608Z" fill="#E25F71" fill-opacity="0.7"/>
<g filter="url(#filter5_i_109_180)">
<path d="M50.2822 26.679C48.3451 25.4977 46.7245 22.5757 47.7443 20.8122C49.5908 17.6191 50.7847 19.6534 53.6345 21.3913C55.5717 22.5726 57.7204 23.2651 56.3356 25.6599C54.9507 28.0547 52.2194 27.8603 50.2822 26.679Z" fill="#D84557" fill-opacity="0.5"/>
</g>
<path d="M13.3987 70.6958C12.9877 70.4812 12.9196 69.9181 13.2655 69.5958V69.5958C13.5787 69.3041 13.5533 68.8002 13.2175 68.5489V68.5489C12.8485 68.2728 12.8644 67.7031 13.2537 67.4404V67.4404C13.6064 67.2024 13.664 66.7051 13.3736 66.4048L13.3553 66.3859C13.0365 66.0562 13.1458 65.5017 13.5683 65.3052V65.3052C13.9514 65.1269 14.0854 64.645 13.8466 64.3037L13.8249 64.2728C13.563 63.8984 13.7566 63.3685 14.2014 63.2428V63.2428C14.6052 63.1286 14.8117 62.6736 14.6293 62.3L14.6093 62.259C14.4093 61.8492 14.682 61.3563 15.1377 61.304V61.304C15.5518 61.2564 15.8255 60.8391 15.703 60.442L15.6885 60.3952C15.554 59.9595 15.8988 59.5148 16.3542 59.5367V59.5367C16.7682 59.5566 17.1023 59.1864 17.0418 58.775L17.0348 58.7279C16.9683 58.276 17.3769 57.8895 17.8208 57.9845V57.9845C18.2245 58.0708 18.6111 57.7564 18.6137 57.3397L18.6139 57.2981C18.6168 56.8398 19.0796 56.5204 19.5014 56.6856V56.6856C19.8851 56.8359 20.3151 56.5846 20.3809 56.1717L20.3858 56.1407C20.4582 55.6859 20.9648 55.4409 21.3547 55.6722V55.6722C21.7092 55.8824 22.1727 55.7003 22.3005 55.3005L22.306 55.2832C22.4471 54.8421 22.9859 54.6776 23.3348 54.9691V54.9691C23.6519 55.2341 24.1386 55.1244 24.3263 54.747V54.747C24.5338 54.3298 25.0942 54.25 25.394 54.595V54.595C25.6652 54.9071 26.1616 54.8767 26.4048 54.532V54.532C26.6725 54.1527 27.2322 54.1608 27.4735 54.5475L27.4829 54.5626C27.7016 54.913 28.1928 54.9593 28.4852 54.6569V54.6569C28.8068 54.3244 29.3546 54.4193 29.5328 54.8384L29.5449 54.8669C29.7067 55.2474 30.182 55.3698 30.5169 55.1172V55.1172C30.8851 54.8395 31.4083 55.0186 31.5202 55.4605L31.5303 55.5006C31.632 55.9025 32.0804 56.098 32.4498 55.9016V55.9016C32.856 55.6856 33.3428 55.9446 33.3861 56.3998L33.3906 56.4472C33.4301 56.8616 33.841 57.1257 34.2363 56.9906V56.9906C34.671 56.842 35.11 57.1751 35.0838 57.6337L35.0809 57.683C35.0571 58.1009 35.4209 58.4275 35.8322 58.3575V58.3575C36.285 58.2805 36.6658 58.6803 36.5701 59.1322L36.5605 59.1774C36.4733 59.5894 36.7811 59.9711 37.1984 59.9684V59.9684C37.658 59.9654 37.9713 60.4231 37.8074 60.8581L37.7938 60.8941C37.6444 61.2907 37.8885 61.7187 38.3011 61.7836V61.7836C38.7561 61.8553 38.9937 62.3604 38.7642 62.7681L38.751 62.7915C38.542 63.1629 38.7159 63.6272 39.1134 63.7584V63.7584C39.552 63.9032 39.7031 64.4492 39.4123 64.8193V64.8193C39.1477 65.156 39.2432 65.6499 39.6152 65.8441V65.8441C40.0261 66.0587 40.0943 66.6217 39.7484 66.944V66.944C39.4352 67.2358 39.4606 67.7397 39.7964 67.9909V67.9909C40.1654 68.267 40.1494 68.8368 39.7601 69.0995V69.0995C39.4074 69.3375 39.3499 69.8348 39.6403 70.1351L39.6586 70.154C39.9774 70.4837 39.8681 71.0382 39.4456 71.2347V71.2347C39.0624 71.413 38.9285 71.8948 39.1673 72.2361L39.1889 72.2671C39.4509 72.6415 39.2572 73.1713 38.8124 73.2971V73.2971C38.4086 73.4113 38.2022 73.8662 38.3845 74.2399L38.4045 74.2808C38.6046 74.6907 38.3319 75.1835 37.8761 75.2359V75.2359C37.462 75.2834 37.1883 75.7008 37.3109 76.0978L37.3254 76.1446C37.4598 76.5803 37.115 77.025 36.6597 77.0032V77.0032C36.2457 76.9833 35.9116 77.3534 35.9721 77.7649L35.979 77.812C36.0455 78.2639 35.6369 78.6503 35.1931 78.5554V78.5554C34.7894 78.4691 34.4028 78.7834 34.4002 79.2002L34.4 79.2417C34.3971 79.7 33.9342 80.0195 33.5124 79.8543V79.8543C33.1288 79.704 32.6987 79.9553 32.633 80.3681L32.6281 80.3991C32.5557 80.8539 32.0491 81.0989 31.6592 80.8677V80.8677C31.3047 80.6575 30.8412 80.8396 30.7134 81.2394L30.7078 81.2567C30.5668 81.6978 30.028 81.8623 29.6791 81.5708V81.5708C29.362 81.3058 28.8753 81.4154 28.6875 81.7929V81.7929C28.48 82.2101 27.9197 82.2899 27.6199 81.9449V81.9449C27.3486 81.6328 26.8523 81.6631 26.6091 82.0079V82.0079C26.3414 82.3872 25.7817 82.3791 25.5404 81.9924L25.5309 81.9773C25.3123 81.6268 24.8211 81.5806 24.5287 81.883V81.883C24.2071 82.2155 23.6593 82.1206 23.4811 81.7015L23.4689 81.6729C23.3071 81.2925 22.8318 81.1701 22.497 81.4227V81.4227C22.1288 81.7004 21.6056 81.5213 21.4937 81.0793L21.4836 81.0392C21.3819 80.6374 20.9335 80.4419 20.5641 80.6383V80.6383C20.1578 80.8543 19.6711 80.5953 19.6278 80.1401L19.6232 80.0927C19.5838 79.6782 19.1728 79.4142 18.7776 79.5493V79.5493C18.3429 79.6978 17.9039 79.3647 17.9301 78.9062L17.9329 78.8569C17.9568 78.439 17.593 78.1124 17.1816 78.1824V78.1824C16.7289 78.2594 16.3481 77.8596 16.4438 77.4076L16.4533 77.3625C16.5406 76.9505 16.2328 76.5687 15.8155 76.5715V76.5715C15.3558 76.5745 15.0426 76.1168 15.2065 75.6817L15.22 75.6458C15.3695 75.2492 15.1254 74.8212 14.7127 74.7562V74.7562C14.2578 74.6846 14.0202 74.1795 14.2497 73.7718L14.2629 73.7484C14.4719 73.3769 14.2979 72.9126 13.9005 72.7814V72.7814C13.4619 72.6366 13.3108 72.0907 13.6016 71.7206V71.7206C13.8661 71.3839 13.7707 70.89 13.3987 70.6958V70.6958Z" fill="#62B269" fill-opacity="0.5"/>
<path d="M27.0486 67.964C26.6728 72.6387 24.8296 76.3161 21.5932 76.0801C18.3567 75.8441 16.0377 71.8633 16.4135 67.1886C16.7893 62.514 19.7177 58.9157 22.9542 59.1517C26.1906 59.3876 27.4244 63.2894 27.0486 67.964Z" fill="#62B269" fill-opacity="0.75"/>
</g>
<g opacity="0.5" filter="url(#filter6_f_109_180)">
<path d="M66.0451 38.9339C63.826 35.6831 61.6218 32.1928 64.0251 29.0141C65.8869 26.5517 69.3206 27.3221 72.3213 31.5066C75.322 35.6912 74.1205 40.0859 72.3692 41.139C69.3667 42.9445 68.2642 42.1848 66.0451 38.9339Z" fill="#E25F71" fill-opacity="0.7"/>
<g filter="url(#filter7_i_109_180)">
<path d="M70.4126 33.0597C71.882 35.2184 72.5729 39.0221 71.1351 40.3502C68.5317 42.7549 67.9898 40.0749 65.8279 36.8992C64.3585 34.7405 62.5564 32.9845 64.509 31.1809C66.4615 29.3774 68.9431 30.9011 70.4126 33.0597Z" fill="#D84557" fill-opacity="0.5"/>
</g>
<g opacity="0.4">
<path d="M113.792 57.3695C112.799 60.1953 111.654 63.0742 108.658 61.8574C106.337 60.9148 105.285 57.7145 106.499 53.9514C107.714 50.1884 110.916 50.0246 112.332 51.2589C114.758 53.375 114.785 54.5436 113.792 57.3695Z" fill="#E25F71" fill-opacity="0.7"/>
<g filter="url(#filter8_i_109_180)">
<path d="M108.288 55.1851C108.949 53.3122 110.955 51.6642 112.399 52.55C115.013 54.1539 113.624 55.363 112.651 58.1184C111.99 59.9913 111.721 62.0429 109.76 60.8399C107.8 59.637 107.627 57.0581 108.288 55.1851Z" fill="#D84557" fill-opacity="0.5"/>
</g>
</g>
<path d="M39.3605 76.6929C38.0246 79.2612 36.5298 81.8546 33.6726 80.1584C31.4592 78.8444 30.7896 75.5604 32.4603 72.1218C34.1311 68.6832 37.362 69.0767 38.6324 70.5173C40.8106 72.9873 40.6965 74.1246 39.3605 76.6929Z" fill="#E25F71" fill-opacity="0.7"/>
<g filter="url(#filter9_i_109_180)">
<path d="M34.1055 73.6263C34.994 71.9246 37.2034 70.6728 38.5442 71.7805C40.9721 73.7862 39.4341 74.7189 38.127 77.2223C37.2385 78.924 36.7215 80.8664 34.9006 79.3622C33.0798 77.8579 33.217 75.328 34.1055 73.6263Z" fill="#D84557" fill-opacity="0.5"/>
</g>
<path d="M4.15314 65.5259C4.98938 62.6229 5.97316 59.6559 8.99364 60.6555C11.3335 61.4298 12.5359 64.5581 11.5289 68.4159C10.5219 72.2736 7.3677 72.6719 5.90704 71.5392C3.40272 69.5973 3.31689 68.4288 4.15314 65.5259Z" fill="#E25F71" fill-opacity="0.7"/>
<g filter="url(#filter10_i_109_180)">
<path d="M9.69937 67.3111C9.1421 69.2353 7.24571 71.0326 5.77484 70.251C3.1116 68.8358 4.42117 67.5232 5.241 64.6924C5.79826 62.7681 5.9594 60.6937 7.95683 61.7551C9.95426 62.8165 10.2566 65.3869 9.69937 67.3111Z" fill="#D84557" fill-opacity="0.5"/>
</g>
<path d="M123.345 76.5241C123.257 76.9115 122.778 77.0515 122.496 76.7721L122.482 76.7583C122.229 76.5084 121.803 76.5993 121.675 76.9306V76.9306C121.536 77.2899 121.057 77.3578 120.823 77.0514L120.752 76.9585C120.541 76.6817 120.116 76.7082 119.941 77.0092V77.0092C119.752 77.3346 119.281 77.3327 119.095 77.0058L118.994 76.829C118.824 76.5304 118.407 76.4937 118.187 76.7578V76.7578C117.95 77.043 117.494 76.973 117.353 76.6297L117.25 76.3783C117.12 76.0615 116.719 75.9627 116.457 76.1827V76.1827C116.173 76.4203 115.739 76.2834 115.643 75.9262L115.561 75.6225C115.471 75.2897 115.093 75.1299 114.792 75.2981V75.2981C114.466 75.4801 114.06 75.2773 114.009 74.9077L113.965 74.5838C113.918 74.2366 113.568 74.0173 113.235 74.1264V74.1264C112.873 74.2448 112.501 73.9767 112.499 73.5962L112.497 73.2892C112.495 72.9299 112.18 72.6528 111.824 72.6967V72.6967C111.434 72.7446 111.105 72.4125 111.155 72.0235L111.188 71.7695C111.236 71.4018 110.964 71.0699 110.594 71.0449V71.0449C110.187 71.0174 109.908 70.6238 110.017 70.2312L110.065 70.0585C110.168 69.6888 109.947 69.307 109.575 69.2123V69.2123C109.163 69.1074 108.945 68.6569 109.119 68.2693L109.153 68.1928C109.315 67.831 109.153 67.4063 108.792 67.2442V67.2442C108.388 67.0635 108.242 66.5642 108.485 66.1947V66.1947C108.703 65.8634 108.611 65.4183 108.28 65.2005L108.21 65.1544C107.855 64.9211 107.796 64.4242 108.087 64.1144V64.1144C108.349 63.8345 108.33 63.3936 108.045 63.1371L107.912 63.0174C107.609 62.7451 107.632 62.2632 107.96 62.0214V62.0214C108.258 61.8013 108.309 61.3751 108.071 61.0908L107.906 60.8944C107.655 60.5937 107.754 60.1363 108.108 59.9673V59.9673C108.432 59.8124 108.549 59.4094 108.357 59.1054L108.193 58.8457C107.99 58.5239 108.16 58.0977 108.528 58.003V58.003C108.868 57.9159 109.045 57.5425 108.898 57.2244L108.761 56.9276C108.605 56.589 108.838 56.1993 109.211 56.1776V56.1776C109.555 56.1575 109.788 55.8191 109.684 55.4904L109.59 55.1904C109.479 54.8376 109.771 54.4886 110.138 54.5364V54.5364C110.478 54.5806 110.762 54.2818 110.701 53.9447L110.653 53.6773C110.587 53.312 110.934 53.0078 111.288 53.1204V53.1204C111.615 53.2247 111.946 52.9699 111.929 52.6266L111.919 52.4232C111.901 52.0472 112.296 51.7924 112.631 51.9649V51.9649C112.94 52.1245 113.313 51.9184 113.342 51.5714L113.351 51.455C113.384 51.071 113.824 50.8706 114.135 51.0986V51.0986C114.421 51.3088 114.829 51.1563 114.907 50.8099L114.912 50.7907C114.999 50.4033 115.479 50.2633 115.761 50.5428L115.775 50.5566C116.027 50.8065 116.453 50.7155 116.582 50.3843V50.3843C116.721 50.025 117.2 49.957 117.434 50.2634L117.505 50.3563C117.716 50.6332 118.14 50.6066 118.315 50.3057V50.3057C118.505 49.9802 118.975 49.9821 119.162 50.3091L119.263 50.4859C119.433 50.7844 119.849 50.8211 120.069 50.557V50.557C120.307 50.2718 120.763 50.3418 120.904 50.6852L121.007 50.9366C121.137 51.2534 121.538 51.3521 121.8 51.1322V51.1322C122.084 50.8946 122.518 51.0314 122.614 51.3886L122.696 51.6923C122.785 52.0252 123.164 52.1849 123.465 52.0167V52.0167C123.79 51.8347 124.197 52.0376 124.247 52.4071L124.291 52.731C124.339 53.0782 124.689 53.2976 125.022 53.1885V53.1885C125.384 53.07 125.756 53.3382 125.758 53.7186L125.759 54.0257C125.761 54.385 126.076 54.6621 126.433 54.6182V54.6182C126.822 54.5702 127.152 54.9024 127.102 55.2913L127.069 55.5453C127.021 55.9131 127.293 56.2449 127.663 56.2699V56.2699C128.07 56.2974 128.348 56.6911 128.239 57.0836L128.192 57.2563C128.089 57.626 128.31 58.0079 128.682 58.1026V58.1026C129.094 58.2074 129.311 58.6579 129.138 59.0455L129.103 59.122C128.941 59.4839 129.103 59.9086 129.465 60.0706V60.0706C129.869 60.2514 130.015 60.7506 129.772 61.1202V61.1202C129.554 61.4514 129.646 61.8965 129.977 62.1144L130.047 62.1604C130.402 62.3938 130.461 62.8906 130.17 63.2004V63.2004C129.908 63.4803 129.926 63.9212 130.212 64.1777L130.345 64.2975C130.648 64.5698 130.625 65.0516 130.297 65.2935V65.2935C129.999 65.5136 129.948 65.9398 130.186 66.224L130.35 66.4204C130.602 66.7211 130.503 67.1786 130.149 67.3476V67.3476C129.825 67.5024 129.708 67.9055 129.9 68.2094L130.063 68.4691C130.266 68.791 130.097 69.2172 129.728 69.3118V69.3118C129.389 69.399 129.212 69.7724 129.359 70.0904L129.496 70.3873C129.652 70.7258 129.419 71.1156 129.046 71.1373V71.1373C128.702 71.1573 128.469 71.4957 128.572 71.8245L128.667 72.1244C128.778 72.4772 128.486 72.8262 128.119 72.7784V72.7784C127.779 72.7342 127.495 73.033 127.555 73.3701L127.604 73.6376C127.669 74.0029 127.323 74.307 126.969 74.1944V74.1944C126.642 74.0902 126.311 74.3449 126.328 74.6883L126.338 74.8916C126.356 75.2676 125.96 75.5225 125.626 75.3499V75.3499C125.316 75.1903 124.944 75.3964 124.915 75.7434L124.905 75.8598C124.873 76.2438 124.433 76.4442 124.122 76.2163V76.2163C123.836 76.0061 123.428 76.1585 123.349 76.505L123.345 76.5241Z" fill="#D9D9D9" fill-opacity="0.5"/>
<path d="M115.851 65.2774C114.521 60.719 115.192 56.513 118.872 55.4387C122.552 54.3644 126.615 57.1888 127.945 61.7472C129.276 66.3057 127.371 70.8719 123.691 71.9462C120.01 73.0205 117.182 69.8359 115.851 65.2774Z" fill="#D9D9D9" fill-opacity="0.75"/>
<path d="M48.2794 97.4961C48.1976 97.8577 47.7501 97.9883 47.4866 97.7275L47.4736 97.7146C47.2379 97.4814 46.8404 97.5663 46.7207 97.8754V97.8754C46.5907 98.2108 46.1436 98.2742 45.9255 97.9882L45.8594 97.9015C45.6624 97.6431 45.266 97.6679 45.1027 97.9488V97.9488C44.926 98.2526 44.4867 98.2508 44.3125 97.9456L44.2183 97.7806C44.0592 97.5019 43.6709 97.4677 43.4656 97.7142V97.7142C43.2438 97.9804 42.8185 97.9151 42.6869 97.5946L42.5905 97.36C42.469 97.0643 42.0951 96.9721 41.8501 97.1774V97.1774C41.5855 97.3992 41.1801 97.2714 41.0904 96.938L41.0142 96.6546C40.9306 96.3439 40.5771 96.1949 40.2964 96.3518V96.3518C39.9925 96.5217 39.6131 96.3324 39.5661 95.9875L39.5249 95.6851C39.4808 95.3611 39.1538 95.1564 38.843 95.2582V95.2582C38.5056 95.3687 38.1583 95.1185 38.1564 94.7634L38.1548 94.4768C38.153 94.1415 37.859 93.8828 37.5261 93.9238V93.9238C37.1628 93.9686 36.8549 93.6586 36.9021 93.2956L36.9329 93.0584C36.9775 92.7152 36.7234 92.4055 36.3781 92.3822V92.3822C35.9987 92.3565 35.7384 91.9891 35.8401 91.6227L35.8849 91.4615C35.9807 91.1165 35.7741 90.7601 35.4271 90.6717V90.6717C35.0429 90.5738 34.8397 90.1534 35.0018 89.7916L35.0338 89.7202C35.185 89.3825 35.0338 88.9861 34.6961 88.8349V88.8349C34.3194 88.6661 34.1834 88.2002 34.4102 87.8553V87.8553C34.6135 87.5461 34.5277 87.1307 34.2185 86.9274L34.1531 86.8844C33.8219 86.6666 33.767 86.2028 34.0382 85.9137V85.9137C34.2832 85.6525 34.2656 85.2409 33.9992 85.0016L33.8748 84.8898C33.5919 84.6356 33.6137 84.1859 33.9197 83.9602V83.9602C34.1982 83.7548 34.2458 83.357 34.0236 83.0916L33.87 82.9083C33.6349 82.6277 33.7278 82.2008 34.0581 82.043V82.043C34.3607 81.8985 34.4695 81.5223 34.2906 81.2386L34.1377 80.9962C33.9483 80.6959 34.1064 80.2981 34.4504 80.2097V80.2097C34.7671 80.1284 34.9326 79.7799 34.7955 79.483L34.6675 79.206C34.5216 78.89 34.7396 78.5262 35.0871 78.506V78.506C35.4083 78.4873 35.6261 78.1714 35.5294 77.8646L35.4412 77.5846C35.3374 77.2554 35.6104 76.9296 35.9527 76.9742V76.9742C36.2697 77.0155 36.5353 76.7366 36.4786 76.422L36.4337 76.1724C36.3723 75.8314 36.6956 75.5475 37.0258 75.6526V75.6526C37.3315 75.7499 37.6404 75.5122 37.6246 75.1917L37.6152 75.0019C37.5978 74.651 37.9673 74.4131 38.2796 74.5742V74.5742C38.5684 74.7231 38.9158 74.5307 38.9429 74.2069L38.952 74.0982C38.982 73.7399 39.393 73.5528 39.683 73.7656V73.7656C39.9502 73.9618 40.331 73.8195 40.4042 73.4961L40.4082 73.4783C40.49 73.1166 40.9375 72.986 41.201 73.2468L41.214 73.2597C41.4496 73.493 41.8471 73.4081 41.9669 73.0989V73.0989C42.0968 72.7635 42.544 72.7001 42.762 72.9861L42.8282 73.0728C43.0252 73.3312 43.4216 73.3064 43.5849 73.0255V73.0255C43.7615 72.7218 44.2009 72.7235 44.3751 73.0287L44.4693 73.1937C44.6283 73.4724 45.0166 73.5066 45.222 73.2601V73.2601C45.4438 72.994 45.8691 73.0593 46.0007 73.3797L46.0971 73.6144C46.2186 73.91 46.5925 74.0022 46.8375 73.7969V73.7969C47.1021 73.5752 47.5075 73.7029 47.5971 74.0363L47.6734 74.3198C47.7569 74.6304 48.1104 74.7795 48.3912 74.6225V74.6225C48.695 74.4526 49.0745 74.642 49.1215 74.9869L49.1627 75.2892C49.2068 75.6132 49.5338 75.818 49.8445 75.7162V75.7162C50.182 75.6056 50.5293 75.8559 50.5312 76.2109L50.5327 76.4975C50.5346 76.8329 50.8286 77.0915 51.1615 77.0505V77.0505C51.5248 77.0058 51.8327 77.3158 51.7855 77.6788L51.7547 77.9159C51.7101 78.2591 51.9642 78.5689 52.3095 78.5922V78.5922C52.6889 78.6178 52.9491 78.9852 52.8474 79.3516L52.8027 79.5128C52.7069 79.8579 52.9135 80.2143 53.2605 80.3027V80.3027C53.6446 80.4005 53.8478 80.821 53.6858 81.1828L53.6538 81.2542C53.5026 81.5919 53.6537 81.9882 53.9914 82.1395V82.1395C54.3682 82.3082 54.5042 82.7742 54.2774 83.1191V83.1191C54.0741 83.4282 54.1599 83.8437 54.469 84.047L54.5344 84.09C54.8656 84.3078 54.9206 84.7715 54.6494 85.0607V85.0607C54.4044 85.3219 54.422 85.7334 54.6884 85.9728L54.8128 86.0845C55.0956 86.3387 55.0739 86.7884 54.7679 87.0141V87.0141C54.4893 87.2196 54.4418 87.6174 54.664 87.8827L54.8176 88.066C55.0526 88.3466 54.9598 88.7736 54.6295 88.9313V88.9313C54.3268 89.0758 54.2181 89.452 54.397 89.7357L54.5499 89.9781C54.7393 90.2785 54.5811 90.6763 54.2372 90.7646V90.7646C53.9205 90.8459 53.755 91.1945 53.8921 91.4913L54.02 91.7683C54.166 92.0843 53.9479 92.4481 53.6004 92.4684V92.4684C53.2793 92.4871 53.0615 92.8029 53.1582 93.1097L53.2464 93.3897C53.3502 93.719 53.0772 94.0447 52.7348 94.0001V94.0001C52.4179 93.9589 52.1523 94.2377 52.2089 94.5523L52.2539 94.802C52.3153 95.1429 51.9919 95.4268 51.6618 95.3217V95.3217C51.3561 95.2244 51.0472 95.4622 51.063 95.7826L51.0724 95.9724C51.0897 96.3234 50.7203 96.5612 50.408 96.4002V96.4002C50.1192 96.2512 49.7717 96.4436 49.7446 96.7674L49.7356 96.8761C49.7056 97.2345 49.2945 97.4215 49.0046 97.2087V97.2087C48.7373 97.0126 48.3566 97.1548 48.2834 97.4782L48.2794 97.4961Z" fill="#62B269" fill-opacity="0.5"/>
<path d="M44.0291 85.0108C47.5478 84.9085 50.5687 86.2736 50.9229 89.3199C51.277 92.3662 48.7116 94.9187 45.1928 95.021C41.674 95.1233 38.5344 92.7368 38.1802 89.6905C37.8261 86.6442 40.5103 85.1132 44.0291 85.0108Z" fill="#62B269" fill-opacity="0.75"/>
</g>
<g opacity="0.5" filter="url(#filter11_f_109_180)">
<g filter="url(#filter12_b_109_180)">
<path d="M42.9503 85.7309C48.9031 80.711 55.3304 75.7401 62.0724 81.5711C67.2952 86.0881 66.4703 94.1062 58.8367 100.907C51.2031 107.707 42.3092 104.627 39.8833 100.452C35.724 93.2951 36.9974 90.7509 42.9503 85.7309Z" fill="#E25F71" fill-opacity="0.7"/>
<g filter="url(#filter13_i_109_180)">
<path d="M55.3946 96.3329C51.4409 99.6567 44.0917 101.055 41.1875 97.6006C35.9289 91.3454 41.0958 90.2305 46.9123 85.3407C50.866 82.0169 53.96 77.8885 57.904 82.5798C61.8479 87.2712 59.3483 93.0091 55.3946 96.3329Z" fill="#D84557" fill-opacity="0.5"/>
</g>
</g>
<g filter="url(#filter14_b_109_180)">
<path d="M127.566 40.586C119.886 39.3036 111.935 37.6279 112.009 28.7145C112.066 21.8095 118.709 17.2433 128.834 18.6526C138.96 20.0619 142.376 28.8325 140.767 33.3849C138.01 41.1901 135.247 41.8684 127.566 40.586Z" fill="#E25F71" fill-opacity="0.7"/>
<g filter="url(#filter15_i_109_180)">
<path d="M127.58 24.2378C132.674 25.0963 138.5 29.7885 137.75 34.239C136.392 42.2972 132.195 39.0836 124.702 37.8207C119.609 36.9622 114.459 37.2799 115.478 31.2363C116.497 25.1926 122.487 23.3794 127.58 24.2378Z" fill="#D84557" fill-opacity="0.5"/>
</g>
</g>
</g>
<g opacity="0.8" filter="url(#filter16_d_109_180)">
<path d="M81.2666 24.4118C88.6351 12.9498 96.8223 1.32544 111.101 7.60273C122.163 12.4655 124.915 26.2994 115.653 41.6049C106.391 56.9104 89.9306 56.3418 83.7228 50.6108C73.0795 40.7849 73.8982 35.8739 81.2666 24.4118Z" fill="#E25F71" fill-opacity="0.8"/>
<g filter="url(#filter17_i_109_180)">
<path d="M107.54 35.7297C102.641 43.3253 91.0712 49.4506 84.4345 45.1698C72.4176 37.4187 80.4837 32.8921 87.6913 21.7179C92.5905 14.1223 95.6376 5.62414 104.65 11.4375C113.663 17.2508 112.439 28.1342 107.54 35.7297Z" fill="#D84557" fill-opacity="0.7"/>
</g>
<path d="M48.1343 58.7202C52.1802 68.7464 55.956 79.3772 45.3452 85.7478C37.1254 90.6829 26.9044 86.124 21.2371 73.1097C15.5699 60.0955 23.4832 49.6954 30.0405 48.3019C41.283 45.9126 44.0884 48.6939 48.1343 58.7202Z" fill="#E25F71" fill-opacity="0.7"/>
<g filter="url(#filter18_i_109_180)">
<path d="M28.7611 70.5484C26.0875 63.8937 27.4236 53.5929 33.2382 51.2568C43.7666 47.0269 43.0009 54.3259 46.9342 64.116C49.6078 70.7707 53.7149 76.6395 45.8187 79.8119C37.9224 82.9844 31.4347 77.203 28.7611 70.5484Z" fill="#D84557" fill-opacity="0.5"/>
</g>
<path d="M148.82 -10.0877L151.711 -9.97415L154.584 -9.63413L157.421 -9.06977L160.205 -8.28453L162.919 -7.28327L165.546 -6.07215L168.07 -4.65865L170.476 -3.05147L172.747 -1.26052L174.872 0.70314L176.835 2.82742L178.626 5.09922L180.234 7.50453L181.647 10.0285L182.858 12.6556L183.859 15.3697L184.645 18.1539L185.209 20.9912L185.549 23.864L185.663 26.7546L185.549 29.6452L185.209 32.518L184.645 35.3553L183.859 38.1395L182.858 40.8535L181.647 43.4806L180.234 46.0046L178.626 48.41L176.835 50.6818L174.872 52.806L172.747 54.7697L170.476 56.5606L168.07 58.1678L165.546 59.5813L162.919 60.7924L160.205 61.7937L157.421 62.5789L154.584 63.1433L151.711 63.4833L148.82 63.5969L145.93 63.4833L143.057 63.1433L140.22 62.5789L137.435 61.7937L134.721 60.7924L132.094 59.5813L129.57 58.1678L127.165 56.5606L124.893 54.7697L122.769 52.806L120.805 50.6818L119.014 48.41L117.407 46.0046L115.994 43.4806L114.782 40.8535L113.781 38.1395L112.996 35.3553L112.432 32.518L112.092 29.6452L111.978 26.7546L112.092 23.864L112.432 20.9912L112.996 18.1539L113.781 15.3697L114.782 12.6556L115.994 10.0285L117.407 7.50453L119.014 5.09922L120.805 2.82742L122.769 0.70314L124.893 -1.26052L127.165 -3.05147L129.57 -4.65865L132.094 -6.07215L134.721 -7.28327L137.435 -8.28453L140.22 -9.06977L143.057 -9.63413L145.93 -9.97415L148.82 -10.0877Z" fill="#63A3B6" fill-opacity="0.5"/>
<path d="M116.072 71.7841L118.962 71.8977L121.835 72.2377L124.672 72.802L127.456 73.5873L130.17 74.5885L132.798 75.7997L135.322 77.2132L137.727 78.8203L139.999 80.6113L142.123 82.5749L144.087 84.6992L145.878 86.971L147.485 89.3763L148.898 91.9003L150.109 94.5274L151.111 97.2415L151.896 100.026L152.46 102.863L152.8 105.736L152.914 108.626L152.8 111.517L152.46 114.39L151.896 117.227L151.111 120.011L150.109 122.725L148.898 125.352L147.485 127.876L145.878 130.282L144.087 132.554L142.123 134.678L139.999 136.642L137.727 138.432L135.322 140.04L132.798 141.453L130.17 142.664L127.456 143.666L124.672 144.451L121.835 145.015L118.962 145.355L116.072 145.469L113.181 145.355L110.308 145.015L107.471 144.451L104.687 143.666L101.973 142.664L99.3455 141.453L96.8215 140.04L94.4162 138.432L92.1444 136.642L90.0201 134.678L88.0564 132.554L86.2655 130.282L84.6583 127.876L83.2448 125.352L82.0337 122.725L81.0324 120.011L80.2472 117.227L79.6828 114.39L79.3428 111.517L79.2292 108.626L79.3428 105.736L79.6828 102.863L80.2472 100.026L81.0324 97.2415L82.0337 94.5274L83.2448 91.9003L84.6583 89.3763L86.2655 86.971L88.0564 84.6992L90.0201 82.5749L92.1444 80.6113L94.4162 78.8203L96.8215 77.2132L99.3455 75.7997L101.973 74.5885L104.687 73.5873L107.471 72.802L110.308 72.2377L113.181 71.8977L116.072 71.7841Z" fill="#62B269" fill-opacity="0.7"/>
<path d="M116.647 110.129C105.025 107.683 96.4366 101.742 98.189 93.4137C99.9414 85.0853 110.783 80.3162 122.405 82.7616C134.027 85.207 142.028 93.9408 140.276 102.269C138.523 110.598 128.269 112.574 116.647 110.129Z" fill="#62B269" fill-opacity="0.8"/>
<path d="M19.8423 11L22.7329 11.1135L25.6057 11.4536L28.443 12.0179L31.2272 12.8032L33.9412 13.8044L36.5684 15.0155L39.0924 16.429L41.4977 18.0362L43.7695 19.8272L45.8938 21.7908L47.8574 23.9151L49.6484 26.1869L51.2555 28.5922L52.669 31.1162L53.8802 33.7433L54.8814 36.4574L55.6667 39.2416L56.231 42.0789L56.571 44.9517L56.6846 47.8423L56.571 50.7329L56.231 53.6057L55.6667 56.4429L54.8814 59.2272L53.8802 61.9412L52.669 64.5683L51.2555 67.0923L49.6484 69.4976L47.8574 71.7694L45.8938 73.8937L43.7695 75.8574L41.4977 77.6483L39.0924 79.2555L36.5684 80.669L33.9412 81.8801L31.2272 82.8814L28.443 83.6666L25.6057 84.231L22.7329 84.571L19.8423 84.6846L16.9517 84.571L14.0789 84.231L11.2416 83.6666L8.45741 82.8814L5.74337 81.8801L3.11625 80.669L0.592255 79.2555L-1.81306 77.6483L-4.08486 75.8574L-6.20914 73.8937L-8.1728 71.7694L-9.96375 69.4976L-11.5709 67.0923L-12.9844 64.5683L-14.1955 61.9412L-15.1968 59.2272L-15.982 56.4429L-16.5464 53.6057L-16.8864 50.7329L-17 47.8423L-16.8864 44.9517L-16.5464 42.0789L-15.982 39.2416L-15.1968 36.4574L-14.1955 33.7433L-12.9844 31.1162L-11.5709 28.5922L-9.96375 26.1869L-8.1728 23.9151L-6.20914 21.7908L-4.08486 19.8272L-1.81306 18.0362L0.592255 16.429L3.11625 15.0155L5.74337 13.8044L8.45741 12.8032L11.2416 12.0179L14.0789 11.4536L16.9517 11.1135L19.8423 11Z" fill="#62B269" fill-opacity="0.5"/>
<path d="M20.4178 49.3447C8.79582 46.8993 0.207386 40.958 1.95978 32.6296C3.71217 24.3012 14.5542 19.5321 26.1761 21.9775C37.7981 24.4229 45.7989 33.1568 44.0465 41.4852C42.2941 49.8135 32.0397 51.7901 20.4178 49.3447Z" fill="#62B269" fill-opacity="0.75"/>
<path d="M11.7544 1.67221C15.1843 -2.17872 18.93 -6.04208 23.8983 -2.85406C27.7471 -0.384415 27.9608 4.94946 23.5966 10.1257C19.2323 15.3019 13.1122 14.1196 11.1291 11.6113C7.72899 7.31085 8.32439 5.52313 11.7544 1.67221Z" fill="#E25F71" fill-opacity="0.7"/>
<g filter="url(#filter19_i_109_180)">
<path d="M20.9097 7.45129C18.6307 10.0022 13.9446 11.6105 11.7157 9.61914C7.67985 6.01343 10.9621 4.79641 14.3149 1.0436C16.594 -1.50732 18.2338 -4.50481 21.2607 -1.80053C24.2875 0.903744 23.1888 4.90037 20.9097 7.45129Z" fill="#D84557" fill-opacity="0.5"/>
</g>
<path d="M63.0979 54.2421L65.4766 55.8885L67.7187 57.7164L69.8106 59.7147L71.7392 61.8708L73.4926 64.1717L75.0602 66.603L76.4321 69.1498L77.6001 71.7964L78.5567 74.5265L79.2962 77.3232L79.814 80.1694L80.1069 83.0473L80.1731 85.9394L80.0122 88.8278L79.6251 91.6946L79.0144 94.5223L78.1836 97.2932L77.138 99.9905L75.884 102.597L74.4293 105.098L72.7829 107.477L70.955 109.719L68.9568 111.811L66.8006 113.739L64.4998 115.493L62.0685 117.06L59.5217 118.432L56.875 119.6L54.145 120.557L51.3482 121.296L48.5021 121.814L45.6241 122.107L42.732 122.173L39.8437 122.012L36.9768 121.625L34.1492 121.014L31.3782 120.184L28.6809 119.138L26.074 117.884L23.5735 116.429L21.1949 114.783L18.9527 112.955L16.8609 110.957L14.9323 108.801L13.1788 106.5L11.6113 104.068L10.2393 101.522L9.07143 98.875L8.11477 96.1449L7.37527 93.3482L6.85747 90.5021L6.56457 87.6241L6.49838 84.732L6.6593 81.8437L7.04635 78.9768L7.65713 76.1492L8.48788 73.3782L9.53348 70.6809L10.7875 68.074L12.2422 65.5735L13.8885 63.1949L15.7165 60.9527L17.7147 58.8609L19.8708 56.9323L22.1717 55.1788L24.603 53.6113L27.1498 52.2393L29.7964 51.0714L32.5265 50.1148L35.3232 49.3753L38.1694 48.8575L41.0474 48.5646L43.9394 48.4984L46.8278 48.6593L49.6946 49.0463L52.5223 49.6571L55.2933 50.4879L57.9905 51.5335L60.5975 52.7875L63.0979 54.2421Z" fill="#D9D9D9" fill-opacity="0.75"/>
<path d="M53.8876 90.102C47.339 100.406 37.1325 105.645 26.829 99.0966C16.5255 92.548 13.4815 78.8867 20.0301 68.5832C26.5788 58.2797 40.2401 55.2357 50.5436 61.7843C60.8471 68.333 60.4362 79.7985 53.8876 90.102Z" fill="#F5F5F5"/>
</g>
</g>
<defs>
<filter id="filter0_f_109_180" x="11.9509" y="-92.1433" width="98.3642" height="280.325" filterUnits="userSpaceOnUse" color-interpolation-filters="sRGB">
<feFlood flood-opacity="0" result="BackgroundImageFix"/>
<feBlend mode="normal" in="SourceGraphic" in2="BackgroundImageFix" result="shape"/>
<feGaussianBlur stdDeviation="0.5" result="effect1_foregroundBlur_109_180"/>
</filter>
<filter id="filter1_i_109_180" x="57.7983" y="25.4919" width="8.70645" height="10.3152" filterUnits="userSpaceOnUse" color-interpolation-filters="sRGB">
<feFlood flood-opacity="0" result="BackgroundImageFix"/>
<feBlend mode="normal" in="SourceGraphic" in2="BackgroundImageFix" result="shape"/>
<feColorMatrix in="SourceAlpha" type="matrix" values="0 0 0 0 0 0 0 0 0 0 0 0 0 0 0 0 0 0 127 0" result="hardAlpha"/>
<feOffset dx="-1" dy="-0.5"/>
<feGaussianBlur stdDeviation="2.5"/>
<feComposite in2="hardAlpha" operator="arithmetic" k2="-1" k3="1"/>
<feColorMatrix type="matrix" values="0 0 0 0 0 0 0 0 0 0 0 0 0 0 0 0 0 0 0.15 0"/>
<feBlend mode="normal" in2="shape" result="effect1_innerShadow_109_180"/>
</filter>
<filter id="filter2_i_109_180" x="33.0446" y="56.9267" width="9.43796" height="9.88104" filterUnits="userSpaceOnUse" color-interpolation-filters="sRGB">
<feFlood flood-opacity="0" result="BackgroundImageFix"/>
<feBlend mode="normal" in="SourceGraphic" in2="BackgroundImageFix" result="shape"/>
<feColorMatrix in="SourceAlpha" type="matrix" values="0 0 0 0 0 0 0 0 0 0 0 0 0 0 0 0 0 0 127 0" result="hardAlpha"/>
<feOffset dx="-1" dy="-0.5"/>
<feGaussianBlur stdDeviation="2.5"/>
<feComposite in2="hardAlpha" operator="arithmetic" k2="-1" k3="1"/>
<feColorMatrix type="matrix" values="0 0 0 0 0 0 0 0 0 0 0 0 0 0 0 0 0 0 0.15 0"/>
<feBlend mode="normal" in2="shape" result="effect1_innerShadow_109_180"/>
</filter>
<filter id="filter3_i_109_180" x="68.3214" y="105.41" width="12.8439" height="10.4504" filterUnits="userSpaceOnUse" color-interpolation-filters="sRGB">
<feFlood flood-opacity="0" result="BackgroundImageFix"/>
<feBlend mode="normal" in="SourceGraphic" in2="BackgroundImageFix" result="shape"/>
<feColorMatrix in="SourceAlpha" type="matrix" values="0 0 0 0 0 0 0 0 0 0 0 0 0 0 0 0 0 0 127 0" result="hardAlpha"/>
<feOffset dx="-1" dy="-0.5"/>
<feGaussianBlur stdDeviation="2.5"/>
<feComposite in2="hardAlpha" operator="arithmetic" k2="-1" k3="1"/>
<feColorMatrix type="matrix" values="0 0 0 0 0 0 0 0 0 0 0 0 0 0 0 0 0 0 0.15 0"/>
<feBlend mode="normal" in2="shape" result="effect1_innerShadow_109_180"/>
</filter>
<filter id="filter4_i_109_180" x="32.4808" y="55.4539" width="9.78889" height="9.58219" filterUnits="userSpaceOnUse" color-interpolation-filters="sRGB">
<feFlood flood-opacity="0" result="BackgroundImageFix"/>
<feBlend mode="normal" in="SourceGraphic" in2="BackgroundImageFix" result="shape"/>
<feColorMatrix in="SourceAlpha" type="matrix" values="0 0 0 0 0 0 0 0 0 0 0 0 0 0 0 0 0 0 127 0" result="hardAlpha"/>
<feOffset dx="-1" dy="-0.5"/>
<feGaussianBlur stdDeviation="2.5"/>
<feComposite in2="hardAlpha" operator="arithmetic" k2="-1" k3="1"/>
<feColorMatrix type="matrix" values="0 0 0 0 0 0 0 0 0 0 0 0 0 0 0 0 0 0 0.15 0"/>
<feBlend mode="normal" in2="shape" result="effect1_innerShadow_109_180"/>
</filter>
<filter id="filter5_i_109_180" x="46.4296" y="18.6334" width="10.3469" height="8.89523" filterUnits="userSpaceOnUse" color-interpolation-filters="sRGB">
<feFlood flood-opacity="0" result="BackgroundImageFix"/>
<feBlend mode="normal" in="SourceGraphic" in2="BackgroundImageFix" result="shape"/>
<feColorMatrix in="SourceAlpha" type="matrix" values="0 0 0 0 0 0 0 0 0 0 0 0 0 0 0 0 0 0 127 0" result="hardAlpha"/>
<feOffset dx="-1" dy="-0.5"/>
<feGaussianBlur stdDeviation="2.5"/>
<feComposite in2="hardAlpha" operator="arithmetic" k2="-1" k3="1"/>
<feColorMatrix type="matrix" values="0 0 0 0 0 0 0 0 0 0 0 0 0 0 0 0 0 0 0.15 0"/>
<feBlend mode="normal" in2="shape" result="effect1_innerShadow_109_180"/>
</filter>
<filter id="filter6_f_109_180" x="1.67807" y="25.6172" width="130.88" height="74.5583" filterUnits="userSpaceOnUse" color-interpolation-filters="sRGB">
<feFlood flood-opacity="0" result="BackgroundImageFix"/>
<feBlend mode="normal" in="SourceGraphic" in2="BackgroundImageFix" result="shape"/>
<feGaussianBlur stdDeviation="1" result="effect1_foregroundBlur_109_180"/>
</filter>
<filter id="filter7_i_109_180" x="62.6537" y="29.8827" width="9.27254" height="11.3936" filterUnits="userSpaceOnUse" color-interpolation-filters="sRGB">
<feFlood flood-opacity="0" result="BackgroundImageFix"/>
<feBlend mode="normal" in="SourceGraphic" in2="BackgroundImageFix" result="shape"/>
<feColorMatrix in="SourceAlpha" type="matrix" values="0 0 0 0 0 0 0 0 0 0 0 0 0 0 0 0 0 0 127 0" result="hardAlpha"/>
<feOffset dx="-1" dy="-0.5"/>
<feGaussianBlur stdDeviation="2.5"/>
<feComposite in2="hardAlpha" operator="arithmetic" k2="-1" k3="1"/>
<feColorMatrix type="matrix" values="0 0 0 0 0 0 0 0 0 0 0 0 0 0 0 0 0 0 0.15 0"/>
<feBlend mode="normal" in2="shape" result="effect1_innerShadow_109_180"/>
</filter>
<filter id="filter8_i_109_180" x="106.94" y="51.8036" width="6.96158" height="9.3954" filterUnits="userSpaceOnUse" color-interpolation-filters="sRGB">
<feFlood flood-opacity="0" result="BackgroundImageFix"/>
<feBlend mode="normal" in="SourceGraphic" in2="BackgroundImageFix" result="shape"/>
<feColorMatrix in="SourceAlpha" type="matrix" values="0 0 0 0 0 0 0 0 0 0 0 0 0 0 0 0 0 0 127 0" result="hardAlpha"/>
<feOffset dx="-1" dy="-0.5"/>
<feGaussianBlur stdDeviation="2.5"/>
<feComposite in2="hardAlpha" operator="arithmetic" k2="-1" k3="1"/>
<feColorMatrix type="matrix" values="0 0 0 0 0 0 0 0 0 0 0 0 0 0 0 0 0 0 0.15 0"/>
<feBlend mode="normal" in2="shape" result="effect1_innerShadow_109_180"/>
</filter>
<filter id="filter9_i_109_180" x="32.4718" y="70.8614" width="7.35257" height="9.04031" filterUnits="userSpaceOnUse" color-interpolation-filters="sRGB">
<feFlood flood-opacity="0" result="BackgroundImageFix"/>
<feBlend mode="normal" in="SourceGraphic" in2="BackgroundImageFix" result="shape"/>
<feColorMatrix in="SourceAlpha" type="matrix" values="0 0 0 0 0 0 0 0 0 0 0 0 0 0 0 0 0 0 127 0" result="hardAlpha"/>
<feOffset dx="-1" dy="-0.5"/>
<feGaussianBlur stdDeviation="2.5"/>
<feComposite in2="hardAlpha" operator="arithmetic" k2="-1" k3="1"/>
<feColorMatrix type="matrix" values="0 0 0 0 0 0 0 0 0 0 0 0 0 0 0 0 0 0 0.15 0"/>
<feBlend mode="normal" in2="shape" result="effect1_innerShadow_109_180"/>
</filter>
<filter id="filter10_i_109_180" x="3.18628" y="60.9671" width="6.76074" height="9.47115" filterUnits="userSpaceOnUse" color-interpolation-filters="sRGB">
<feFlood flood-opacity="0" result="BackgroundImageFix"/>
<feBlend mode="normal" in="SourceGraphic" in2="BackgroundImageFix" result="shape"/>
<feColorMatrix in="SourceAlpha" type="matrix" values="0 0 0 0 0 0 0 0 0 0 0 0 0 0 0 0 0 0 127 0" result="hardAlpha"/>
<feOffset dx="-1" dy="-0.5"/>
<feGaussianBlur stdDeviation="2.5"/>
<feComposite in2="hardAlpha" operator="arithmetic" k2="-1" k3="1"/>
<feColorMatrix type="matrix" values="0 0 0 0 0 0 0 0 0 0 0 0 0 0 0 0 0 0 0.15 0"/>
<feBlend mode="normal" in2="shape" result="effect1_innerShadow_109_180"/>
</filter>
<filter id="filter11_f_109_180" x="-31.3933" y="17.397" width="190.005" height="104.213" filterUnits="userSpaceOnUse" color-interpolation-filters="sRGB">
<feFlood flood-opacity="0" result="BackgroundImageFix"/>
<feBlend mode="normal" in="SourceGraphic" in2="BackgroundImageFix" result="shape"/>
<feGaussianBlur stdDeviation="0.5" result="effect1_foregroundBlur_109_180"/>
</filter>
<filter id="filter12_b_109_180" x="33.451" y="74.9393" width="35.9453" height="33.9583" filterUnits="userSpaceOnUse" color-interpolation-filters="sRGB">
<feFlood flood-opacity="0" result="BackgroundImageFix"/>
<feGaussianBlur in="BackgroundImageFix" stdDeviation="2"/>
<feComposite in2="SourceAlpha" operator="in" result="effect1_backgroundBlur_109_180"/>
<feBlend mode="normal" in="SourceGraphic" in2="effect1_backgroundBlur_109_180" result="shape"/>
</filter>
<filter id="filter13_i_109_180" x="38.0043" y="79.97" width="21.887" height="19.6343" filterUnits="userSpaceOnUse" color-interpolation-filters="sRGB">
<feFlood flood-opacity="0" result="BackgroundImageFix"/>
<feBlend mode="normal" in="SourceGraphic" in2="BackgroundImageFix" result="shape"/>
<feColorMatrix in="SourceAlpha" type="matrix" values="0 0 0 0 0 0 0 0 0 0 0 0 0 0 0 0 0 0 127 0" result="hardAlpha"/>
<feOffset dx="-1" dy="-0.5"/>
<feGaussianBlur stdDeviation="2.5"/>
<feComposite in2="hardAlpha" operator="arithmetic" k2="-1" k3="1"/>
<feColorMatrix type="matrix" values="0 0 0 0 0 0 0 0 0 0 0 0 0 0 0 0 0 0 0.15 0"/>
<feBlend mode="normal" in2="shape" result="effect1_innerShadow_109_180"/>
</filter>
<filter id="filter14_b_109_180" x="108.009" y="14.397" width="37.1384" height="30.7025" filterUnits="userSpaceOnUse" color-interpolation-filters="sRGB">
<feFlood flood-opacity="0" result="BackgroundImageFix"/>
<feGaussianBlur in="BackgroundImageFix" stdDeviation="2"/>
<feComposite in2="SourceAlpha" operator="in" result="effect1_backgroundBlur_109_180"/>
<feBlend mode="normal" in="SourceGraphic" in2="effect1_backgroundBlur_109_180" result="shape"/>
</filter>
<filter id="filter15_i_109_180" x="114.348" y="23.537" width="23.4676" height="15.9896" filterUnits="userSpaceOnUse" color-interpolation-filters="sRGB">
<feFlood flood-opacity="0" result="BackgroundImageFix"/>
<feBlend mode="normal" in="SourceGraphic" in2="BackgroundImageFix" result="shape"/>
<feColorMatrix in="SourceAlpha" type="matrix" values="0 0 0 0 0 0 0 0 0 0 0 0 0 0 0 0 0 0 127 0" result="hardAlpha"/>
<feOffset dx="-1" dy="-0.5"/>
<feGaussianBlur stdDeviation="2.5"/>
<feComposite in2="hardAlpha" operator="arithmetic" k2="-1" k3="1"/>
<feColorMatrix type="matrix" values="0 0 0 0 0 0 0 0 0 0 0 0 0 0 0 0 0 0 0.15 0"/>
<feBlend mode="normal" in2="shape" result="effect1_innerShadow_109_180"/>
</filter>
<filter id="filter16_d_109_180" x="-130.45" y="-18" width="321.113" height="170.469" filterUnits="userSpaceOnUse" color-interpolation-filters="sRGB">
<feFlood flood-opacity="0" result="BackgroundImageFix"/>
<feColorMatrix in="SourceAlpha" type="matrix" values="0 0 0 0 0 0 0 0 0 0 0 0 0 0 0 0 0 0 127 0" result="hardAlpha"/>
<feOffset dy="2"/>
<feGaussianBlur stdDeviation="2.5"/>
<feComposite in2="hardAlpha" operator="out"/>
<feColorMatrix type="matrix" values="0 0 0 0 0 0 0 0 0 0 0 0 0 0 0 0 0 0 0.4 0"/>
<feBlend mode="normal" in2="BackgroundImageFix" result="effect1_dropShadow_109_180"/>
<feBlend mode="normal" in="SourceGraphic" in2="effect1_dropShadow_109_180" result="shape"/>
</filter>
<filter id="filter17_i_109_180" x="77.283" y="9.01231" width="34.0479" height="37.5686" filterUnits="userSpaceOnUse" color-interpolation-filters="sRGB">
<feFlood flood-opacity="0" result="BackgroundImageFix"/>
<feBlend mode="normal" in="SourceGraphic" in2="BackgroundImageFix" result="shape"/>
<feColorMatrix in="SourceAlpha" type="matrix" values="0 0 0 0 0 0 0 0 0 0 0 0 0 0 0 0 0 0 127 0" result="hardAlpha"/>
<feOffset dx="-1" dy="-0.5"/>
<feGaussianBlur stdDeviation="2.5"/>
<feComposite in2="hardAlpha" operator="arithmetic" k2="-1" k3="1"/>
<feColorMatrix type="matrix" values="0 0 0 0 0 0 0 0 0 0 0 0 0 0 0 0 0 0 0.15 0"/>
<feBlend mode="normal" in2="shape" result="effect1_innerShadow_109_180"/>
</filter>
<filter id="filter18_i_109_180" x="26.4409" y="49.53" width="23.9744" height="31.1764" filterUnits="userSpaceOnUse" color-interpolation-filters="sRGB">
<feFlood flood-opacity="0" result="BackgroundImageFix"/>
<feBlend mode="normal" in="SourceGraphic" in2="BackgroundImageFix" result="shape"/>
<feColorMatrix in="SourceAlpha" type="matrix" values="0 0 0 0 0 0 0 0 0 0 0 0 0 0 0 0 0 0 127 0" result="hardAlpha"/>
<feOffset dx="-1" dy="-0.5"/>
<feGaussianBlur stdDeviation="2.5"/>
<feComposite in2="hardAlpha" operator="arithmetic" k2="-1" k3="1"/>
<feColorMatrix type="matrix" values="0 0 0 0 0 0 0 0 0 0 0 0 0 0 0 0 0 0 0.15 0"/>
<feBlend mode="normal" in2="shape" result="effect1_innerShadow_109_180"/>
</filter>
<filter id="filter19_i_109_180" x="8.85056" y="-3.36604" width="14.2606" height="13.8786" filterUnits="userSpaceOnUse" color-interpolation-filters="sRGB">
<feFlood flood-opacity="0" result="BackgroundImageFix"/>
<feBlend mode="normal" in="SourceGraphic" in2="BackgroundImageFix" result="shape"/>
<feColorMatrix in="SourceAlpha" type="matrix" values="0 0 0 0 0 0 0 0 0 0 0 0 0 0 0 0 0 0 127 0" result="hardAlpha"/>
<feOffset dx="-1" dy="-0.5"/>
<feGaussianBlur stdDeviation="2.5"/>
<feComposite in2="hardAlpha" operator="arithmetic" k2="-1" k3="1"/>
<feColorMatrix type="matrix" values="0 0 0 0 0 0 0 0 0 0 0 0 0 0 0 0 0 0 0.15 0"/>
<feBlend mode="normal" in2="shape" result="effect1_innerShadow_109_180"/>
</filter>
<clipPath id="clip0_109_180">
<rect width="121" height="121" fill="white"/>
</clipPath>
</defs>
</svg>
