<svg width="500" height="300" viewBox="0 0 500 300" fill="none" xmlns="http://www.w3.org/2000/svg">
<g clip-path="url(#clip0_113_3)">
<path d="M444.5 182.5C499.608 341.909 296.026 351.714 216.287 360C60.9199 360 4.92864 299.5 0.558938 234.132C-6.79943 124.055 58.7893 45 179.99 45C332.538 45 413.182 91.909 444.5 182.5Z" fill="#63A3B6" fill-opacity="0.6"/>
<g opacity="0.95">
<path d="M218.496 183.365C222.582 181.536 227.246 183.074 228.914 186.801C230.582 190.527 228.566 193.065 223.793 195.201C219.021 197.337 215.37 196.217 214.119 193.423C212.451 189.697 214.411 185.193 218.496 183.365Z" fill="#E25F71" fill-opacity="0.7"/>
<g filter="url(#filter0_i_113_3)">
<path d="M218.821 183.806C221.515 182.6 225.821 183.09 226.933 185.574C228.342 188.723 227.167 189.919 223.203 191.693C220.508 192.899 217.355 193.454 215.845 190.08C214.335 186.706 216.127 185.012 218.821 183.806Z" fill="#D84557" fill-opacity="0.5"/>
</g>
<path d="M198.519 97.8405C191.85 101.411 183.803 99.374 180.546 93.2907C177.29 87.2074 180.386 82.6882 188.177 78.5172C195.968 74.3462 202.257 75.8002 204.698 80.3608C207.955 86.444 205.189 94.27 198.519 97.8405Z" fill="#E25F71" fill-opacity="0.7"/>
<g filter="url(#filter1_i_113_3)">
<path d="M197.919 97.1356C193.521 99.4904 186.204 99.1775 184.033 95.122C181.281 89.9818 183.12 87.8251 189.591 84.3608C193.99 82.0061 199.24 80.6952 202.188 86.2025C205.137 91.7099 202.318 94.7809 197.919 97.1356Z" fill="#D84557" fill-opacity="0.5"/>
</g>
<path d="M285.686 115.316C292.693 112.463 300.482 115.33 303.084 121.721C305.687 128.112 302.134 132.282 293.95 135.615C285.765 138.948 279.663 136.844 277.712 132.053C275.11 125.663 278.68 118.169 285.686 115.316Z" fill="#E25F71" fill-opacity="0.7"/>
<g filter="url(#filter2_i_113_3)">
<path d="M286.209 116.08C290.83 114.198 298.074 115.275 299.809 119.535C302.008 124.935 299.953 126.887 293.155 129.656C288.534 131.537 283.176 132.292 280.82 126.506C278.464 120.72 281.589 117.961 286.209 116.08Z" fill="#D84557" fill-opacity="0.5"/>
</g>
<path d="M237.112 173.76C233.285 169.625 229.478 165.145 233.468 160.078C236.558 156.152 242.381 156.481 247.55 161.772C252.72 167.062 250.79 173.593 247.854 175.486C242.82 178.731 240.938 177.895 237.112 173.76Z" fill="#E25F71" fill-opacity="0.7"/>
<g filter="url(#filter3_i_113_3)">
<path d="M244.359 164.412C246.894 167.159 248.149 172.424 245.749 174.638C241.404 178.648 240.426 174.95 236.698 170.909C234.163 168.163 231.076 166.064 234.336 163.057C237.595 160.05 241.825 161.665 244.359 164.412Z" fill="#D84557" fill-opacity="0.5"/>
</g>
<path d="M245.12 26.1884C254.635 24.9368 264.61 24.0516 267.729 34.5841C270.145 42.7432 263.958 50.5148 251.515 52.4965C239.072 54.4781 231.891 45.3695 232.149 39.4251C232.592 29.2335 235.605 27.44 245.12 26.1884Z" fill="#E25F71" fill-opacity="0.7"/>
<g filter="url(#filter4_i_113_3)">
<path d="M250.984 45.4622C244.672 46.2828 236.115 42.8483 235.399 37.333C234.101 27.3465 240.204 29.6246 249.491 28.4174C255.804 27.5968 261.76 25.3698 262.733 32.8597C263.706 40.3495 257.297 44.6416 250.984 45.4622Z" fill="#D84557" fill-opacity="0.5"/>
</g>
<path d="M171.75 132.102C164.499 132.64 156.923 132.896 155.161 125.157C153.795 119.163 158.901 113.78 168.402 112.827C177.902 111.874 182.81 118.739 182.281 123.028C181.375 130.382 179 131.563 171.75 132.102Z" fill="#E25F71" fill-opacity="0.7"/>
<g filter="url(#filter5_i_113_3)">
<path d="M168.407 117.935C173.217 117.585 179.48 120.399 179.712 124.416C180.13 131.689 175.653 129.806 168.577 130.321C163.767 130.671 159.148 132.052 158.834 126.597C158.52 121.142 163.597 118.285 168.407 117.935Z" fill="#D84557" fill-opacity="0.5"/>
</g>
<path d="M263.501 111.687C263.781 112.614 263.044 113.533 262.079 113.462V113.462C261.204 113.398 260.492 114.156 260.611 115.025V115.025C260.742 115.984 259.871 116.777 258.929 116.556V116.556C258.075 116.356 257.253 116.993 257.234 117.871V117.871C257.214 118.838 256.23 119.485 255.334 119.119V119.119C254.521 118.788 253.61 119.289 253.454 120.152V120.152C253.283 121.105 252.21 121.59 251.382 121.088V121.088C250.631 120.634 249.652 120.986 249.364 121.815V121.815C249.046 122.729 247.91 123.04 247.17 122.415V122.415C246.5 121.849 245.478 122.044 245.064 122.817V122.817C244.607 123.67 243.436 123.8 242.803 123.067V123.067C242.23 122.402 241.19 122.435 240.66 123.134V123.134C240.075 123.905 238.898 123.85 238.388 123.027V123.027C237.926 122.281 236.894 122.151 236.26 122.759V122.759C235.562 123.429 234.408 123.19 234.033 122.298V122.298C233.693 121.489 232.694 121.198 231.974 121.699V121.699C231.179 122.252 230.077 121.836 229.847 120.896V120.896C229.637 120.043 228.696 119.6 227.906 119.983V119.983C227.035 120.404 226.011 119.82 225.931 118.856V118.856C225.857 117.981 224.997 117.397 224.157 117.651V117.651C223.23 117.93 222.311 117.194 222.382 116.229V116.229C222.446 115.353 221.688 114.641 220.818 114.761V114.761C219.859 114.892 219.067 114.021 219.288 113.079V113.079C219.488 112.224 218.851 111.402 217.973 111.384V111.384C217.005 111.364 216.359 110.38 216.724 109.483V109.483C217.056 108.671 216.555 107.759 215.691 107.604V107.604C214.739 107.433 214.254 106.359 214.755 105.532V105.532C215.21 104.781 214.857 103.802 214.029 103.514V103.514C213.114 103.196 212.804 102.059 213.428 101.32V101.32C213.995 100.65 213.8 99.6281 213.027 99.2136V99.2136C212.173 98.7564 212.044 97.5856 212.777 96.9532V96.9532C213.441 96.3798 213.408 95.3401 212.709 94.8096V94.8096C211.938 94.2245 211.994 93.0479 212.816 92.5379V92.5379C213.562 92.0756 213.693 91.0435 213.085 90.4102V90.4102C212.415 89.7117 212.654 88.5583 213.546 88.1833V88.1833C214.355 87.8433 214.645 86.8443 214.144 86.1238V86.1238C213.592 85.329 214.008 84.2272 214.948 83.9964V83.9964C215.8 83.7871 216.243 82.8458 215.861 82.0558V82.0558C215.44 81.1844 216.023 80.1612 216.988 80.0803V80.0803C217.862 80.007 218.447 79.1466 218.193 78.3065V78.3065C217.913 77.3799 218.65 76.4606 219.615 76.5316V76.5316C220.49 76.5959 221.202 75.8376 221.083 74.9682V74.9682C220.951 74.0092 221.823 73.2164 222.765 73.4375V73.4375C223.619 73.638 224.441 73.0004 224.459 72.123V72.123C224.48 71.1552 225.464 70.5085 226.36 70.8743V70.8743C227.173 71.206 228.084 70.7048 228.239 69.841V69.841C228.411 68.8883 229.484 68.4036 230.312 68.9051V68.9051C231.063 69.3597 232.041 69.0073 232.33 68.1785V68.1785C232.648 67.2643 233.784 66.9534 234.523 67.5783V67.5783C235.194 68.1448 236.216 67.9498 236.63 67.1763V67.1763C237.087 66.3232 238.258 66.1939 238.891 66.9267V66.9267C239.464 67.591 240.504 67.5583 241.034 66.8592V66.8592C241.619 66.0881 242.796 66.1435 243.306 66.9662V66.9662C243.768 67.7121 244.8 67.8424 245.433 67.2349V67.2349C246.132 66.5648 247.285 66.8036 247.66 67.696V67.696C248 68.505 248.999 68.7951 249.72 68.2942V68.2942C250.515 67.7416 251.617 68.1579 251.847 69.0979V69.0979C252.057 69.9502 252.998 70.3931 253.788 70.011V70.011C254.659 69.5895 255.682 70.173 255.763 71.1376V71.1376C255.837 72.0121 256.697 72.5968 257.537 72.343V72.343C258.464 72.063 259.383 72.7995 259.312 73.7648V73.7648C259.248 74.64 260.006 75.3521 260.876 75.2328V75.2328C261.835 75.1013 262.627 75.9724 262.406 76.9148V76.9148C262.206 77.7692 262.843 78.5911 263.721 78.6093V78.6093C264.688 78.6294 265.335 79.6139 264.969 80.51V80.51C264.638 81.3225 265.139 82.2341 266.003 82.3893V82.3893C266.955 82.5605 267.44 83.634 266.939 84.462V84.462C266.484 85.2126 266.836 86.1913 267.665 86.4797V86.4797C268.579 86.7979 268.89 87.934 268.265 88.6733V88.6733C267.699 89.3435 267.894 90.3654 268.667 90.7799V90.7799C269.521 91.2372 269.65 92.4079 268.917 93.0404V93.0404C268.253 93.6137 268.285 94.6535 268.984 95.1839V95.1839C269.756 95.769 269.7 96.9456 268.877 97.4556V97.4556C268.132 97.9179 268.001 98.95 268.609 99.5833V99.5833C269.279 100.282 269.04 101.435 268.148 101.81V101.81C267.339 102.15 267.049 103.149 267.55 103.87V103.87C268.102 104.664 267.686 105.766 266.746 105.997V105.997C265.894 106.206 265.451 107.148 265.833 107.938V107.938C266.254 108.809 265.671 109.832 264.706 109.913V109.913C263.832 109.987 263.247 110.847 263.501 111.687V111.687Z" fill="#F2F2F2"/>
<path d="M237.972 100.065C230.273 93.8969 222.954 90.8795 231.248 80.5259C237.415 72.8267 248.657 71.5851 256.356 77.7527C264.055 83.9203 265.297 95.1616 259.129 102.861C251.371 112.545 245.671 106.232 237.972 100.065Z" fill="#D9D9D9" fill-opacity="0.75"/>
<path d="M142.464 23.8306C143.429 23.9106 144.013 24.9333 143.593 25.8051V25.8051C143.211 26.5954 143.655 27.5363 144.508 27.7448V27.7448C145.448 27.9748 145.865 29.0762 145.313 29.8715V29.8715C144.813 30.5925 145.104 31.5912 145.913 31.9304V31.9304C146.806 32.3046 147.046 33.4579 146.376 34.157V34.157C145.769 34.7908 145.901 35.8227 146.647 36.2844V36.2844C147.47 36.7937 147.527 37.9702 146.756 38.556V38.556C146.057 39.0871 146.026 40.1269 146.69 40.6996V40.6996C147.424 41.3314 147.296 42.5023 146.443 42.9603V42.9603C145.67 43.3755 145.476 44.3975 146.043 45.0672V45.0672C146.668 45.806 146.358 46.9424 145.445 47.2614V47.2614C144.616 47.5505 144.264 48.5296 144.72 49.2798V49.2798C145.222 50.1073 144.738 51.1812 143.786 51.3533V51.3533C142.922 51.5093 142.422 52.4213 142.754 53.2335V53.2335C143.121 54.1293 142.475 55.1144 141.507 55.1353V55.1353C140.63 55.1543 139.993 55.9768 140.194 56.831V56.831C140.416 57.7732 139.624 58.6451 138.665 58.5144V58.5144C137.795 58.3959 137.038 59.1086 137.103 59.9838V59.9838C137.175 60.9491 136.256 61.6863 135.329 61.4072V61.4072C134.489 61.1542 133.629 61.7396 133.557 62.6142V62.6142C133.476 63.5788 132.454 64.1633 131.582 63.7426V63.7426C130.792 63.3612 129.851 63.805 129.642 64.6574V64.6574C129.412 65.5977 128.311 66.0149 127.516 65.4631V65.4631C126.795 64.9627 125.796 65.2538 125.457 66.0631V66.0631C125.082 66.9559 123.929 67.1957 123.23 66.5262V66.5262C122.596 65.9193 121.564 66.0505 121.103 66.7968V66.7968C120.593 67.62 119.417 67.6765 118.831 66.9059V66.9059C118.3 66.2072 117.26 66.1754 116.688 66.8403V66.8403C116.056 67.5737 114.885 67.4454 114.427 66.5927V66.5927C114.012 65.8196 112.99 65.6255 112.32 66.1926V66.1926C111.581 66.8181 110.445 66.5083 110.126 65.5944V65.5944C109.837 64.7658 108.858 64.4143 108.107 64.8696V64.8696C107.28 65.3719 106.206 64.8881 106.034 63.9355V63.9355C105.878 63.0719 104.966 62.5716 104.154 62.9039V62.9039C103.258 63.2706 102.273 62.6247 102.252 61.657V61.657C102.233 60.7796 101.41 60.1427 100.556 60.344V60.344C99.6139 60.5659 98.742 59.774 98.8727 58.8148V58.8148C98.9912 57.9453 98.2785 57.1876 97.4033 57.2527V57.2527C96.438 57.3246 95.7008 56.406 95.9799 55.4791V55.4791C96.233 54.6388 95.6475 53.7789 94.773 53.7064V53.7064C93.8083 53.6263 93.2238 52.6037 93.6445 51.7319V51.7319C94.0259 50.9415 93.5822 50.0006 92.7297 49.7922V49.7922C91.7895 49.5622 91.3722 48.4607 91.9241 47.6655V47.6655C92.4244 46.9445 92.1333 45.9458 91.324 45.6065V45.6065C90.4313 45.2323 90.1914 44.0791 90.8609 43.38V43.38C91.4679 42.7462 91.3366 41.7142 90.5903 41.2525V41.2525C89.7671 40.7432 89.7107 39.5667 90.4813 38.9809V38.9809C91.1799 38.4499 91.2117 37.4101 90.5468 36.8373V36.8373C89.8134 36.2056 89.9417 35.0347 90.7944 34.5767V34.5767C91.5676 34.1614 91.7616 33.1394 91.1945 32.4697V32.4697C90.569 31.731 90.8788 30.5946 91.7928 30.2756V30.2756C92.6213 29.9864 92.9728 29.0074 92.5175 28.2572V28.2572C92.0152 27.4297 92.499 26.3558 93.4516 26.1837V26.1837C94.3152 26.0277 94.8156 25.1156 94.4832 24.3035V24.3035C94.1165 23.4076 94.7624 22.4226 95.7301 22.4016V22.4016C96.6075 22.3826 97.2444 21.5601 97.0431 20.7059V20.7059C96.8212 19.7638 97.6132 18.8919 98.5723 19.0226V19.0226C99.4418 19.1411 100.2 18.4283 100.134 17.5532V17.5532C100.063 16.5879 100.981 15.8506 101.908 16.1297V16.1297C102.748 16.3828 103.608 15.7973 103.681 14.9228V14.9228C103.761 13.9581 104.783 13.3737 105.655 13.7943V13.7943C106.446 14.1757 107.386 13.732 107.595 12.8796V12.8796C107.825 11.9393 108.926 11.522 109.722 12.0739V12.0739C110.443 12.5742 111.441 12.2831 111.781 11.4738V11.4738C112.155 10.5811 113.308 10.3413 114.007 11.0107V11.0107C114.641 11.6177 115.673 11.4864 116.135 10.7402V10.7402C116.644 9.91697 117.82 9.86048 118.406 10.6311V10.6311C118.937 11.3297 119.977 11.3615 120.55 10.6966V10.6966C121.182 9.96326 122.352 10.0915 122.81 10.9443V10.9443C123.226 11.7174 124.248 11.9114 124.917 11.3443V11.3443C125.656 10.7188 126.793 11.0287 127.112 11.9426V11.9426C127.401 12.7711 128.38 13.1227 129.13 12.6673V12.6673C129.957 12.1651 131.031 12.6489 131.203 13.6014V13.6014C131.359 14.465 132.271 14.9654 133.084 14.633V14.633C133.98 14.2664 134.965 14.9122 134.986 15.88V15.88C135.005 16.7573 135.827 17.3942 136.681 17.193V17.193C137.623 16.971 138.495 17.763 138.365 18.7221V18.7221C138.246 19.5916 138.959 20.3494 139.834 20.2842V20.2842C140.799 20.2124 141.537 21.131 141.257 22.0579V22.0579C141.004 22.8981 141.59 23.758 142.464 23.8306V23.8306Z" fill="white" fill-opacity="0.77"/>
<path d="M122.276 43.3041C113.711 48.1991 108.216 53.8977 101.633 42.3801C96.7382 33.8152 99.7133 22.9038 108.278 18.0089C116.843 13.1139 127.754 16.089 132.649 24.6538C138.807 35.4272 130.841 38.4092 122.276 43.3041Z" fill="#D9D9D9"/>
<path d="M59.3846 86.889C58.9346 86.3616 59.1449 85.5474 59.7941 85.3039V85.3039C60.3819 85.0835 60.6204 84.377 60.2929 83.8413V83.8413C59.9326 83.252 60.2637 82.4778 60.9407 82.3405V82.3405C61.5542 82.2161 61.902 81.563 61.6628 80.9845L61.6523 80.959C61.3893 80.3231 61.8394 79.6195 62.527 79.5915V79.5915C63.1505 79.5662 63.5954 78.9772 63.4493 78.3705L63.44 78.332C63.2795 77.6653 63.833 77.043 64.5138 77.1247V77.1247C65.1317 77.1988 65.6623 76.6879 65.6117 76.0677L65.6079 76.0201C65.5523 75.3387 66.1953 74.8121 66.8525 75.0008V75.0008C67.4491 75.1721 68.0524 74.7513 68.0977 74.1322L68.1014 74.0811C68.1512 73.4007 68.8679 72.9817 69.4853 73.2722V73.2722C70.046 73.5361 70.7073 73.2151 70.8468 72.6112L70.8579 72.5629C71.0113 71.8988 71.7848 71.597 72.3474 71.9817V71.9817C72.8586 72.3313 73.5621 72.1174 73.7923 71.5425L73.8084 71.5024C74.0618 70.8696 74.8737 70.6919 75.3683 71.161V71.161C75.8178 71.5873 76.5467 71.4858 76.8626 70.9529L76.8792 70.9249C77.2272 70.3378 78.0586 70.2885 78.4736 70.8305V70.8305C78.8506 71.3228 79.5932 71.3296 79.9878 70.8512V70.8512C80.4232 70.3235 81.2609 70.3964 81.5866 70.9981V70.9981C81.8823 71.5445 82.6111 71.6719 83.0759 71.2597V71.2597C83.5894 70.8043 84.4025 71.0143 84.6312 71.6614V71.6614C84.8382 72.2472 85.5375 72.4887 86.0609 72.1539V72.1539C86.6372 71.7852 87.4054 72.127 87.5308 72.7996V72.7996C87.6444 73.4093 88.2974 73.763 88.8657 73.5148V73.5148C89.4912 73.2416 90.1947 73.6874 90.2149 74.3697L90.2158 74.4022C90.2341 75.0213 90.8227 75.4632 91.4223 75.3079V75.3079C92.0823 75.137 92.7066 75.6857 92.6218 76.3621L92.6164 76.4049C92.5395 77.0194 93.0513 77.5472 93.6679 77.4889V77.4889C94.3465 77.4249 94.877 78.0635 94.6896 78.7188L94.6759 78.7665C94.5055 79.3624 94.9286 79.9635 95.547 80.0042V80.0042C96.2278 80.0489 96.652 80.7626 96.366 81.3821L96.3445 81.4285C96.0843 81.9921 96.4083 82.6525 97.0133 82.7915V82.7915C97.6796 82.9447 97.9872 83.7168 97.6085 84.2861L97.5821 84.3259C97.2375 84.844 97.4543 85.5479 98.0308 85.7823V85.7823C98.666 86.0406 98.8489 86.8531 98.3856 87.3587L98.3588 87.3879C97.9372 87.848 98.0411 88.5786 98.5744 88.9028V88.9028C99.1624 89.2603 99.2154 90.0938 98.6774 90.5229L98.6558 90.5401C98.1664 90.9304 98.1544 91.6702 98.6309 92.0761V92.0761C99.1567 92.5241 99.0715 93.3618 98.4708 93.703V93.703C97.9248 94.013 97.7913 94.7466 98.1989 95.2242V95.2242C98.649 95.7516 98.4386 96.5658 97.7895 96.8092V96.8092C97.2016 97.0297 96.9631 97.7361 97.2906 98.2718V98.2718C97.651 98.8612 97.3198 99.6353 96.6428 99.7726V99.7726C96.0293 99.8971 95.6816 100.55 95.9207 101.129L95.9313 101.154C96.1942 101.79 95.7442 102.494 95.0566 102.522V102.522C94.433 102.547 93.9882 103.136 94.1343 103.743L94.1435 103.781C94.304 104.448 93.7505 105.07 93.0697 104.988V104.988C92.4519 104.914 91.9212 105.425 91.9718 106.045L91.9757 106.093C92.0312 106.774 91.3882 107.301 90.7311 107.112V107.112C90.1344 106.941 89.5311 107.362 89.4859 107.981L89.4821 108.032C89.4324 108.712 88.7156 109.131 88.0983 108.841V108.841C87.5375 108.577 86.8762 108.898 86.7368 109.502L86.7256 109.55C86.5722 110.214 85.7988 110.516 85.2361 110.131V110.131C84.7249 109.782 84.0215 109.996 83.7912 110.571L83.7752 110.611C83.5217 111.244 82.7098 111.421 82.2152 110.952V110.952C81.7658 110.526 81.0368 110.627 80.721 111.16L80.7044 111.188C80.3563 111.775 79.525 111.825 79.11 111.283V111.283C78.7329 110.79 77.9904 110.784 77.5957 111.262V111.262C77.1603 111.79 76.3226 111.717 75.997 111.115V111.115C75.7012 110.569 74.9725 110.441 74.5076 110.853V110.853C73.9941 111.309 73.1811 111.099 72.9523 110.452V110.452C72.7453 109.866 72.046 109.624 71.5226 109.959V109.959C70.9463 110.328 70.1781 109.986 70.0527 109.314V109.314C69.9391 108.704 69.2862 108.35 68.7179 108.598V108.598C68.0923 108.872 67.3888 108.426 67.3687 107.744L67.3677 107.711C67.3494 107.092 66.7608 106.65 66.1612 106.805V106.805C65.5012 106.976 64.877 106.427 64.9617 105.751L64.9671 105.708C65.0441 105.094 64.5322 104.566 63.9156 104.624V104.624C63.237 104.688 62.7065 104.05 62.894 103.394L62.9076 103.347C63.078 102.751 62.655 102.15 62.0365 102.109V102.109C61.3557 102.064 60.9315 101.351 61.2175 100.731L61.239 100.685C61.4992 100.121 61.1752 99.4607 60.5702 99.3216V99.3216C59.9039 99.1685 59.5964 98.3963 59.975 97.827L60.0014 97.7873C60.346 97.2691 60.1292 96.5652 59.5527 96.3308V96.3308C58.9175 96.0725 58.7346 95.26 59.198 94.7545L59.2247 94.7253C59.6464 94.2652 59.5424 93.5345 59.0091 93.2103V93.2103C58.4211 92.8529 58.3681 92.0193 58.9061 91.5903L58.9277 91.5731C59.4171 91.1828 59.4291 90.443 58.9527 90.037V90.037C58.4268 89.589 58.512 88.7513 59.1127 88.4102V88.4102C59.6587 88.1001 59.7922 87.3666 59.3846 86.889V86.889Z" fill="#FAFAFA" fill-opacity="0.5"/>
<path d="M79.5557 84.3672C86.2933 86.1076 90.911 90.7872 89.1348 97.6635C87.3586 104.54 80.4567 108.703 73.7191 106.963C66.9814 105.223 62.9594 98.2373 64.7356 91.361C66.5118 84.4847 72.8181 82.6269 79.5557 84.3672Z" fill="#FAFAFA" fill-opacity="0.75"/>
<path d="M295.381 163.145C295.713 163.51 295.576 164.096 295.115 164.275V164.275C294.697 164.438 294.536 164.943 294.781 165.318V165.318C295.053 165.731 294.825 166.288 294.342 166.393V166.393C293.904 166.488 293.665 166.962 293.85 167.371V167.371C294.053 167.821 293.741 168.335 293.248 168.364V168.364C292.8 168.389 292.49 168.82 292.608 169.252V169.252C292.738 169.729 292.35 170.188 291.858 170.139V170.139C291.413 170.094 291.039 170.471 291.088 170.917V170.917C291.142 171.408 290.686 171.801 290.208 171.675V171.675C289.775 171.561 289.347 171.875 289.326 172.323V172.323C289.302 172.816 288.791 173.133 288.338 172.934V172.934C287.928 172.753 287.456 172.997 287.365 173.436V173.436C287.265 173.919 286.71 174.152 286.295 173.885V173.885C285.918 173.643 285.413 173.809 285.255 174.228V174.228C285.08 174.69 284.496 174.833 284.127 174.504V174.504C283.793 174.206 283.269 174.292 283.046 174.681V174.681C282.801 175.11 282.202 175.16 281.889 174.777V174.777C281.606 174.43 281.075 174.433 280.794 174.782V174.782C280.485 175.168 279.886 175.124 279.637 174.697V174.697C279.411 174.31 278.886 174.229 278.554 174.531V174.531C278.189 174.863 277.603 174.725 277.424 174.265V174.265C277.262 173.847 276.756 173.685 276.381 173.931V173.931C275.968 174.202 275.411 173.975 275.306 173.492V173.492C275.211 173.054 274.737 172.815 274.328 173V173C273.878 173.203 273.364 172.891 273.336 172.397V172.397C273.31 171.95 272.879 171.64 272.447 171.758V171.758C271.97 171.888 271.511 171.5 271.56 171.008V171.008C271.605 170.562 271.228 170.189 270.782 170.238V170.238C270.291 170.292 269.899 169.836 270.024 169.358V169.358C270.138 168.925 269.824 168.497 269.377 168.475V168.475C268.883 168.452 268.566 167.941 268.765 167.488V167.488C268.946 167.078 268.702 166.606 268.264 166.515V166.515C267.78 166.415 267.547 165.86 267.814 165.444V165.444C268.057 165.068 267.89 164.563 267.471 164.405V164.405C267.009 164.23 266.866 163.646 267.195 163.277V163.277C267.493 162.943 267.407 162.418 267.018 162.196V162.196C266.589 161.951 266.539 161.352 266.922 161.039V161.039C267.269 160.756 267.266 160.225 266.917 159.944V159.944C266.531 159.635 266.575 159.035 267.002 158.786V158.786C267.389 158.561 267.47 158.036 267.169 157.704V157.704C266.836 157.338 266.974 156.753 267.434 156.574V156.574C267.852 156.411 268.014 155.905 267.768 155.531V155.531C267.497 155.118 267.724 154.561 268.207 154.456V154.456C268.645 154.361 268.884 153.887 268.7 153.478V153.478C268.496 153.028 268.808 152.514 269.302 152.485V152.485C269.749 152.46 270.059 152.029 269.941 151.597V151.597C269.811 151.12 270.199 150.661 270.691 150.71V150.71C271.137 150.755 271.511 150.378 271.462 149.932V149.932C271.408 149.441 271.863 149.048 272.341 149.174V149.174C272.774 149.288 273.202 148.974 273.224 148.526V148.526C273.247 148.033 273.758 147.716 274.211 147.915V147.915C274.621 148.095 275.093 147.852 275.184 147.413V147.413C275.285 146.93 275.839 146.697 276.255 146.964V146.964C276.632 147.206 277.136 147.04 277.294 146.621V146.621C277.469 146.159 278.053 146.015 278.422 146.344V146.344C278.757 146.643 279.281 146.557 279.503 146.168V146.168C279.748 145.739 280.347 145.689 280.66 146.072V146.072C280.943 146.419 281.475 146.416 281.755 146.066V146.066C282.064 145.681 282.664 145.725 282.913 146.152V146.152C283.139 146.539 283.664 146.62 283.995 146.318V146.318C284.361 145.986 284.946 146.124 285.125 146.584V146.584C285.288 147.002 285.794 147.163 286.168 146.918V146.918C286.581 146.646 287.138 146.874 287.243 147.357V147.357C287.338 147.795 287.812 148.034 288.221 147.849V147.849C288.671 147.646 289.186 147.958 289.214 148.451V148.451C289.239 148.899 289.67 149.209 290.103 149.091V149.091C290.579 148.961 291.038 149.349 290.989 149.841V149.841C290.944 150.287 291.321 150.66 291.767 150.611V150.611C292.258 150.557 292.651 151.013 292.525 151.491V151.491C292.411 151.924 292.725 152.352 293.173 152.374V152.374C293.666 152.397 293.983 152.908 293.784 153.361V153.361C293.604 153.771 293.847 154.243 294.286 154.334V154.334C294.77 154.434 295.002 154.989 294.735 155.405V155.405C294.493 155.781 294.659 156.286 295.078 156.444V156.444C295.541 156.619 295.684 157.203 295.355 157.572V157.572C295.056 157.906 295.142 158.431 295.531 158.653V158.653C295.96 158.898 296.01 159.497 295.627 159.81V159.81C295.281 160.093 295.283 160.624 295.633 160.905V160.905C296.018 161.214 295.974 161.814 295.547 162.063V162.063C295.16 162.288 295.079 162.813 295.381 163.145V163.145Z" fill="#63A3B6" fill-opacity="0.5"/>
<path d="M279.451 156.963C286.512 157.251 288.626 159.985 288.441 164.518C288.256 169.05 282.576 172.044 278.135 171.863C273.695 171.681 270.246 167.86 270.431 163.327C270.616 158.795 272.39 156.674 279.451 156.963Z" fill="#63A3B6" fill-opacity="0.75"/>
<path d="M189.783 124.157C189.883 123.559 190.552 123.248 191.074 123.556V123.556C191.547 123.835 192.157 123.608 192.331 123.087V123.087C192.524 122.512 193.232 122.31 193.7 122.695V122.695C194.123 123.045 194.761 122.916 195.015 122.429V122.429C195.295 121.891 196.027 121.802 196.428 122.256V122.256C196.792 122.668 197.442 122.64 197.769 122.198V122.198C198.13 121.711 198.866 121.738 199.192 122.249V122.249C199.486 122.712 200.133 122.786 200.525 122.402V122.402C200.958 121.977 201.681 122.118 201.922 122.674V122.674C202.141 123.178 202.768 123.352 203.216 123.034V123.034C203.709 122.682 204.402 122.935 204.553 123.521V123.521C204.69 124.053 205.282 124.324 205.774 124.079V124.079C206.316 123.809 206.961 124.166 207.018 124.77V124.77C207.071 125.316 207.613 125.676 208.137 125.511V125.511C208.715 125.329 209.296 125.783 209.258 126.388V126.388C209.224 126.936 209.704 127.377 210.247 127.296V127.296C210.847 127.206 211.349 127.746 211.218 128.337V128.337C211.098 128.873 211.503 129.383 212.052 129.388V129.388C212.658 129.394 213.07 130.005 212.848 130.569V130.569C212.646 131.08 212.966 131.647 213.508 131.738V131.738C214.105 131.838 214.417 132.506 214.109 133.028V133.028C213.83 133.501 214.057 134.111 214.578 134.286V134.286C215.152 134.478 215.355 135.187 214.969 135.654V135.654C214.62 136.078 214.749 136.716 215.236 136.97V136.97C215.773 137.25 215.863 137.981 215.409 138.382V138.382C214.997 138.746 215.025 139.397 215.466 139.724V139.724C215.953 140.084 215.927 140.821 215.416 141.146V141.146C214.952 141.441 214.878 142.088 215.263 142.48V142.48C215.688 142.912 215.546 143.636 214.991 143.877V143.877C214.487 144.095 214.312 144.723 214.631 145.17V145.17C214.983 145.663 214.73 146.356 214.143 146.507V146.507C213.612 146.644 213.341 147.237 213.586 147.728V147.728C213.856 148.271 213.498 148.915 212.895 148.973V148.973C212.348 149.025 211.989 149.568 212.154 150.092V150.092C212.335 150.67 211.881 151.25 211.277 151.213V151.213C210.728 151.179 210.288 151.659 210.369 152.202V152.202C210.458 152.801 209.919 153.304 209.327 153.172V153.172C208.791 153.053 208.281 153.458 208.276 154.007V154.007C208.271 154.613 207.659 155.025 207.096 154.802V154.802C206.585 154.6 206.018 154.921 205.927 155.462V155.462C205.827 156.06 205.159 156.371 204.637 156.063V156.063C204.164 155.784 203.554 156.012 203.379 156.532V156.532C203.187 157.107 202.478 157.31 202.011 156.924V156.924C201.587 156.574 200.949 156.704 200.695 157.191V157.191C200.415 157.728 199.683 157.817 199.282 157.363V157.363C198.919 156.952 198.268 156.98 197.941 157.421V157.421C197.581 157.908 196.844 157.882 196.519 157.37V157.37C196.224 156.907 195.577 156.833 195.185 157.218V157.218C194.753 157.642 194.029 157.501 193.788 156.945V156.945C193.569 156.441 192.942 156.267 192.495 156.586V156.586C192.001 156.937 191.309 156.685 191.158 156.098V156.098C191.02 155.566 190.428 155.296 189.936 155.54V155.54C189.394 155.811 188.75 155.453 188.692 154.85V154.85C188.64 154.303 188.097 153.943 187.573 154.108V154.108C186.995 154.29 186.414 153.836 186.452 153.231V153.231C186.486 152.683 186.006 152.243 185.463 152.324V152.324C184.864 152.413 184.361 151.873 184.493 151.282V151.282C184.612 150.746 184.207 150.236 183.658 150.231V150.231C183.052 150.225 182.64 149.614 182.863 149.05V149.05C183.064 148.539 182.744 147.973 182.202 147.882V147.882C181.605 147.781 181.294 147.113 181.602 146.591V146.591C181.881 146.118 181.653 145.508 181.132 145.334V145.334C180.558 145.141 180.355 144.432 180.741 143.965V143.965C181.091 143.542 180.961 142.903 180.474 142.65V142.65C179.937 142.37 179.847 141.638 180.301 141.237V141.237C180.713 140.873 180.685 140.223 180.244 139.896V139.896C179.757 139.535 179.783 138.798 180.294 138.473V138.473C180.758 138.178 180.832 137.531 180.447 137.14V137.14C180.023 136.707 180.164 135.984 180.72 135.742V135.742C181.224 135.524 181.398 134.897 181.079 134.449V134.449C180.728 133.956 180.98 133.263 181.567 133.112V133.112C182.099 132.975 182.369 132.383 182.124 131.891V131.891C181.854 131.349 182.212 130.704 182.815 130.646V130.646C183.362 130.594 183.722 130.051 183.557 129.527V129.527C183.375 128.95 183.829 128.369 184.434 128.406V128.406C184.982 128.44 185.422 127.961 185.341 127.417V127.417C185.252 126.818 185.791 126.316 186.383 126.447V126.447C186.919 126.566 187.429 126.161 187.434 125.612V125.612C187.439 125.006 188.051 124.595 188.614 124.817V124.817C189.125 125.019 189.692 124.698 189.783 124.157V124.157Z" fill="#63A3B6" fill-opacity="0.5"/>
<path d="M196.444 144.867C193.253 140.451 192.809 135.323 197.316 132.066C201.823 128.809 208.064 129.748 211.255 134.163C214.446 138.579 213.379 144.799 208.872 148.056C204.364 151.314 199.635 149.283 196.444 144.867Z" fill="#63A3B6" fill-opacity="0.75"/>
<path d="M124.249 85.3441C123.803 84.8316 124.01 84.0313 124.648 83.7988V83.7988C125.227 83.5881 125.464 82.8978 125.137 82.3757V82.3757C124.777 81.7998 125.107 81.0416 125.773 80.9119V80.9119C126.378 80.7943 126.72 80.1497 126.48 79.5829V79.5829C126.214 78.9577 126.658 78.2604 127.337 78.2366V78.2366C127.952 78.2151 128.391 77.6319 128.242 77.0344V77.0344C128.077 76.3754 128.625 75.7561 129.299 75.8388V75.8388C129.911 75.9138 130.435 75.4065 130.382 74.7931V74.7931C130.322 74.1164 130.96 73.5904 131.613 73.7776V73.7776C132.205 73.9472 132.803 73.5283 132.845 72.914V72.914C132.892 72.2363 133.604 71.8166 134.22 72.1036V72.1036C134.778 72.3637 135.434 72.0435 135.573 71.4434V71.4434C135.725 70.7815 136.494 70.4783 137.057 70.8581V70.8581C137.568 71.2024 138.266 70.9887 138.496 70.4176V70.4176C138.751 69.7877 139.558 69.6086 140.055 70.0718V70.0718C140.505 70.4917 141.228 70.3899 141.545 69.8619V69.8619C141.894 69.2794 142.719 69.2287 143.138 69.764V69.764C143.517 70.2492 144.247 70.2617 144.643 69.7898V69.7898C145.079 69.2692 145.902 69.3482 146.231 69.9423V69.9423C146.53 70.4809 147.249 70.6074 147.713 70.2032V70.2032C148.226 69.7573 149.026 69.9641 149.259 70.6023V70.6023C149.469 71.181 150.16 71.4185 150.682 71.0919V71.0919C151.258 70.7317 152.016 71.0611 152.145 71.7279V71.7279C152.263 72.3324 152.908 72.6749 153.475 72.434V72.434C154.1 72.1683 154.797 72.6123 154.821 73.2911V73.2911C154.842 73.9066 155.426 74.3458 156.023 74.1965V74.1965C156.682 74.0319 157.301 74.5794 157.219 75.2537V75.2537C157.144 75.8649 157.651 76.3899 158.264 76.336V76.336C158.941 76.2765 159.467 76.9141 159.28 77.5672V77.5672C159.11 78.1592 159.529 78.757 160.143 78.7997V78.7997C160.821 78.8468 161.241 79.5589 160.954 80.1746V80.1746C160.694 80.7328 161.014 81.3888 161.614 81.5271V81.5271C162.276 81.6796 162.579 82.4486 162.199 83.0118V83.0118C161.855 83.5224 162.069 84.2205 162.64 84.4509V84.4509C163.27 84.7051 163.449 85.5121 162.986 86.0089V86.0089C162.566 86.4594 162.668 87.1823 163.196 87.4992V87.4992C163.778 87.8488 163.829 88.6739 163.293 89.0922V89.0922C162.808 89.4714 162.796 90.2013 163.268 90.5969V90.5969C163.788 91.0333 163.709 91.8562 163.115 92.1856V92.1856C162.577 92.4842 162.45 93.2032 162.854 93.6678V93.6678C163.3 94.1803 163.093 94.9806 162.455 95.213V95.213C161.876 95.4237 161.639 96.114 161.966 96.6361V96.6361C162.326 97.2121 161.996 97.9702 161.33 98.0999V98.0999C160.725 98.2175 160.383 98.8622 160.623 99.4289V99.4289C160.889 100.054 160.445 100.751 159.766 100.775V100.775C159.151 100.797 158.712 101.38 158.861 101.977V101.977C159.026 102.636 158.478 103.256 157.804 103.173V103.173C157.192 103.098 156.667 103.605 156.721 104.219V104.219C156.781 104.895 156.143 105.421 155.49 105.234V105.234C154.898 105.065 154.3 105.484 154.258 106.098V106.098C154.211 106.776 153.499 107.195 152.883 106.908V106.908C152.325 106.648 151.669 106.968 151.53 107.568V107.568C151.378 108.23 150.609 108.534 150.046 108.154V108.154C149.535 107.809 148.837 108.023 148.607 108.594V108.594C148.352 109.224 147.545 109.403 147.048 108.94V108.94C146.598 108.52 145.875 108.622 145.558 109.15V109.15C145.209 109.732 144.384 109.783 143.965 109.248V109.248C143.586 108.763 142.856 108.75 142.46 109.222V109.222C142.024 109.743 141.201 109.664 140.872 109.07V109.07C140.573 108.531 139.854 108.404 139.39 108.809V108.809C138.877 109.255 138.077 109.048 137.844 108.409V108.409C137.634 107.831 136.943 107.593 136.421 107.92V107.92C135.845 108.28 135.087 107.951 134.958 107.284V107.284C134.84 106.679 134.195 106.337 133.628 106.578V106.578C133.003 106.843 132.306 106.4 132.282 105.721V105.721C132.261 105.105 131.677 104.666 131.08 104.815V104.815C130.421 104.98 129.802 104.432 129.884 103.758V103.758C129.959 103.147 129.452 102.622 128.839 102.676V102.676C128.162 102.735 127.636 102.098 127.823 101.445V101.445C127.993 100.853 127.574 100.255 126.96 100.212V100.212C126.282 100.165 125.862 99.4529 126.149 98.8372V98.8372C126.409 98.2791 126.089 97.623 125.489 97.4848V97.4848C124.827 97.3322 124.524 96.5632 124.904 96V96C125.248 95.4894 125.034 94.7914 124.463 94.5609V94.5609C123.833 94.3067 123.654 93.4998 124.117 93.0029V93.0029C124.537 92.5525 124.435 91.8296 123.907 91.5126V91.5126C123.325 91.163 123.274 90.338 123.81 89.9197V89.9197C124.295 89.5405 124.307 88.8106 123.835 88.4149V88.4149C123.315 87.9785 123.394 87.1557 123.988 86.8263V86.8263C124.526 86.5276 124.653 85.8087 124.249 85.3441V85.3441Z" fill="#62B269" fill-opacity="0.5"/>
<path d="M144.458 89.4031C141.467 95.4371 136.987 99.3098 132.663 97.1666C128.339 95.0233 127.258 88.3943 130.249 82.3603C133.24 76.3263 139.17 73.1722 143.494 75.3154C147.818 77.4587 147.449 83.369 144.458 89.4031Z" fill="#62B269" fill-opacity="0.75"/>
<path d="M183.395 181.38C182.977 181.386 182.683 180.971 182.827 180.579V180.579C182.958 180.224 182.728 179.838 182.353 179.784V179.784C181.94 179.725 181.714 179.27 181.918 178.905V178.905C182.102 178.574 181.935 178.158 181.574 178.046V178.046C181.174 177.923 181.023 177.438 181.281 177.109V177.109C181.515 176.811 181.415 176.374 181.076 176.207V176.207C180.701 176.023 180.627 175.52 180.933 175.236V175.236C181.211 174.978 181.181 174.531 180.871 174.313V174.313C180.53 174.072 180.536 173.564 180.883 173.331V173.331C181.197 173.12 181.238 172.673 180.966 172.41V172.41C180.666 172.119 180.752 171.618 181.131 171.442V171.442C181.475 171.283 181.584 170.848 181.357 170.545V170.545C181.107 170.211 181.27 169.729 181.671 169.615V169.615C182.036 169.512 182.212 169.099 182.035 168.764V168.764C181.84 168.395 182.076 167.945 182.491 167.895V167.895C182.867 167.85 183.106 167.47 182.984 167.112V167.112C182.849 166.717 183.152 166.309 183.57 166.325V166.325C183.948 166.339 184.244 166.001 184.179 165.628V165.628C184.108 165.216 184.471 164.861 184.881 164.942V164.942C185.252 165.016 185.597 164.728 185.591 164.349V164.349C185.585 163.932 186 163.638 186.392 163.782V163.782C186.748 163.912 187.133 163.682 187.187 163.307V163.307C187.246 162.894 187.701 162.669 188.066 162.872V162.872C188.397 163.057 188.813 162.89 188.925 162.528V162.528C189.048 162.129 189.534 161.977 189.862 162.236V162.236C190.16 162.47 190.597 162.37 190.764 162.03V162.03C190.948 161.655 191.451 161.581 191.735 161.888V161.888C191.993 162.165 192.441 162.135 192.659 161.826V161.826C192.899 161.484 193.407 161.49 193.64 161.837V161.837C193.851 162.152 194.298 162.192 194.562 161.921V161.921C194.853 161.621 195.354 161.706 195.529 162.085V162.085C195.688 162.429 196.123 162.539 196.426 162.312V162.312C196.761 162.061 197.242 162.224 197.356 162.626V162.626C197.459 162.99 197.872 163.167 198.207 162.99V162.99C198.576 162.795 199.026 163.031 199.076 163.446V163.446C199.121 163.822 199.501 164.06 199.859 163.938V163.938C200.255 163.803 200.662 164.107 200.646 164.524V164.524C200.632 164.903 200.97 165.198 201.343 165.133V165.133C201.755 165.062 202.11 165.425 202.029 165.835V165.835C201.956 166.207 202.243 166.551 202.622 166.546V166.546C203.039 166.54 203.333 166.954 203.189 167.346V167.346C203.059 167.702 203.289 168.087 203.664 168.141V168.141C204.077 168.2 204.303 168.656 204.099 169.021V169.021C203.914 169.351 204.081 169.768 204.443 169.88V169.88C204.842 170.003 204.994 170.488 204.736 170.816V170.816C204.502 171.114 204.601 171.552 204.941 171.719V171.719C205.316 171.903 205.39 172.406 205.083 172.69V172.69C204.806 172.947 204.836 173.395 205.145 173.613V173.613C205.487 173.853 205.481 174.362 205.134 174.594V174.594C204.819 174.805 204.779 175.252 205.051 175.516V175.516C205.35 175.807 205.265 176.308 204.886 176.483V176.483C204.542 176.642 204.432 177.078 204.659 177.381V177.381C204.91 177.715 204.747 178.196 204.345 178.31V178.31C203.981 178.414 203.804 178.826 203.981 179.161V179.161C204.176 179.53 203.94 179.981 203.526 180.03V180.03C203.15 180.075 202.911 180.455 203.033 180.814V180.814C203.168 181.209 202.864 181.617 202.447 181.601V181.601C202.069 181.586 201.773 181.924 201.838 182.298V182.298C201.909 182.709 201.546 183.064 201.136 182.983V182.983C200.764 182.91 200.42 183.198 200.425 183.576V183.576C200.431 183.994 200.017 184.288 199.625 184.144V184.144C199.269 184.013 198.884 184.243 198.83 184.618V184.618C198.771 185.032 198.315 185.257 197.951 185.053V185.053C197.62 184.869 197.203 185.036 197.092 185.398V185.398C196.968 185.797 196.483 185.948 196.155 185.69V185.69C195.857 185.456 195.419 185.556 195.252 185.896V185.896C195.068 186.27 194.565 186.344 194.281 186.038V186.038C194.024 185.76 193.576 185.79 193.358 186.1V186.1C193.118 186.441 192.609 186.435 192.377 186.088V186.088C192.166 185.774 191.719 185.733 191.455 186.005V186.005C191.164 186.305 190.663 186.219 190.488 185.84V185.84C190.329 185.497 189.894 185.387 189.591 185.614V185.614C189.256 185.864 188.775 185.702 188.661 185.3V185.3C188.558 184.935 188.145 184.759 187.81 184.936V184.936C187.441 185.131 186.99 184.895 186.941 184.48V184.48C186.896 184.104 186.516 183.865 186.157 183.987V183.987C185.762 184.122 185.354 183.819 185.37 183.401V183.401C185.385 183.023 185.047 182.727 184.674 182.792V182.792C184.262 182.864 183.907 182.5 183.988 182.09V182.09C184.061 181.719 183.774 181.374 183.395 181.38V181.38Z" fill="#62B269" fill-opacity="0.5"/>
<path d="M190.766 184.469C191.885 185.21 194.923 185.932 198.127 182.895C202.131 179.099 203.817 176.968 201.071 171.496" stroke="#62B269" stroke-opacity="0.7" stroke-width="2" stroke-linecap="round" stroke-dasharray="4 4"/>
<path d="M193.32 173.496C194.968 177.295 195.01 180.936 192.287 182.117C189.565 183.298 186.022 181.176 184.374 177.377C182.726 173.578 183.597 169.541 186.319 168.36C189.041 167.179 191.672 169.697 193.32 173.496Z" fill="#62B269" fill-opacity="0.75"/>
<ellipse cx="197.919" cy="171.792" rx="1.8447" ry="0.922348" transform="rotate(116.846 197.919 171.792)" fill="#62B269" fill-opacity="0.24"/>
<path d="M184.3 47.8567C183.529 47.8681 182.987 47.1034 183.253 46.3803V46.3803C183.494 45.7248 183.069 45.014 182.378 44.9149V44.9149C181.616 44.8056 181.2 43.9655 181.575 43.2929V43.2929C181.916 42.6831 181.608 41.9147 180.94 41.7087V41.7087C180.204 41.4814 179.925 40.5866 180.401 39.9811V39.9811C180.833 39.4321 180.649 38.6249 180.022 38.317V38.317C179.331 37.9775 179.195 37.05 179.76 36.5264V36.5264C180.272 36.0516 180.217 35.2256 179.646 34.8235V34.8235C179.016 34.38 179.027 33.4427 179.667 33.0138V33.0138C180.247 32.6251 180.321 31.8006 179.82 31.3141V31.3141C179.268 30.7775 179.425 29.8534 180.124 29.53V29.53C180.758 29.2368 180.961 28.4341 180.542 27.8752V27.8752C180.08 27.2587 180.38 26.3707 181.121 26.1606V26.1606C181.793 25.9701 182.119 25.209 181.792 24.5915V24.5915C181.433 23.9104 181.868 23.0802 182.633 22.9886V22.9886C183.326 22.9056 183.767 22.2049 183.541 21.5439V21.5439C183.292 20.8149 183.852 20.063 184.622 20.0922V20.0922C185.32 20.1187 185.865 19.4955 185.745 18.8074V18.8074C185.614 18.0484 186.284 17.3934 187.04 17.5426V17.5426C187.725 17.678 188.361 17.1477 188.35 16.4494V16.4494C188.339 15.6791 189.104 15.137 189.827 15.4027V15.4027C190.482 15.6435 191.193 15.2192 191.292 14.5279V14.5279C191.401 13.7654 192.242 13.3496 192.914 13.725V13.725C193.524 14.0655 194.292 13.7576 194.498 13.0903V13.0903C194.726 12.3542 195.62 12.075 196.226 12.551V12.551C196.775 12.9827 197.582 12.7988 197.89 12.1719V12.1719C198.23 11.4805 199.157 11.3446 199.681 11.9096V11.9096C200.155 12.4218 200.981 12.3664 201.384 11.7954V11.7954C201.827 11.1657 202.764 11.1765 203.193 11.8165V11.8165C203.582 12.3966 204.406 12.4711 204.893 11.9701V11.9701C205.43 11.4175 206.354 11.5748 206.677 12.274V12.274C206.97 12.9078 207.773 13.1104 208.332 12.6916V12.6916C208.948 12.2297 209.836 12.5297 210.046 13.2708V13.2708C210.237 13.9427 210.998 14.2684 211.616 13.9422V13.9422C212.297 13.5824 213.127 14.0176 213.218 14.7825V14.7825C213.301 15.4759 214.002 15.9166 214.663 15.6911V15.6911C215.392 15.4423 216.144 16.002 216.115 16.7718V16.7718C216.088 17.4696 216.712 18.0145 217.4 17.8952V17.8952C218.159 17.7635 218.814 18.4339 218.664 19.1896V19.1896C218.529 19.8748 219.059 20.5105 219.758 20.5002V20.5002C220.528 20.4889 221.07 21.2535 220.804 21.9766V21.9766C220.564 22.6321 220.988 23.3429 221.679 23.442V23.442C222.442 23.5513 222.858 24.3914 222.482 25.064V25.064C222.142 25.6738 222.45 26.4422 223.117 26.6482V26.6482C223.853 26.8755 224.132 27.7703 223.656 28.3758V28.3758C223.224 28.9248 223.408 29.732 224.035 30.0399V30.0399C224.727 30.3794 224.862 31.3069 224.297 31.8305V31.8305C223.785 32.3053 223.841 33.1313 224.412 33.5334V33.5334C225.041 33.977 225.031 34.9143 224.391 35.3431V35.3431C223.81 35.7318 223.736 36.5563 224.237 37.0428V37.0428C224.79 37.5794 224.632 38.5035 223.933 38.8269V38.8269C223.299 39.1201 223.097 39.9228 223.515 40.4817V40.4817C223.977 41.0982 223.677 41.9862 222.936 42.1963V42.1963C222.264 42.3868 221.939 43.1479 222.265 43.7654V43.7654C222.625 44.4465 222.189 45.2767 221.425 45.3683V45.3683C220.731 45.4513 220.29 46.1521 220.516 46.813V46.813C220.765 47.542 220.205 48.2939 219.435 48.2647V48.2647C218.737 48.2382 218.193 48.8614 218.312 49.5495V49.5495C218.444 50.3085 217.773 50.9636 217.017 50.8143V50.8143C216.332 50.679 215.697 51.2092 215.707 51.9075V51.9075C215.718 52.6778 214.954 53.2199 214.23 52.9542V52.9542C213.575 52.7134 212.864 53.1377 212.765 53.829V53.829C212.656 54.5915 211.816 55.0074 211.143 54.6319V54.6319C210.533 54.2914 209.765 54.5993 209.559 55.2666V55.2666C209.332 56.0027 208.437 56.2819 207.831 55.8059V55.8059C207.282 55.3742 206.475 55.5581 206.167 56.185V56.185C205.828 56.8764 204.9 57.0123 204.377 56.4473V56.4473C203.902 55.9351 203.076 55.9905 202.674 56.5615V56.5615C202.23 57.1913 201.293 57.1804 200.864 56.5404V56.5404C200.475 55.9603 199.651 55.8858 199.164 56.3868V56.3868C198.628 56.9394 197.704 56.7821 197.38 56.0829V56.0829C197.087 55.4491 196.284 55.2465 195.725 55.6653V55.6653C195.109 56.1272 194.221 55.8272 194.011 55.0861V55.0861C193.82 54.4142 193.059 54.0885 192.442 54.4147V54.4147C191.761 54.7745 190.93 54.3393 190.839 53.5744V53.5744C190.756 52.881 190.055 52.4403 189.394 52.6658V52.6658C188.665 52.9146 187.913 52.3549 187.942 51.5851V51.5851C187.969 50.8873 187.346 50.3424 186.658 50.4618V50.4618C185.899 50.5934 185.244 49.923 185.393 49.1673V49.1673C185.528 48.4821 184.998 47.8464 184.3 47.8567V47.8567Z" fill="#62B269" fill-opacity="0.5"/>
<path d="M197.893 53.5538C199.956 54.9201 205.56 56.2524 211.468 50.6518C218.853 43.6511 221.962 39.7208 216.898 29.6286" stroke="#62B269" stroke-opacity="0.7" stroke-width="2" stroke-linecap="round" stroke-dasharray="4 4"/>
<path d="M202.603 33.3178C205.642 40.3239 205.72 47.0389 200.699 49.217C195.678 51.3951 189.144 47.4812 186.105 40.475C183.065 33.4689 184.672 26.0237 189.692 23.8456C194.713 21.6675 199.563 26.3117 202.603 33.3178Z" fill="#62B269" fill-opacity="0.75"/>
<ellipse cx="211.085" cy="30.1747" rx="3.402" ry="1.701" transform="rotate(116.846 211.085 30.1747)" fill="#62B269" fill-opacity="0.24"/>
<path d="M249.053 147.763C243.59 148.168 237.881 148.361 236.553 142.53C235.525 138.014 239.372 133.958 246.53 133.24C253.689 132.521 257.386 137.694 256.988 140.926C256.305 146.467 254.516 147.357 249.053 147.763Z" fill="#E25F71" fill-opacity="0.7"/>
<g filter="url(#filter6_i_113_3)">
<path d="M246.534 137.089C250.158 136.825 254.878 138.945 255.052 141.972C255.367 147.452 251.993 146.033 246.662 146.421C243.038 146.685 239.558 147.725 239.321 143.615C239.085 139.505 242.91 137.352 246.534 137.089Z" fill="#D84557" fill-opacity="0.5"/>
</g>
<path d="M333.274 85.001C333.614 86.1241 332.721 87.2383 331.551 87.1523V87.1523C330.49 87.0743 329.627 87.9934 329.772 89.0471V89.0471C329.931 90.2094 328.876 91.1703 327.733 90.9023V90.9023C326.698 90.6593 325.702 91.4321 325.68 92.4955V92.4955C325.655 93.6685 324.462 94.4523 323.376 94.0089V94.0089C322.391 93.607 321.286 94.2144 321.098 95.2613V95.2613C320.891 96.416 319.59 97.0035 318.586 96.3957V96.3957C317.676 95.8446 316.49 96.2717 316.141 97.2763V97.2763C315.755 98.3843 314.378 98.7611 313.482 98.0037V98.0037C312.67 97.3171 311.431 97.5534 310.929 98.4909V98.4909C310.375 99.525 308.956 99.6817 308.189 98.7935V98.7935C307.494 97.9883 306.234 98.028 305.591 98.8753V98.8753C304.882 99.8099 303.456 99.7427 302.838 98.7456V98.7456C302.277 97.8416 301.027 97.6836 300.259 98.4199V98.4199C299.412 99.2321 298.014 98.9427 297.56 97.8611V97.8611C297.148 96.8806 295.937 96.5289 295.064 97.1361V97.1361C294.101 97.8058 292.765 97.3013 292.485 96.1619V96.1619C292.232 95.129 291.091 94.5922 290.133 95.0553V95.0553C289.077 95.5661 287.837 94.8589 287.739 93.6898V93.6898C287.65 92.6299 286.607 91.9213 285.589 92.2289V92.2289C284.466 92.5682 283.352 91.6756 283.438 90.5056V90.5056C283.516 89.4448 282.597 88.5818 281.543 88.7264V88.7264C280.381 88.8858 279.42 87.83 279.688 86.6878V86.6878C279.931 85.6523 279.158 84.6561 278.095 84.634V84.634C276.922 84.6097 276.138 83.4165 276.581 82.3303V82.3303C276.983 81.3456 276.376 80.2408 275.329 80.0526V80.0526C274.174 79.8451 273.587 78.544 274.194 77.5405V77.5405C274.746 76.6308 274.318 75.4446 273.314 75.095V75.095C272.206 74.7094 271.829 73.3324 272.586 72.4363V72.4363C273.273 71.624 273.037 70.3856 272.099 69.8831V69.8831C271.065 69.3289 270.908 67.91 271.797 67.1434V67.1434C272.602 66.4485 272.562 65.1884 271.715 64.5455V64.5455C270.78 63.8363 270.847 62.4103 271.845 61.7922V61.7922C272.749 61.2318 272.907 59.9809 272.17 59.2134V59.2134C271.358 58.3668 271.647 56.9688 272.729 56.5143V56.5143C273.71 56.1022 274.061 54.8914 273.454 54.0181V54.0181C272.784 53.0549 273.289 51.7194 274.428 51.4397V51.4397C275.461 51.1861 275.998 50.0452 275.535 49.0877V49.0877C275.024 48.0316 275.731 46.7915 276.9 46.6934V46.6934C277.96 46.6045 278.669 45.5617 278.361 44.5435V44.5435C278.022 43.4205 278.915 42.3063 280.085 42.3923V42.3923C281.145 42.4703 282.008 41.5512 281.864 40.4974V40.4974C281.704 39.3351 282.76 38.3742 283.902 38.6423V38.6423C284.938 38.8852 285.934 38.1124 285.956 37.049V37.049C285.98 35.8761 287.174 35.0922 288.26 35.5356V35.5356C289.245 35.9376 290.349 35.3301 290.538 34.2833V34.2833C290.745 33.1286 292.046 32.541 293.05 33.1489V33.1489C293.959 33.6999 295.146 33.2728 295.495 32.2683V32.2683C295.881 31.1603 297.258 30.7835 298.154 31.5408V31.5408C298.966 32.2274 300.205 31.9911 300.707 31.0536V31.0536C301.261 30.0196 302.68 29.8629 303.447 30.751V30.751C304.142 31.5562 305.402 31.5166 306.045 30.6693V30.6693C306.754 29.7346 308.18 29.8018 308.798 30.799V30.799C309.358 31.703 310.609 31.8609 311.377 31.1246V31.1246C312.223 30.3124 313.621 30.6018 314.076 31.6834V31.6834C314.488 32.664 315.699 33.0157 316.572 32.4085V32.4085C317.535 31.7387 318.871 32.2433 319.15 33.3826V33.3826C319.404 34.4156 320.545 34.9523 321.502 34.4892V34.4892C322.559 33.9784 323.799 34.6857 323.897 35.8548V35.8548C323.986 36.9147 325.028 37.6233 326.047 37.3157V37.3157C327.17 36.9764 328.284 37.8689 328.198 39.039V39.039C328.12 40.0997 329.039 40.9627 330.093 40.8182V40.8182C331.255 40.6587 332.216 41.7146 331.948 42.8568V42.8568C331.705 43.8923 332.478 44.8885 333.541 44.9105V44.9105C334.714 44.9349 335.498 46.128 335.055 47.2142V47.2142C334.653 48.199 335.26 49.3038 336.307 49.4919V49.4919C337.462 49.6995 338.049 51.0006 337.441 52.004V52.004C336.89 52.9137 337.317 54.1 338.322 54.4496V54.4496C339.43 54.8352 339.807 56.2122 339.049 57.1082V57.1082C338.363 57.9205 338.599 59.159 339.537 59.6614V59.6614C340.571 60.2156 340.727 61.6346 339.839 62.4011V62.4011C339.034 63.096 339.074 64.3562 339.921 64.9991V64.9991C340.856 65.7082 340.788 67.1343 339.791 67.7524V67.7524C338.887 68.3128 338.729 69.5637 339.466 70.3312V70.3312C340.278 71.1778 339.988 72.5758 338.907 73.0303V73.0303C337.926 73.4424 337.574 74.6531 338.182 75.5264V75.5264C338.851 76.4896 338.347 77.8251 337.208 78.1049V78.1049C336.175 78.3585 335.638 79.4993 336.101 80.4568V80.4568C336.612 81.513 335.904 82.7531 334.735 82.8511V82.8511C333.675 82.94 332.967 83.9829 333.274 85.001V85.001Z" fill="#63A3B6" fill-opacity="0.7"/>
<path d="M302.333 70.9145C293.002 63.4393 284.131 59.7821 294.184 47.2335C301.659 37.9019 315.283 36.3971 324.615 43.8723C333.946 51.3475 335.451 64.9721 327.976 74.3036C318.573 86.0414 311.665 78.3897 302.333 70.9145Z" fill="white" fill-opacity="0.77"/>
<path d="M301.395 194.23C300.977 194.236 300.683 193.821 300.827 193.429V193.429C300.958 193.074 300.728 192.688 300.353 192.635V192.635C299.94 192.575 299.714 192.12 299.918 191.755V191.755C300.102 191.424 299.935 191.008 299.574 190.896V190.896C299.174 190.773 299.023 190.288 299.281 189.959V189.959C299.515 189.662 299.415 189.224 299.076 189.057V189.057C298.701 188.873 298.627 188.37 298.933 188.086V188.086C299.211 187.829 299.181 187.381 298.871 187.163V187.163C298.53 186.922 298.536 186.414 298.883 186.181V186.181C299.197 185.971 299.238 185.524 298.966 185.26V185.26C298.666 184.969 298.752 184.468 299.131 184.292V184.292C299.475 184.133 299.584 183.698 299.357 183.395V183.395C299.107 183.061 299.27 182.579 299.671 182.465V182.465C300.036 182.362 300.212 181.949 300.036 181.614V181.614C299.84 181.245 300.076 180.795 300.491 180.745V180.745C300.867 180.7 301.106 180.32 300.984 179.962V179.962C300.849 179.567 301.152 179.159 301.57 179.175V179.175C301.948 179.189 302.244 178.851 302.179 178.478V178.478C302.108 178.067 302.471 177.711 302.881 177.792V177.792C303.252 177.866 303.597 177.578 303.591 177.199V177.199C303.585 176.782 304 176.488 304.392 176.632V176.632C304.748 176.763 305.133 176.532 305.187 176.158V176.158C305.246 175.744 305.701 175.519 306.066 175.722V175.722C306.397 175.907 306.814 175.74 306.925 175.378V175.378C307.048 174.979 307.534 174.828 307.862 175.086V175.086C308.16 175.32 308.597 175.22 308.764 174.88V174.88C308.948 174.505 309.451 174.431 309.735 174.738V174.738C309.993 175.016 310.441 174.986 310.659 174.676V174.676C310.899 174.334 311.407 174.34 311.64 174.687V174.687C311.851 175.002 312.298 175.042 312.562 174.771V174.771C312.853 174.471 313.354 174.556 313.529 174.935V174.935C313.688 175.279 314.123 175.389 314.426 175.162V175.162C314.761 174.911 315.242 175.074 315.356 175.476V175.476C315.459 175.84 315.872 176.017 316.207 175.84V175.84C316.576 175.645 317.026 175.881 317.076 176.296V176.296C317.121 176.672 317.501 176.911 317.859 176.788V176.788C318.255 176.653 318.662 176.957 318.646 177.374V177.374C318.632 177.753 318.97 178.048 319.343 177.983V177.983C319.755 177.912 320.11 178.276 320.029 178.685V178.685C319.956 179.057 320.243 179.402 320.622 179.396V179.396C321.039 179.39 321.333 179.804 321.189 180.197V180.197C321.059 180.552 321.289 180.937 321.664 180.991V180.991C322.077 181.05 322.303 181.506 322.099 181.871V181.871C321.914 182.201 322.081 182.618 322.443 182.73V182.73C322.842 182.853 322.994 183.338 322.736 183.666V183.666C322.502 183.964 322.601 184.402 322.941 184.569V184.569C323.316 184.753 323.39 185.256 323.083 185.54V185.54C322.806 185.797 322.836 186.245 323.145 186.463V186.463C323.487 186.704 323.481 187.212 323.134 187.444V187.444C322.819 187.655 322.779 188.102 323.051 188.366V188.366C323.35 188.657 323.265 189.158 322.886 189.333V189.333C322.542 189.492 322.432 189.928 322.659 190.231V190.231C322.91 190.565 322.747 191.047 322.345 191.16V191.16C321.981 191.264 321.804 191.676 321.981 192.011V192.011C322.176 192.381 321.94 192.831 321.526 192.88V192.88C321.15 192.925 320.911 193.305 321.033 193.664V193.664C321.168 194.059 320.864 194.467 320.447 194.451V194.451C320.069 194.437 319.773 194.775 319.838 195.148V195.148C319.909 195.559 319.546 195.914 319.136 195.833V195.833C318.764 195.76 318.42 196.048 318.425 196.426V196.426C318.431 196.844 318.017 197.138 317.625 196.994V196.994C317.269 196.863 316.884 197.093 316.83 197.468V197.468C316.771 197.882 316.315 198.107 315.951 197.903V197.903C315.62 197.719 315.203 197.886 315.092 198.248V198.248C314.968 198.647 314.483 198.798 314.155 198.54V198.54C313.857 198.306 313.419 198.406 313.252 198.746V198.746C313.068 199.121 312.565 199.194 312.282 198.888V198.888C312.024 198.61 311.576 198.64 311.358 198.95V198.95C311.118 199.291 310.609 199.285 310.377 198.938V198.938C310.166 198.624 309.719 198.583 309.455 198.855V198.855C309.164 199.155 308.663 199.069 308.488 198.69V198.69C308.329 198.347 307.894 198.237 307.591 198.464V198.464C307.256 198.714 306.775 198.552 306.661 198.15V198.15C306.558 197.785 306.145 197.609 305.81 197.786V197.786C305.441 197.981 304.99 197.745 304.941 197.33V197.33C304.896 196.954 304.516 196.715 304.157 196.837V196.837C303.762 196.972 303.354 196.669 303.37 196.251V196.251C303.385 195.873 303.047 195.578 302.674 195.642V195.642C302.262 195.714 301.907 195.35 301.988 194.94V194.94C302.061 194.569 301.774 194.224 301.395 194.23V194.23Z" fill="#62B269" fill-opacity="0.5"/>
<path d="M308.766 197.319C309.885 198.06 312.923 198.782 316.127 195.745C320.131 191.949 321.817 189.818 319.071 184.346" stroke="#62B269" stroke-opacity="0.7" stroke-width="2" stroke-linecap="round" stroke-dasharray="4 4"/>
<path d="M311.32 186.346C312.968 190.145 313.01 193.786 310.287 194.967C307.565 196.148 304.022 194.026 302.374 190.227C300.726 186.428 301.597 182.391 304.319 181.21C307.041 180.029 309.672 182.547 311.32 186.346Z" fill="#62B269" fill-opacity="0.75"/>
<ellipse cx="315.919" cy="184.642" rx="1.8447" ry="0.922348" transform="rotate(116.846 315.919 184.642)" fill="#62B269" fill-opacity="0.24"/>
<path d="M311.3 148.707C310.529 148.718 309.987 147.953 310.253 147.23V147.23C310.494 146.575 310.069 145.864 309.378 145.765V145.765C308.616 145.656 308.2 144.816 308.575 144.143V144.143C308.916 143.533 308.608 142.765 307.94 142.559V142.559C307.204 142.332 306.925 141.437 307.401 140.831V140.831C307.833 140.282 307.649 139.475 307.022 139.167V139.167C306.331 138.828 306.195 137.9 306.76 137.376V137.376C307.272 136.902 307.217 136.076 306.646 135.674V135.674C306.016 135.23 306.027 134.293 306.667 133.864V133.864C307.247 133.475 307.321 132.651 306.82 132.164V132.164C306.268 131.628 306.425 130.704 307.124 130.38V130.38C307.758 130.087 307.961 129.284 307.542 128.725V128.725C307.08 128.109 307.38 127.221 308.121 127.011V127.011C308.793 126.82 309.119 126.059 308.792 125.442V125.442C308.433 124.761 308.868 123.93 309.633 123.839V123.839C310.326 123.756 310.767 123.055 310.541 122.394V122.394C310.292 121.665 310.852 120.913 311.622 120.942V120.942C312.32 120.969 312.865 120.346 312.745 119.658V119.658C312.614 118.899 313.284 118.243 314.04 118.393V118.393C314.725 118.528 315.361 117.998 315.35 117.299V117.299C315.339 116.529 316.104 115.987 316.827 116.253V116.253C317.482 116.494 318.193 116.069 318.292 115.378V115.378C318.402 114.615 319.242 114.2 319.914 114.575V114.575C320.524 114.916 321.292 114.608 321.498 113.94V113.94C321.726 113.204 322.62 112.925 323.226 113.401V113.401C323.775 113.833 324.582 113.649 324.89 113.022V113.022C325.23 112.331 326.157 112.195 326.681 112.76V112.76C327.155 113.272 327.981 113.217 328.384 112.646V112.646C328.827 112.016 329.764 112.027 330.193 112.667V112.667C330.582 113.247 331.406 113.321 331.893 112.82V112.82C332.43 112.268 333.354 112.425 333.677 113.124V113.124C333.97 113.758 334.773 113.96 335.332 113.542V113.542C335.948 113.08 336.836 113.38 337.046 114.121V114.121C337.237 114.793 337.998 115.118 338.616 114.792V114.792C339.297 114.433 340.127 114.868 340.218 115.633V115.633C340.301 116.326 341.002 116.767 341.663 116.541V116.541C342.392 116.292 343.144 116.852 343.115 117.622V117.622C343.088 118.32 343.712 118.865 344.4 118.745V118.745C345.159 118.614 345.814 119.284 345.664 120.04V120.04C345.529 120.725 346.059 121.361 346.758 121.35V121.35C347.528 121.339 348.07 122.104 347.804 122.827V122.827C347.564 123.482 347.988 124.193 348.679 124.292V124.292C349.442 124.401 349.858 125.242 349.482 125.914V125.914C349.142 126.524 349.45 127.292 350.117 127.498V127.498C350.853 127.726 351.132 128.62 350.656 129.226V129.226C350.224 129.775 350.408 130.582 351.035 130.89V130.89C351.727 131.23 351.862 132.157 351.298 132.681V132.681C350.785 133.155 350.841 133.981 351.412 134.384V134.384C352.041 134.827 352.031 135.764 351.391 136.193V136.193C350.81 136.582 350.736 137.406 351.237 137.893V137.893C351.79 138.43 351.632 139.354 350.933 139.677V139.677C350.299 139.97 350.097 140.773 350.515 141.332V141.332C350.977 141.948 350.677 142.836 349.936 143.046V143.046C349.264 143.237 348.939 143.998 349.265 144.615V144.615C349.625 145.297 349.189 146.127 348.425 146.218V146.218C347.731 146.301 347.29 147.002 347.516 147.663V147.663C347.765 148.392 347.205 149.144 346.435 149.115V149.115C345.737 149.088 345.193 149.712 345.312 150.4V150.4C345.444 151.159 344.773 151.814 344.017 151.664V151.664C343.332 151.529 342.697 152.059 342.707 152.758V152.758C342.718 153.528 341.954 154.07 341.23 153.804V153.804C340.575 153.564 339.864 153.988 339.765 154.679V154.679C339.656 155.442 338.816 155.857 338.143 155.482V155.482C337.533 155.142 336.765 155.449 336.559 156.117V156.117C336.332 156.853 335.437 157.132 334.831 156.656V156.656C334.282 156.224 333.475 156.408 333.167 157.035V157.035C332.828 157.727 331.9 157.862 331.377 157.297V157.297C330.902 156.785 330.076 156.841 329.674 157.412V157.412C329.23 158.041 328.293 158.03 327.864 157.391V157.391C327.475 156.81 326.651 156.736 326.164 157.237V157.237C325.628 157.79 324.704 157.632 324.38 156.933V156.933C324.087 156.299 323.284 156.097 322.725 156.515V156.515C322.109 156.977 321.221 156.677 321.011 155.936V155.936C320.82 155.264 320.059 154.939 319.442 155.265V155.265C318.761 155.625 317.93 155.189 317.839 154.425V154.425C317.756 153.731 317.055 153.29 316.394 153.516V153.516C315.665 153.765 314.913 153.205 314.942 152.435V152.435C314.969 151.737 314.346 151.192 313.658 151.312V151.312C312.899 151.444 312.244 150.773 312.393 150.017V150.017C312.528 149.332 311.998 148.697 311.3 148.707V148.707Z" fill="#62B269" fill-opacity="0.5"/>
<path d="M324.893 154.404C326.956 155.77 332.56 157.102 338.468 151.502C345.853 144.501 348.962 140.571 343.898 130.479" stroke="#62B269" stroke-opacity="0.7" stroke-width="2" stroke-linecap="round" stroke-dasharray="4 4"/>
<path d="M329.603 134.168C332.642 141.174 332.72 147.889 327.699 150.067C322.678 152.245 316.144 148.331 313.105 141.325C310.065 134.319 311.672 126.874 316.692 124.696C321.713 122.518 326.563 127.162 329.603 134.168Z" fill="#62B269" fill-opacity="0.75"/>
<ellipse cx="338.085" cy="131.025" rx="3.402" ry="1.701" transform="rotate(116.846 338.085 131.025)" fill="#62B269" fill-opacity="0.24"/>
<path d="M367.053 160.613C361.59 161.018 355.881 161.211 354.553 155.38C353.525 150.864 357.372 146.808 364.53 146.09C371.689 145.371 375.386 150.544 374.988 153.776C374.305 159.317 372.516 160.207 367.053 160.613Z" fill="#E25F71" fill-opacity="0.7"/>
<g filter="url(#filter7_i_113_3)">
<path d="M364.534 149.939C368.158 149.675 372.878 151.795 373.052 154.822C373.367 160.302 369.993 158.883 364.662 159.271C361.038 159.535 357.558 160.575 357.321 156.465C357.085 152.355 360.91 150.202 364.534 149.939Z" fill="#D84557" fill-opacity="0.5"/>
</g>
<path d="M422.176 131.948C422.515 133.071 421.622 134.185 420.452 134.099V134.099C419.391 134.021 418.528 134.94 418.673 135.994V135.994C418.832 137.156 417.777 138.117 416.634 137.849V137.849C415.599 137.606 414.603 138.379 414.581 139.442V139.442C414.556 140.615 413.363 141.399 412.277 140.956V140.956C411.292 140.554 410.187 141.161 409.999 142.208V142.208C409.792 143.363 408.491 143.95 407.487 143.342V143.342C406.577 142.791 405.391 143.218 405.042 144.223V144.223C404.656 145.331 403.279 145.708 402.383 144.95V144.95C401.571 144.264 400.332 144.5 399.83 145.437V145.437C399.276 146.472 397.857 146.628 397.09 145.74V145.74C396.395 144.935 395.135 144.975 394.492 145.822V145.822C393.783 146.756 392.357 146.689 391.739 145.692V145.692C391.178 144.788 389.928 144.63 389.16 145.367V145.367C388.313 146.179 386.915 145.889 386.461 144.808V144.808C386.049 143.827 384.838 143.475 383.965 144.083V144.083C383.002 144.752 381.666 144.248 381.386 143.108V143.108C381.133 142.076 379.992 141.539 379.034 142.002V142.002C377.978 142.513 376.738 141.805 376.64 140.636V140.636C376.551 139.576 375.508 138.868 374.49 139.175V139.175C373.367 139.515 372.253 138.622 372.339 137.452V137.452C372.417 136.391 371.498 135.528 370.444 135.673V135.673C369.282 135.832 368.321 134.777 368.589 133.634V133.634C368.832 132.599 368.059 131.603 366.996 131.581V131.581C365.823 131.556 365.039 130.363 365.482 129.277V129.277C365.884 128.292 365.277 127.187 364.23 126.999V126.999C363.075 126.792 362.488 125.491 363.096 124.487V124.487C363.647 123.577 363.219 122.391 362.215 122.042V122.042C361.107 121.656 360.73 120.279 361.487 119.383V119.383C362.174 118.571 361.938 117.332 361 116.83V116.83C359.966 116.276 359.809 114.857 360.698 114.09V114.09C361.503 113.395 361.463 112.135 360.616 111.492V111.492C359.681 110.783 359.748 109.357 360.746 108.739V108.739C361.65 108.178 361.808 106.927 361.071 106.16V106.16C360.259 105.313 360.548 103.915 361.63 103.461V103.461C362.611 103.049 362.962 101.838 362.355 100.965V100.965C361.685 100.001 362.19 98.666 363.329 98.3863V98.3863C364.362 98.1327 364.899 96.9918 364.436 96.0343V96.0343C363.925 94.9782 364.632 93.7381 365.801 93.64V93.64C366.861 93.5511 367.57 92.5083 367.262 91.4901V91.4901C366.923 90.367 367.816 89.2528 368.986 89.3389V89.3389C370.046 89.4169 370.909 88.4977 370.765 87.444V87.444C370.605 86.2817 371.661 85.3208 372.803 85.5888V85.5888C373.839 85.8318 374.835 85.059 374.857 83.9956V83.9956C374.881 82.8227 376.075 82.0388 377.161 82.4822V82.4822C378.146 82.8842 379.25 82.2767 379.439 81.2299V81.2299C379.646 80.0752 380.947 79.4876 381.951 80.0955V80.0955C382.86 80.6465 384.047 80.2194 384.396 79.2149V79.2149C384.782 78.1068 386.159 77.7301 387.055 78.4874V78.4874C387.867 79.174 389.106 78.9377 389.608 78.0002V78.0002C390.162 76.9662 391.581 76.8094 392.348 77.6976V77.6976C393.043 78.5028 394.303 78.4632 394.946 77.6158V77.6158C395.655 76.6812 397.081 76.7484 397.699 77.7455V77.7455C398.259 78.6495 399.51 78.8075 400.278 78.0712V78.0712C401.124 77.259 402.522 77.5484 402.977 78.63V78.63C403.389 79.6105 404.6 79.9622 405.473 79.355V79.355C406.436 78.6853 407.772 79.1899 408.052 80.3292V80.3292C408.305 81.3622 409.446 81.8989 410.403 81.4358V81.4358C411.46 80.925 412.7 81.6323 412.798 82.8014V82.8014C412.887 83.8612 413.929 84.5699 414.948 84.2622V84.2622C416.071 83.9229 417.185 84.8155 417.099 85.9855V85.9855C417.021 87.0463 417.94 87.9093 418.994 87.7648V87.7648C420.156 87.6053 421.117 88.6612 420.849 89.8034V89.8034C420.606 90.8388 421.379 91.835 422.442 91.8571V91.8571C423.615 91.8814 424.399 93.0746 423.956 94.1608V94.1608C423.554 95.1455 424.161 96.2504 425.208 96.4385V96.4385C426.363 96.646 426.95 97.9471 426.342 98.9506V98.9506C425.791 99.8603 426.218 101.047 427.223 101.396V101.396C428.331 101.782 428.708 103.159 427.95 104.055V104.055C427.264 104.867 427.5 106.106 428.438 106.608V106.608C429.472 107.162 429.628 108.581 428.74 109.348V109.348C427.935 110.043 427.975 111.303 428.822 111.946V111.946C429.757 112.655 429.689 114.081 428.692 114.699V114.699C427.788 115.259 427.63 116.51 428.367 117.278V117.278C429.179 118.124 428.889 119.522 427.808 119.977V119.977C426.827 120.389 426.476 121.6 427.083 122.473V122.473C427.752 123.436 427.248 124.772 426.109 125.051V125.051C425.076 125.305 424.539 126.446 425.002 127.403V127.403C425.513 128.46 424.806 129.7 423.636 129.798V129.798C422.577 129.887 421.868 130.929 422.176 131.948V131.948Z" fill="#63A3B6" fill-opacity="0.7"/>
<path d="M391.235 117.861C381.903 110.386 373.032 106.729 383.085 94.1801C390.56 84.8485 404.184 83.3436 413.516 90.8188C422.847 98.294 424.352 111.919 416.877 121.25C407.474 132.988 400.566 125.336 391.235 117.861Z" fill="white" fill-opacity="0.77"/>
</g>
<rect x="179" y="221.905" width="38" height="2" rx="1" transform="rotate(-23.0936 179 221.905)" fill="#DC794E"/>
<rect width="38" height="2" rx="1" transform="matrix(-0.919866 -0.392234 -0.392234 0.919866 379.739 222.905)" fill="#DC794E"/>
<path d="M197.137 190.583C196.662 189.922 197.135 189 197.949 189H361.989C362.815 189 363.285 189.945 362.786 190.604L334.773 227.604C334.584 227.853 334.289 228 333.976 228H224.513C224.191 228 223.889 227.845 223.701 227.583L197.137 190.583Z" fill="#DC794E"/>
<rect x="209" y="209" width="139" height="91" fill="#DC794E"/>
<path d="M255 189H304L295.388 228H263.167L255 189Z" fill="#AD6C4F"/>
<path d="M259 209H299V231C299 232.657 297.657 234 296 234H262C260.343 234 259 232.657 259 231V209Z" fill="#AD6C4F"/>
<path d="M279.429 239C267.447 239 268.195 244.185 268.195 244.185L268.21 249.556H279.643V251.167H263.665C263.665 251.167 256 250.299 256 262.363C256 274.425 262.692 273.998 262.692 273.998H266.686V268.4C266.686 268.4 266.471 261.723 273.272 261.723H284.611C284.611 261.723 290.983 261.826 290.983 255.579V245.25C290.983 245.25 291.95 239 279.429 239ZM273.124 242.611C274.261 242.611 275.182 243.53 275.182 244.664C275.182 245.799 274.261 246.717 273.124 246.717C272.854 246.718 272.586 246.665 272.336 246.562C272.086 246.459 271.859 246.307 271.668 246.117C271.477 245.926 271.326 245.7 271.222 245.45C271.119 245.201 271.066 244.934 271.067 244.664C271.067 243.53 271.987 242.611 273.124 242.611Z" fill="#387EB8"/>
<path d="M280.571 286C292.553 286 291.805 280.815 291.805 280.815L291.79 275.444H280.357V273.832H296.333C296.333 273.832 304 274.7 304 262.637C304 250.574 297.308 251.002 297.308 251.002H293.314V256.599C293.314 256.599 293.529 263.276 286.728 263.276H275.389C275.389 263.276 269.017 263.173 269.017 269.42V279.75C269.017 279.75 268.05 286 280.571 286ZM286.876 282.388C286.606 282.389 286.338 282.336 286.088 282.233C285.838 282.13 285.611 281.979 285.42 281.788C285.229 281.597 285.077 281.371 284.974 281.122C284.871 280.872 284.818 280.605 284.818 280.335C284.818 279.202 285.739 278.284 286.876 278.284C288.013 278.284 288.933 279.201 288.933 280.335C288.933 281.472 288.013 282.388 286.876 282.388Z" fill="#FFE052"/>
</g>
<defs>
<filter id="filter0_i_113_3" x="214.294" y="182.675" width="13.2112" height="9.95233" filterUnits="userSpaceOnUse" color-interpolation-filters="sRGB">
<feFlood flood-opacity="0" result="BackgroundImageFix"/>
<feBlend mode="normal" in="SourceGraphic" in2="BackgroundImageFix" result="shape"/>
<feColorMatrix in="SourceAlpha" type="matrix" values="0 0 0 0 0 0 0 0 0 0 0 0 0 0 0 0 0 0 127 0" result="hardAlpha"/>
<feOffset dx="-1" dy="-0.5"/>
<feGaussianBlur stdDeviation="2.5"/>
<feComposite in2="hardAlpha" operator="arithmetic" k2="-1" k3="1"/>
<feColorMatrix type="matrix" values="0 0 0 0 0 0 0 0 0 0 0 0 0 0 0 0 0 0 0.15 0"/>
<feBlend mode="normal" in2="shape" result="effect1_innerShadow_113_3"/>
</filter>
<filter id="filter1_i_113_3" x="181.797" y="81.83" width="21.6038" height="16.7827" filterUnits="userSpaceOnUse" color-interpolation-filters="sRGB">
<feFlood flood-opacity="0" result="BackgroundImageFix"/>
<feBlend mode="normal" in="SourceGraphic" in2="BackgroundImageFix" result="shape"/>
<feColorMatrix in="SourceAlpha" type="matrix" values="0 0 0 0 0 0 0 0 0 0 0 0 0 0 0 0 0 0 127 0" result="hardAlpha"/>
<feOffset dx="-1" dy="-0.5"/>
<feGaussianBlur stdDeviation="2.5"/>
<feComposite in2="hardAlpha" operator="arithmetic" k2="-1" k3="1"/>
<feColorMatrix type="matrix" values="0 0 0 0 0 0 0 0 0 0 0 0 0 0 0 0 0 0 0.15 0"/>
<feBlend mode="normal" in2="shape" result="effect1_innerShadow_113_3"/>
</filter>
<filter id="filter2_i_113_3" x="279.015" y="114.689" width="21.6379" height="16.3399" filterUnits="userSpaceOnUse" color-interpolation-filters="sRGB">
<feFlood flood-opacity="0" result="BackgroundImageFix"/>
<feBlend mode="normal" in="SourceGraphic" in2="BackgroundImageFix" result="shape"/>
<feColorMatrix in="SourceAlpha" type="matrix" values="0 0 0 0 0 0 0 0 0 0 0 0 0 0 0 0 0 0 127 0" result="hardAlpha"/>
<feOffset dx="-1" dy="-0.5"/>
<feGaussianBlur stdDeviation="2.5"/>
<feComposite in2="hardAlpha" operator="arithmetic" k2="-1" k3="1"/>
<feColorMatrix type="matrix" values="0 0 0 0 0 0 0 0 0 0 0 0 0 0 0 0 0 0 0.15 0"/>
<feBlend mode="normal" in2="shape" result="effect1_innerShadow_113_3"/>
</filter>
<filter id="filter3_i_113_3" x="231.929" y="160.94" width="15.1039" height="15.4251" filterUnits="userSpaceOnUse" color-interpolation-filters="sRGB">
<feFlood flood-opacity="0" result="BackgroundImageFix"/>
<feBlend mode="normal" in="SourceGraphic" in2="BackgroundImageFix" result="shape"/>
<feColorMatrix in="SourceAlpha" type="matrix" values="0 0 0 0 0 0 0 0 0 0 0 0 0 0 0 0 0 0 127 0" result="hardAlpha"/>
<feOffset dx="-1" dy="-0.5"/>
<feGaussianBlur stdDeviation="2.5"/>
<feComposite in2="hardAlpha" operator="arithmetic" k2="-1" k3="1"/>
<feColorMatrix type="matrix" values="0 0 0 0 0 0 0 0 0 0 0 0 0 0 0 0 0 0 0.15 0"/>
<feBlend mode="normal" in2="shape" result="effect1_innerShadow_113_3"/>
</filter>
<filter id="filter4_i_113_3" x="234.225" y="26.9629" width="28.6063" height="18.62" filterUnits="userSpaceOnUse" color-interpolation-filters="sRGB">
<feFlood flood-opacity="0" result="BackgroundImageFix"/>
<feBlend mode="normal" in="SourceGraphic" in2="BackgroundImageFix" result="shape"/>
<feColorMatrix in="SourceAlpha" type="matrix" values="0 0 0 0 0 0 0 0 0 0 0 0 0 0 0 0 0 0 127 0" result="hardAlpha"/>
<feOffset dx="-1" dy="-0.5"/>
<feGaussianBlur stdDeviation="2.5"/>
<feComposite in2="hardAlpha" operator="arithmetic" k2="-1" k3="1"/>
<feColorMatrix type="matrix" values="0 0 0 0 0 0 0 0 0 0 0 0 0 0 0 0 0 0 0.15 0"/>
<feBlend mode="normal" in2="shape" result="effect1_innerShadow_113_3"/>
</filter>
<filter id="filter5_i_113_3" x="157.82" y="117.406" width="21.9185" height="13.3292" filterUnits="userSpaceOnUse" color-interpolation-filters="sRGB">
<feFlood flood-opacity="0" result="BackgroundImageFix"/>
<feBlend mode="normal" in="SourceGraphic" in2="BackgroundImageFix" result="shape"/>
<feColorMatrix in="SourceAlpha" type="matrix" values="0 0 0 0 0 0 0 0 0 0 0 0 0 0 0 0 0 0 127 0" result="hardAlpha"/>
<feOffset dx="-1" dy="-0.5"/>
<feGaussianBlur stdDeviation="2.5"/>
<feComposite in2="hardAlpha" operator="arithmetic" k2="-1" k3="1"/>
<feColorMatrix type="matrix" values="0 0 0 0 0 0 0 0 0 0 0 0 0 0 0 0 0 0 0.15 0"/>
<feBlend mode="normal" in2="shape" result="effect1_innerShadow_113_3"/>
</filter>
<filter id="filter6_i_113_3" x="238.311" y="136.566" width="16.7614" height="10.1663" filterUnits="userSpaceOnUse" color-interpolation-filters="sRGB">
<feFlood flood-opacity="0" result="BackgroundImageFix"/>
<feBlend mode="normal" in="SourceGraphic" in2="BackgroundImageFix" result="shape"/>
<feColorMatrix in="SourceAlpha" type="matrix" values="0 0 0 0 0 0 0 0 0 0 0 0 0 0 0 0 0 0 127 0" result="hardAlpha"/>
<feOffset dx="-1" dy="-0.5"/>
<feGaussianBlur stdDeviation="2.5"/>
<feComposite in2="hardAlpha" operator="arithmetic" k2="-1" k3="1"/>
<feColorMatrix type="matrix" values="0 0 0 0 0 0 0 0 0 0 0 0 0 0 0 0 0 0 0.15 0"/>
<feBlend mode="normal" in2="shape" result="effect1_innerShadow_113_3"/>
</filter>
<filter id="filter7_i_113_3" x="356.311" y="149.417" width="16.7614" height="10.1663" filterUnits="userSpaceOnUse" color-interpolation-filters="sRGB">
<feFlood flood-opacity="0" result="BackgroundImageFix"/>
<feBlend mode="normal" in="SourceGraphic" in2="BackgroundImageFix" result="shape"/>
<feColorMatrix in="SourceAlpha" type="matrix" values="0 0 0 0 0 0 0 0 0 0 0 0 0 0 0 0 0 0 127 0" result="hardAlpha"/>
<feOffset dx="-1" dy="-0.5"/>
<feGaussianBlur stdDeviation="2.5"/>
<feComposite in2="hardAlpha" operator="arithmetic" k2="-1" k3="1"/>
<feColorMatrix type="matrix" values="0 0 0 0 0 0 0 0 0 0 0 0 0 0 0 0 0 0 0.15 0"/>
<feBlend mode="normal" in2="shape" result="effect1_innerShadow_113_3"/>
</filter>
<clipPath id="clip0_113_3">
<rect width="500" height="300" fill="white"/>
</clipPath>
</defs>
</svg>
